G04 DipTrace 3.3.0.0*
G04 orgone_3_PCBPANEL.GBL*
%MOIN*%
G04 #@! TF.FileFunction,Copper,L2,Bot*
G04 #@! TF.Part,Single*
G04 #@! TA.AperFunction,CopperBalancing*
%ADD13C,0.01*%
G04 #@! TA.AperFunction,ViaPad*
%ADD14C,0.04*%
%FSLAX26Y26*%
G04*
G70*
G90*
G75*
G01*
G04 Bottom*
%LPD*%
X575266Y4127507D2*
D13*
Y3752508D1*
D14*
X2392533Y622835D3*
X2044052Y3789257D3*
X2469008D3*
X3018950D3*
X3243927D3*
X3443906D3*
X3725126D3*
X1587850Y2702257D3*
X2006556D3*
X2256530D3*
X2762727D3*
X2993953D3*
X3412659D3*
X3687630D3*
X4087588D3*
X1444115D3*
X500465Y2908493D3*
Y1677373D3*
X1100402Y4195858D3*
X1512766Y4196257D3*
X3931354Y3789257D3*
X4168829D3*
X744189Y5114512D3*
X1056656D3*
X1456614D3*
X2137793Y5114257D3*
X2537751D3*
X2831470D3*
X3581391Y5114512D3*
X4225073Y5114257D3*
X594205Y759257D3*
X2375268D3*
X3325168D3*
X4193827D3*
X1500360D3*
X425016Y5412638D2*
D13*
X617675D1*
X760357D2*
X4018064D1*
X4160514D2*
X4338016D1*
X425016Y5402769D2*
X608064D1*
X769967D2*
X4008436D1*
X4170143D2*
X4338016D1*
X425016Y5392900D2*
X600584D1*
X777448D2*
X4000936D1*
X4177643D2*
X4338016D1*
X425016Y5383031D2*
X594744D1*
X783287D2*
X3995096D1*
X4183503D2*
X4338016D1*
X425016Y5373163D2*
X590252D1*
X787780D2*
X3990564D1*
X4188014D2*
X4338016D1*
X425016Y5363294D2*
X586912D1*
X791119D2*
X3987205D1*
X4191373D2*
X4338016D1*
X425016Y5353425D2*
X584608D1*
X793424D2*
X3984900D1*
X4193678D2*
X4338016D1*
X425016Y5343556D2*
X583280D1*
X794752D2*
X3983552D1*
X4195025D2*
X4338016D1*
X425016Y5333688D2*
X582888D1*
X795143D2*
X3983163D1*
X4195416D2*
X4338016D1*
X425016Y5323819D2*
X583436D1*
X794596D2*
X3983689D1*
X4194888D2*
X4338016D1*
X425016Y5313950D2*
X584920D1*
X793112D2*
X3985175D1*
X4193424D2*
X4338016D1*
X425016Y5304081D2*
X587381D1*
X790651D2*
X3987635D1*
X4190963D2*
X4338016D1*
X425016Y5294213D2*
X590916D1*
X787115D2*
X3991151D1*
X4187448D2*
X4338016D1*
X425016Y5284344D2*
X595623D1*
X782408D2*
X3995839D1*
X4182740D2*
X4338016D1*
X425016Y5274475D2*
X601717D1*
X776315D2*
X4001912D1*
X4176667D2*
X4338016D1*
X425016Y5264606D2*
X609491D1*
X768541D2*
X4009667D1*
X4168912D2*
X4338016D1*
X425016Y5254738D2*
X619529D1*
X758503D2*
X4019685D1*
X4158892D2*
X4338016D1*
X425016Y5244869D2*
X633084D1*
X744948D2*
X4033182D1*
X4145396D2*
X4338016D1*
X425016Y5235000D2*
X654080D1*
X723951D2*
X4054041D1*
X4124537D2*
X4338016D1*
X425016Y5225131D2*
X4338016D1*
X425016Y5215262D2*
X4338016D1*
X425016Y5205394D2*
X4338016D1*
X425016Y5195525D2*
X4338016D1*
X425016Y5185656D2*
X4338016D1*
X425016Y5175787D2*
X4338016D1*
X425016Y5165919D2*
X4338016D1*
X425016Y5156050D2*
X4338016D1*
X425016Y5146181D2*
X721463D1*
X766900D2*
X1033944D1*
X1079381D2*
X1433904D1*
X1479323D2*
X2115448D1*
X2160143D2*
X2515408D1*
X2560084D2*
X2809139D1*
X2853815D2*
X3558671D1*
X3604108D2*
X4202732D1*
X4247408D2*
X4338016D1*
X425016Y5136312D2*
X711580D1*
X776803D2*
X1024041D1*
X1089264D2*
X1424003D1*
X1489224D2*
X2105349D1*
X2170220D2*
X2505311D1*
X2570182D2*
X2799041D1*
X2863912D2*
X3548787D1*
X3614010D2*
X4192635D1*
X4257507D2*
X4338016D1*
X425016Y5126444D2*
X706697D1*
X781685D2*
X1019159D1*
X1094147D2*
X1419119D1*
X1494108D2*
X2100369D1*
X2175201D2*
X2500331D1*
X2575163D2*
X2794060D1*
X2868892D2*
X3543885D1*
X3618892D2*
X4187655D1*
X4262487D2*
X4338016D1*
X425016Y5116575D2*
X704843D1*
X783541D2*
X1017303D1*
X1096003D2*
X1417264D1*
X1495963D2*
X2098455D1*
X2177115D2*
X2498416D1*
X2577076D2*
X2792147D1*
X2870807D2*
X3542049D1*
X3620728D2*
X4185740D1*
X4264400D2*
X4338016D1*
X425016Y5106706D2*
X705584D1*
X782780D2*
X1018064D1*
X1095260D2*
X1418025D1*
X1495220D2*
X2099139D1*
X2176451D2*
X2499100D1*
X2576392D2*
X2792811D1*
X2870123D2*
X3542791D1*
X3619987D2*
X4186424D1*
X4263717D2*
X4338016D1*
X425016Y5096837D2*
X709100D1*
X779283D2*
X1021560D1*
X1091744D2*
X1421521D1*
X1491705D2*
X2102576D1*
X2173014D2*
X2502537D1*
X2572975D2*
X2796248D1*
X2866685D2*
X3546307D1*
X3616491D2*
X4189861D1*
X4260299D2*
X4338016D1*
X425016Y5086969D2*
X716424D1*
X771940D2*
X1028904D1*
X1084420D2*
X1428865D1*
X1484361D2*
X2109783D1*
X2165807D2*
X2509724D1*
X2565768D2*
X2803455D1*
X2859479D2*
X3553631D1*
X3609147D2*
X4197049D1*
X4253092D2*
X4338016D1*
X425016Y5077100D2*
X734529D1*
X753835D2*
X1047010D1*
X1066315D2*
X1446951D1*
X1466276D2*
X2127108D1*
X2148483D2*
X2527068D1*
X2548444D2*
X2820780D1*
X2842155D2*
X3571736D1*
X3591041D2*
X4214392D1*
X4235768D2*
X4338016D1*
X425016Y5067231D2*
X4338016D1*
X425016Y5057362D2*
X4338016D1*
X425016Y5047493D2*
X4338016D1*
X425016Y5037625D2*
X4338016D1*
X425016Y5027756D2*
X4338016D1*
X425016Y5017887D2*
X4338016D1*
X425016Y5008018D2*
X4338016D1*
X425016Y4998150D2*
X4338016D1*
X425016Y4988281D2*
X4338016D1*
X425016Y4978412D2*
X4338016D1*
X425016Y4968543D2*
X4338016D1*
X425016Y4958675D2*
X4338016D1*
X425016Y4948806D2*
X826463D1*
X961568D2*
X1726463D1*
X1861568D2*
X2626463D1*
X2761568D2*
X3826463D1*
X3961568D2*
X4338016D1*
X425016Y4938937D2*
X797147D1*
X990885D2*
X1697147D1*
X1890885D2*
X2597147D1*
X2790885D2*
X3797147D1*
X3990885D2*
X4338016D1*
X425016Y4929068D2*
X775701D1*
X1012331D2*
X1675701D1*
X1912331D2*
X2575701D1*
X2812331D2*
X3775701D1*
X4012331D2*
X4338016D1*
X425016Y4919199D2*
X758339D1*
X1029693D2*
X1658339D1*
X1929693D2*
X2558339D1*
X2829693D2*
X3758339D1*
X4029693D2*
X4338016D1*
X425016Y4909331D2*
X743631D1*
X1044400D2*
X1643631D1*
X1944400D2*
X2543631D1*
X2844400D2*
X3743631D1*
X4044400D2*
X4338016D1*
X425016Y4899462D2*
X730839D1*
X1057193D2*
X1630839D1*
X1957193D2*
X2530839D1*
X2857193D2*
X3730839D1*
X4057193D2*
X4338016D1*
X425016Y4889593D2*
X719549D1*
X1068483D2*
X1619549D1*
X1968483D2*
X2519549D1*
X2868483D2*
X3719549D1*
X4068483D2*
X4338016D1*
X425016Y4879724D2*
X709471D1*
X1078560D2*
X1609471D1*
X1978560D2*
X2509471D1*
X2878560D2*
X3709471D1*
X4078560D2*
X4338016D1*
X425016Y4869856D2*
X700448D1*
X1087584D2*
X1600448D1*
X1987584D2*
X2500448D1*
X2887584D2*
X3700448D1*
X4087584D2*
X4338016D1*
X425016Y4859987D2*
X692283D1*
X1095748D2*
X1592283D1*
X1995748D2*
X2492283D1*
X2895748D2*
X3692283D1*
X4095748D2*
X4338016D1*
X425016Y4850118D2*
X684920D1*
X1103112D2*
X1584920D1*
X2003112D2*
X2484920D1*
X2903112D2*
X3684920D1*
X4103112D2*
X4338016D1*
X425016Y4840249D2*
X678260D1*
X1109772D2*
X1578260D1*
X2009772D2*
X2478260D1*
X2909772D2*
X3678260D1*
X4109772D2*
X4338016D1*
X425016Y4830381D2*
X672244D1*
X1115787D2*
X1572244D1*
X2015787D2*
X2472244D1*
X2915787D2*
X3672244D1*
X4115787D2*
X4338016D1*
X425016Y4820512D2*
X666815D1*
X1121217D2*
X1566815D1*
X2021217D2*
X2466815D1*
X2921217D2*
X3666815D1*
X4121217D2*
X4338016D1*
X425016Y4810643D2*
X661932D1*
X1126100D2*
X1561932D1*
X2026100D2*
X2461932D1*
X2926100D2*
X3661932D1*
X4126100D2*
X4338016D1*
X425016Y4800774D2*
X657576D1*
X1130455D2*
X1557576D1*
X2030455D2*
X2457576D1*
X2930455D2*
X3657576D1*
X4130455D2*
X4338016D1*
X425016Y4790906D2*
X653689D1*
X1134343D2*
X1553689D1*
X2034343D2*
X2453689D1*
X2934343D2*
X3653689D1*
X4134343D2*
X4338016D1*
X425016Y4781037D2*
X650272D1*
X1137760D2*
X1550272D1*
X2037760D2*
X2450272D1*
X2937760D2*
X3650272D1*
X4137760D2*
X4338016D1*
X425016Y4771168D2*
X647303D1*
X1140728D2*
X1547303D1*
X2040728D2*
X2447303D1*
X2940728D2*
X3647303D1*
X4140728D2*
X4338016D1*
X425016Y4761299D2*
X644744D1*
X1143287D2*
X1544744D1*
X2043287D2*
X2444744D1*
X2943287D2*
X3644744D1*
X4143287D2*
X4338016D1*
X425016Y4751430D2*
X642615D1*
X1145416D2*
X1542615D1*
X2045416D2*
X2442615D1*
X2945416D2*
X3642615D1*
X4145416D2*
X4338016D1*
X425016Y4741562D2*
X640896D1*
X1147135D2*
X1540896D1*
X2047135D2*
X2440896D1*
X2947135D2*
X3640896D1*
X4147135D2*
X4338016D1*
X425016Y4731693D2*
X639568D1*
X1148463D2*
X1539568D1*
X2048463D2*
X2439568D1*
X2948463D2*
X3639568D1*
X4148463D2*
X4338016D1*
X425016Y4721824D2*
X638612D1*
X1149420D2*
X1538612D1*
X2049420D2*
X2438612D1*
X2949420D2*
X3638612D1*
X4149420D2*
X4338016D1*
X425016Y4711955D2*
X638064D1*
X1149967D2*
X1538064D1*
X2049967D2*
X2438064D1*
X2949967D2*
X3638064D1*
X4149967D2*
X4338016D1*
X425016Y4702087D2*
X637888D1*
X1150143D2*
X1537888D1*
X2050143D2*
X2437888D1*
X2950143D2*
X3637888D1*
X4150143D2*
X4338016D1*
X425016Y4692218D2*
X638084D1*
X1149948D2*
X1538084D1*
X2049948D2*
X2438084D1*
X2949948D2*
X3638084D1*
X4149948D2*
X4338016D1*
X425016Y4682349D2*
X638689D1*
X1149343D2*
X1538689D1*
X2049343D2*
X2438689D1*
X2949343D2*
X3638689D1*
X4149343D2*
X4338016D1*
X425016Y4672480D2*
X639667D1*
X1148365D2*
X1539667D1*
X2048365D2*
X2439667D1*
X2948365D2*
X3639667D1*
X4148365D2*
X4338016D1*
X425016Y4662612D2*
X641014D1*
X1147017D2*
X1541014D1*
X2047017D2*
X2441014D1*
X2947017D2*
X3641014D1*
X4147017D2*
X4338016D1*
X425016Y4652743D2*
X642791D1*
X1145240D2*
X1542791D1*
X2045240D2*
X2442791D1*
X2945240D2*
X3642791D1*
X4145240D2*
X4338016D1*
X425016Y4642874D2*
X644959D1*
X1143072D2*
X1544959D1*
X2043072D2*
X2444959D1*
X2943072D2*
X3644959D1*
X4143072D2*
X4338016D1*
X425016Y4633005D2*
X647537D1*
X1140495D2*
X1547537D1*
X2040495D2*
X2447537D1*
X2940495D2*
X3647537D1*
X4140495D2*
X4338016D1*
X425016Y4623136D2*
X650545D1*
X1137487D2*
X1550545D1*
X2037487D2*
X2450545D1*
X2937487D2*
X3650545D1*
X4137487D2*
X4338016D1*
X425016Y4613268D2*
X654003D1*
X1134029D2*
X1554003D1*
X2034029D2*
X2454003D1*
X2934029D2*
X3654003D1*
X4134029D2*
X4338016D1*
X425016Y4603399D2*
X657928D1*
X1130104D2*
X1557928D1*
X2030104D2*
X2457928D1*
X2930104D2*
X3657928D1*
X4130104D2*
X4338016D1*
X425016Y4593530D2*
X662323D1*
X1125709D2*
X1562323D1*
X2025709D2*
X2462323D1*
X2925709D2*
X3662323D1*
X4125709D2*
X4338016D1*
X425016Y4583661D2*
X667264D1*
X1120768D2*
X1567264D1*
X2020768D2*
X2467264D1*
X2920768D2*
X3667264D1*
X4120768D2*
X4338016D1*
X425016Y4573793D2*
X672732D1*
X1115299D2*
X1572732D1*
X2015299D2*
X2472732D1*
X2915299D2*
X3672732D1*
X4115299D2*
X4338016D1*
X425016Y4563924D2*
X678807D1*
X1109224D2*
X1578807D1*
X2009224D2*
X2478807D1*
X2909224D2*
X3678807D1*
X4109224D2*
X4338016D1*
X425016Y4554055D2*
X685525D1*
X1102507D2*
X1585525D1*
X2002507D2*
X2485525D1*
X2902507D2*
X3685525D1*
X4102507D2*
X4338016D1*
X425016Y4544186D2*
X692948D1*
X1095084D2*
X1592948D1*
X1995084D2*
X2492948D1*
X2895084D2*
X3692948D1*
X4095084D2*
X4338016D1*
X425016Y4534318D2*
X701171D1*
X1086861D2*
X1601171D1*
X1986861D2*
X2501171D1*
X2886861D2*
X3701171D1*
X4086861D2*
X4338016D1*
X425016Y4524449D2*
X710291D1*
X1077740D2*
X1610291D1*
X1977740D2*
X2510291D1*
X2877740D2*
X3710291D1*
X4077740D2*
X4338016D1*
X425016Y4514580D2*
X720467D1*
X1067564D2*
X1620467D1*
X1967564D2*
X2520467D1*
X2867564D2*
X3720467D1*
X4067564D2*
X4338016D1*
X425016Y4504711D2*
X731873D1*
X1056159D2*
X1631873D1*
X1956159D2*
X2531873D1*
X2856159D2*
X3731873D1*
X4056159D2*
X4338016D1*
X425016Y4494843D2*
X744803D1*
X1043228D2*
X1644803D1*
X1943228D2*
X2544803D1*
X2843228D2*
X3744803D1*
X4043228D2*
X4338016D1*
X425016Y4484974D2*
X759705D1*
X1028327D2*
X1659705D1*
X1928327D2*
X2559705D1*
X2828327D2*
X3759705D1*
X4028327D2*
X4338016D1*
X425016Y4475105D2*
X777343D1*
X1010689D2*
X1677343D1*
X1910689D2*
X2577343D1*
X2810689D2*
X3777343D1*
X4010689D2*
X4338016D1*
X425016Y4465236D2*
X799236D1*
X988795D2*
X1699236D1*
X1888795D2*
X2599236D1*
X2788795D2*
X3799236D1*
X3988795D2*
X4338016D1*
X425016Y4455367D2*
X829667D1*
X958365D2*
X1729667D1*
X1858365D2*
X2629667D1*
X2758365D2*
X3829667D1*
X3958365D2*
X4338016D1*
X425016Y4445499D2*
X4338016D1*
X425016Y4435630D2*
X4338016D1*
X425016Y4425761D2*
X855623D1*
X932408D2*
X1755623D1*
X1832408D2*
X2655623D1*
X2732408D2*
X4338016D1*
X425016Y4415892D2*
X836092D1*
X951940D2*
X1736092D1*
X1851940D2*
X2636092D1*
X2751940D2*
X4338016D1*
X425016Y4406024D2*
X823104D1*
X964928D2*
X1723104D1*
X1864928D2*
X2623104D1*
X2764928D2*
X4338016D1*
X425016Y4396155D2*
X813396D1*
X974635D2*
X1713396D1*
X1874635D2*
X2613396D1*
X2774635D2*
X4338016D1*
X425016Y4386286D2*
X805857D1*
X982175D2*
X1705857D1*
X1882175D2*
X2605857D1*
X2782175D2*
X4338016D1*
X425016Y4376417D2*
X799959D1*
X988072D2*
X1699959D1*
X1888072D2*
X2599959D1*
X2788072D2*
X4338016D1*
X425016Y4366549D2*
X795408D1*
X992623D2*
X1695408D1*
X1892623D2*
X2595408D1*
X2792623D2*
X4338016D1*
X425016Y4356680D2*
X792010D1*
X996021D2*
X1692010D1*
X1896021D2*
X2592010D1*
X2796021D2*
X4338016D1*
X425016Y4346811D2*
X789667D1*
X998365D2*
X1689667D1*
X1898365D2*
X2589667D1*
X2798365D2*
X4338016D1*
X425016Y4336942D2*
X788319D1*
X999713D2*
X1688319D1*
X1899713D2*
X2588319D1*
X2799713D2*
X4338016D1*
X425016Y4327073D2*
X787888D1*
X1000143D2*
X1687888D1*
X1900143D2*
X2587888D1*
X2800143D2*
X4338016D1*
X425016Y4317205D2*
X788396D1*
X999635D2*
X1688396D1*
X1899635D2*
X2588396D1*
X2799635D2*
X4338016D1*
X425016Y4307336D2*
X789843D1*
X998189D2*
X1689843D1*
X1898189D2*
X2589843D1*
X2798189D2*
X4338016D1*
X425016Y4297467D2*
X792264D1*
X995768D2*
X1692264D1*
X1895768D2*
X2592264D1*
X2795768D2*
X4338016D1*
X425016Y4287598D2*
X795760D1*
X992272D2*
X1695760D1*
X1892272D2*
X2595760D1*
X2792272D2*
X4338016D1*
X425016Y4277730D2*
X800408D1*
X987623D2*
X1700408D1*
X1887623D2*
X2600408D1*
X2787623D2*
X4338016D1*
X425016Y4267861D2*
X806444D1*
X981588D2*
X1706444D1*
X1881588D2*
X2606444D1*
X2781588D2*
X4338016D1*
X425016Y4257992D2*
X814139D1*
X973892D2*
X1714139D1*
X1873892D2*
X2614139D1*
X2773892D2*
X4338016D1*
X425016Y4248123D2*
X824080D1*
X963951D2*
X1724080D1*
X1863951D2*
X2624080D1*
X2763951D2*
X4338016D1*
X425016Y4238255D2*
X837459D1*
X950572D2*
X1737459D1*
X1850572D2*
X2637459D1*
X2750572D2*
X4338016D1*
X425016Y4228386D2*
X854100D1*
X933932D2*
X1079003D1*
X1121803D2*
X1490740D1*
X1534791D2*
X1754100D1*
X1833932D2*
X2204100D1*
X2283932D2*
X2654100D1*
X2733932D2*
X3104100D1*
X3183932D2*
X3554100D1*
X3633932D2*
X4004100D1*
X4083932D2*
X4338016D1*
X425016Y4218517D2*
X823104D1*
X964928D2*
X1068396D1*
X1132408D2*
X1480467D1*
X1545064D2*
X1723104D1*
X1864928D2*
X2173104D1*
X2314928D2*
X2623104D1*
X2764928D2*
X3073104D1*
X3214928D2*
X3523104D1*
X3664928D2*
X3973104D1*
X4114928D2*
X4338016D1*
X425016Y4208648D2*
X803201D1*
X984831D2*
X1063201D1*
X1137604D2*
X1475428D1*
X1550104D2*
X1703201D1*
X1884831D2*
X2153201D1*
X2334831D2*
X2603201D1*
X2784831D2*
X3053201D1*
X3234831D2*
X3503201D1*
X3684831D2*
X3953201D1*
X4134831D2*
X4338016D1*
X425016Y4198780D2*
X787888D1*
X1000143D2*
X1061112D1*
X1139693D2*
X1473455D1*
X1552076D2*
X1687888D1*
X1900143D2*
X2137888D1*
X2350143D2*
X2587888D1*
X2800143D2*
X3037888D1*
X3250143D2*
X3487888D1*
X3700143D2*
X3937888D1*
X4150143D2*
X4338016D1*
X425016Y4188911D2*
X775369D1*
X1012663D2*
X1061639D1*
X1139167D2*
X1474080D1*
X1551451D2*
X1675369D1*
X1912663D2*
X2125369D1*
X2362663D2*
X2575369D1*
X2812663D2*
X3025369D1*
X3262663D2*
X3475369D1*
X3712663D2*
X3925369D1*
X4162663D2*
X4338016D1*
X425016Y4179042D2*
X764823D1*
X1023209D2*
X1064881D1*
X1135924D2*
X1477440D1*
X1548092D2*
X1664823D1*
X1923209D2*
X2114823D1*
X2373209D2*
X2564823D1*
X2823209D2*
X3014823D1*
X3273209D2*
X3464823D1*
X3723209D2*
X3914823D1*
X4173209D2*
X4338016D1*
X425016Y4169173D2*
X755780D1*
X1032252D2*
X1071795D1*
X1129010D2*
X1484549D1*
X1540983D2*
X1655780D1*
X1932252D2*
X2105780D1*
X2382252D2*
X2555780D1*
X2832252D2*
X3005780D1*
X3282252D2*
X3455780D1*
X3732252D2*
X3905780D1*
X4182252D2*
X4338016D1*
X425016Y4159304D2*
X747967D1*
X1040064D2*
X1087635D1*
X1113171D2*
X1501327D1*
X1524205D2*
X1647967D1*
X1940064D2*
X2097967D1*
X2390064D2*
X2547967D1*
X2840064D2*
X2997967D1*
X3290064D2*
X3447967D1*
X3740064D2*
X3897967D1*
X4190064D2*
X4338016D1*
X425016Y4149436D2*
X566131D1*
X584400D2*
X741189D1*
X1046843D2*
X1641189D1*
X1946843D2*
X2091189D1*
X2396843D2*
X2541189D1*
X2846843D2*
X2991189D1*
X3296843D2*
X3441189D1*
X3746843D2*
X3891189D1*
X4196843D2*
X4338016D1*
X425016Y4139567D2*
X554236D1*
X596295D2*
X735331D1*
X1052701D2*
X1635331D1*
X1952701D2*
X2085331D1*
X2402701D2*
X2535331D1*
X2852701D2*
X2985331D1*
X3302701D2*
X3435331D1*
X3752701D2*
X3885331D1*
X4202701D2*
X4338016D1*
X425016Y4129698D2*
X550975D1*
X599556D2*
X730272D1*
X1057760D2*
X1630272D1*
X1957760D2*
X2080272D1*
X2407760D2*
X2530272D1*
X2857760D2*
X2980272D1*
X3307760D2*
X3430272D1*
X3757760D2*
X3880272D1*
X4207760D2*
X4338016D1*
X425016Y4119829D2*
X550877D1*
X599655D2*
X725936D1*
X1062096D2*
X1625936D1*
X1962096D2*
X2075936D1*
X2412096D2*
X2525936D1*
X2862096D2*
X2975936D1*
X3312096D2*
X3425936D1*
X3762096D2*
X3875936D1*
X4212096D2*
X4338016D1*
X425016Y4109961D2*
X550877D1*
X599655D2*
X722283D1*
X1065748D2*
X1622283D1*
X1965748D2*
X2072283D1*
X2415748D2*
X2522283D1*
X2865748D2*
X2972283D1*
X3315748D2*
X3422283D1*
X3765748D2*
X3872283D1*
X4215748D2*
X4338016D1*
X425016Y4100092D2*
X550877D1*
X599655D2*
X719276D1*
X1068756D2*
X1619276D1*
X1968756D2*
X2069276D1*
X2418756D2*
X2519276D1*
X2868756D2*
X2969276D1*
X3318756D2*
X3419276D1*
X3768756D2*
X3869276D1*
X4218756D2*
X4338016D1*
X425016Y4090223D2*
X550877D1*
X599655D2*
X716873D1*
X1071159D2*
X1616873D1*
X1971159D2*
X2066873D1*
X2421159D2*
X2516873D1*
X2871159D2*
X2966873D1*
X3321159D2*
X3416873D1*
X3771159D2*
X3866873D1*
X4221159D2*
X4338016D1*
X425016Y4080354D2*
X550877D1*
X599655D2*
X715056D1*
X1072975D2*
X1615056D1*
X1972975D2*
X2065056D1*
X2422975D2*
X2515056D1*
X2872975D2*
X2965056D1*
X3322975D2*
X3415056D1*
X3772975D2*
X3865056D1*
X4222975D2*
X4338016D1*
X425016Y4070486D2*
X550877D1*
X599655D2*
X713787D1*
X1074244D2*
X1613787D1*
X1974244D2*
X2063787D1*
X2424244D2*
X2513787D1*
X2874244D2*
X2963787D1*
X3324244D2*
X3413787D1*
X3774244D2*
X3863787D1*
X4224244D2*
X4338016D1*
X425016Y4060617D2*
X550877D1*
X599655D2*
X713064D1*
X1074967D2*
X1613064D1*
X1974967D2*
X2063064D1*
X2424967D2*
X2513064D1*
X2874967D2*
X2963064D1*
X3324967D2*
X3413064D1*
X3774967D2*
X3863064D1*
X4224967D2*
X4338016D1*
X425016Y4050748D2*
X550877D1*
X599655D2*
X712888D1*
X1075143D2*
X1612888D1*
X1975143D2*
X2062888D1*
X2425143D2*
X2512888D1*
X2875143D2*
X2962888D1*
X3325143D2*
X3412888D1*
X3775143D2*
X3862888D1*
X4225143D2*
X4338016D1*
X425016Y4040879D2*
X550877D1*
X599655D2*
X713260D1*
X1074772D2*
X1613260D1*
X1974772D2*
X2063260D1*
X2424772D2*
X2513260D1*
X2874772D2*
X2963260D1*
X3324772D2*
X3413260D1*
X3774772D2*
X3863260D1*
X4224772D2*
X4338016D1*
X425016Y4031010D2*
X550877D1*
X599655D2*
X714178D1*
X1073853D2*
X1614178D1*
X1973853D2*
X2064178D1*
X2423853D2*
X2514178D1*
X2873853D2*
X2964178D1*
X3323853D2*
X3414178D1*
X3773853D2*
X3864178D1*
X4223853D2*
X4338016D1*
X425016Y4021142D2*
X550877D1*
X599655D2*
X715643D1*
X1072388D2*
X1615643D1*
X1972388D2*
X2065643D1*
X2422388D2*
X2515643D1*
X2872388D2*
X2965643D1*
X3322388D2*
X3415643D1*
X3772388D2*
X3865643D1*
X4222388D2*
X4338016D1*
X425016Y4011273D2*
X550877D1*
X599655D2*
X717675D1*
X1070357D2*
X1617675D1*
X1970357D2*
X2067675D1*
X2420357D2*
X2517675D1*
X2870357D2*
X2967675D1*
X3320357D2*
X3417675D1*
X3770357D2*
X3867675D1*
X4220357D2*
X4338016D1*
X425016Y4001404D2*
X550877D1*
X599655D2*
X720291D1*
X1067740D2*
X1620291D1*
X1967740D2*
X2070291D1*
X2417740D2*
X2520291D1*
X2867740D2*
X2970291D1*
X3317740D2*
X3420291D1*
X3767740D2*
X3870291D1*
X4217740D2*
X4338016D1*
X425016Y3991535D2*
X550877D1*
X599655D2*
X723514D1*
X1064517D2*
X1623514D1*
X1964517D2*
X2073514D1*
X2414517D2*
X2523514D1*
X2864517D2*
X2973514D1*
X3314517D2*
X3423514D1*
X3764517D2*
X3873514D1*
X4214517D2*
X4338016D1*
X425016Y3981667D2*
X550877D1*
X599655D2*
X727400D1*
X1060631D2*
X1627400D1*
X1960631D2*
X2077400D1*
X2410631D2*
X2527400D1*
X2860631D2*
X2977400D1*
X3310631D2*
X3427400D1*
X3760631D2*
X3877400D1*
X4210631D2*
X4338016D1*
X425016Y3971798D2*
X550877D1*
X599655D2*
X731971D1*
X1056060D2*
X1631971D1*
X1956060D2*
X2081971D1*
X2406060D2*
X2531971D1*
X2856060D2*
X2981971D1*
X3306060D2*
X3431971D1*
X3756060D2*
X3881971D1*
X4206060D2*
X4338016D1*
X425016Y3961929D2*
X550877D1*
X599655D2*
X737323D1*
X1050709D2*
X1637323D1*
X1950709D2*
X2087323D1*
X2400709D2*
X2537323D1*
X2850709D2*
X2987323D1*
X3300709D2*
X3437323D1*
X3750709D2*
X3887323D1*
X4200709D2*
X4338016D1*
X425016Y3952060D2*
X550877D1*
X599655D2*
X743495D1*
X1044537D2*
X1643495D1*
X1944537D2*
X2093495D1*
X2394537D2*
X2543495D1*
X2844537D2*
X2993495D1*
X3294537D2*
X3443495D1*
X3744537D2*
X3893495D1*
X4194537D2*
X4338016D1*
X425016Y3942192D2*
X550877D1*
X599655D2*
X750623D1*
X1037408D2*
X1650623D1*
X1937408D2*
X2100623D1*
X2387408D2*
X2550623D1*
X2837408D2*
X3000623D1*
X3287408D2*
X3450623D1*
X3737408D2*
X3900623D1*
X4187408D2*
X4338016D1*
X425016Y3932323D2*
X550877D1*
X599655D2*
X758846D1*
X1029185D2*
X1658846D1*
X1929185D2*
X2108846D1*
X2379185D2*
X2558846D1*
X2829185D2*
X3008846D1*
X3279185D2*
X3458846D1*
X3729185D2*
X3908846D1*
X4179185D2*
X4338016D1*
X425016Y3922454D2*
X550877D1*
X599655D2*
X768377D1*
X1019655D2*
X1668377D1*
X1919655D2*
X2118377D1*
X2369655D2*
X2568377D1*
X2819655D2*
X3018377D1*
X3269655D2*
X3468377D1*
X3719655D2*
X3918377D1*
X4169655D2*
X4338016D1*
X425016Y3912585D2*
X550877D1*
X599655D2*
X779568D1*
X1008463D2*
X1679568D1*
X1908463D2*
X2129568D1*
X2358463D2*
X2579568D1*
X2808463D2*
X3029568D1*
X3258463D2*
X3479568D1*
X3708463D2*
X3929568D1*
X4158463D2*
X4338016D1*
X425016Y3902717D2*
X550877D1*
X599655D2*
X792967D1*
X995064D2*
X1692967D1*
X1895064D2*
X2142967D1*
X2345064D2*
X2592967D1*
X2795064D2*
X3042967D1*
X3245064D2*
X3492967D1*
X3695064D2*
X3942967D1*
X4145064D2*
X4338016D1*
X425016Y3892848D2*
X550877D1*
X599655D2*
X809608D1*
X978424D2*
X1709608D1*
X1878424D2*
X2159608D1*
X2328424D2*
X2609608D1*
X2778424D2*
X3059608D1*
X3228424D2*
X3509608D1*
X3678424D2*
X3959608D1*
X4128424D2*
X4338016D1*
X425016Y3882979D2*
X550877D1*
X599655D2*
X832127D1*
X955904D2*
X1732127D1*
X1855904D2*
X2182127D1*
X2305904D2*
X2632127D1*
X2755904D2*
X3082127D1*
X3205904D2*
X3532127D1*
X3655904D2*
X3982127D1*
X4105904D2*
X4338016D1*
X425016Y3873110D2*
X550877D1*
X599655D2*
X876756D1*
X911276D2*
X1776756D1*
X1811276D2*
X2226756D1*
X2261276D2*
X2676756D1*
X2711276D2*
X3126756D1*
X3161276D2*
X3576756D1*
X3611276D2*
X4026756D1*
X4061276D2*
X4338016D1*
X425016Y3863241D2*
X550877D1*
X599655D2*
X4338016D1*
X425016Y3853373D2*
X550877D1*
X599655D2*
X4338016D1*
X425016Y3843504D2*
X550877D1*
X599655D2*
X4338016D1*
X425016Y3833635D2*
X550877D1*
X599655D2*
X4338016D1*
X425016Y3823766D2*
X550877D1*
X599655D2*
X2026209D1*
X2061900D2*
X2451171D1*
X2486843D2*
X3001112D1*
X3036783D2*
X3226092D1*
X3261764D2*
X3426072D1*
X3461744D2*
X3707283D1*
X3742975D2*
X3913514D1*
X3949205D2*
X4150995D1*
X4186667D2*
X4338016D1*
X425016Y3813898D2*
X550877D1*
X599655D2*
X2013592D1*
X2074499D2*
X2438552D1*
X2499459D2*
X2988495D1*
X3049400D2*
X3213475D1*
X3274381D2*
X3413455D1*
X3474361D2*
X3694667D1*
X3755572D2*
X3900896D1*
X3961803D2*
X4138377D1*
X4199283D2*
X4338016D1*
X425016Y3804029D2*
X550877D1*
X599655D2*
X2007615D1*
X2080495D2*
X2432556D1*
X2505455D2*
X2982499D1*
X3055396D2*
X3207479D1*
X3280377D2*
X3407459D1*
X3480357D2*
X3688689D1*
X3761568D2*
X3894900D1*
X3967799D2*
X4132381D1*
X4205280D2*
X4338016D1*
X425016Y3794160D2*
X550877D1*
X599655D2*
X2004959D1*
X2083131D2*
X2429920D1*
X2508092D2*
X2979861D1*
X3058033D2*
X3204843D1*
X3283014D2*
X3404823D1*
X3482995D2*
X3686033D1*
X3764205D2*
X3892264D1*
X3970436D2*
X4129744D1*
X4207916D2*
X4338016D1*
X425016Y3784291D2*
X550877D1*
X599655D2*
X2004979D1*
X2083131D2*
X2429940D1*
X2508092D2*
X2979881D1*
X3058033D2*
X3204843D1*
X3282995D2*
X3404823D1*
X3482975D2*
X3686052D1*
X3764205D2*
X3892283D1*
X3970436D2*
X4129744D1*
X4207916D2*
X4338016D1*
X425016Y3774423D2*
X550877D1*
X599655D2*
X2007635D1*
X2080475D2*
X2432596D1*
X2505436D2*
X2982537D1*
X3055377D2*
X3207499D1*
X3280339D2*
X3407479D1*
X3480319D2*
X3688709D1*
X3761549D2*
X3894940D1*
X3967780D2*
X4132420D1*
X4205240D2*
X4338016D1*
X425016Y3764554D2*
X550877D1*
X599655D2*
X2013651D1*
X2074459D2*
X2438612D1*
X2499400D2*
X2988552D1*
X3049343D2*
X3213533D1*
X3274323D2*
X3413514D1*
X3474303D2*
X3694724D1*
X3755533D2*
X3900955D1*
X3961744D2*
X4138436D1*
X4199224D2*
X4338016D1*
X425016Y3754685D2*
X550877D1*
X599655D2*
X2026346D1*
X2061764D2*
X2451287D1*
X2486724D2*
X3001228D1*
X3036667D2*
X3226209D1*
X3261647D2*
X3426189D1*
X3461627D2*
X3707420D1*
X3742839D2*
X3913651D1*
X3949068D2*
X4151112D1*
X4186549D2*
X4338016D1*
X425016Y3744816D2*
X552185D1*
X598346D2*
X4338016D1*
X425016Y3734948D2*
X558827D1*
X591705D2*
X4338016D1*
X425016Y3725079D2*
X4338016D1*
X425016Y3715210D2*
X4338016D1*
X425016Y3705341D2*
X4338016D1*
X425016Y3695472D2*
X4338016D1*
X425016Y3685604D2*
X4338016D1*
X425016Y3675735D2*
X4338016D1*
X425016Y3665866D2*
X4338016D1*
X425016Y3655997D2*
X4338016D1*
X425016Y3646129D2*
X4338016D1*
X425016Y3636260D2*
X4338016D1*
X425016Y3626391D2*
X4338016D1*
X425016Y3616522D2*
X4338016D1*
X425016Y3606654D2*
X4338016D1*
X425016Y3596785D2*
X4338016D1*
X425016Y3586916D2*
X4338016D1*
X425016Y3577047D2*
X4338016D1*
X425016Y3567178D2*
X4338016D1*
X425016Y3557310D2*
X880076D1*
X907955D2*
X1780076D1*
X1807955D2*
X2480076D1*
X2507955D2*
X3180076D1*
X3207955D2*
X3880076D1*
X3907955D2*
X4338016D1*
X425016Y3547441D2*
X821600D1*
X966432D2*
X1721600D1*
X1866432D2*
X2421600D1*
X2566432D2*
X3121600D1*
X3266432D2*
X3821600D1*
X3966432D2*
X4338016D1*
X425016Y3537572D2*
X793846D1*
X994185D2*
X1693846D1*
X1894185D2*
X2393846D1*
X2594185D2*
X3093846D1*
X3294185D2*
X3793846D1*
X3994185D2*
X4338016D1*
X425016Y3527703D2*
X773104D1*
X1014928D2*
X1673104D1*
X1914928D2*
X2373104D1*
X2614928D2*
X3073104D1*
X3314928D2*
X3773104D1*
X4014928D2*
X4338016D1*
X425016Y3517835D2*
X756171D1*
X1031861D2*
X1656171D1*
X1931861D2*
X2356171D1*
X2631861D2*
X3056171D1*
X3331861D2*
X3756171D1*
X4031861D2*
X4338016D1*
X425016Y3507966D2*
X741756D1*
X1046276D2*
X1641756D1*
X1946276D2*
X2341756D1*
X2646276D2*
X3041756D1*
X3346276D2*
X3741756D1*
X4046276D2*
X4338016D1*
X425016Y3498097D2*
X729197D1*
X1058835D2*
X1629197D1*
X1958835D2*
X2329197D1*
X2658835D2*
X3029197D1*
X3358835D2*
X3729197D1*
X4058835D2*
X4338016D1*
X425016Y3488228D2*
X718084D1*
X1069948D2*
X1618084D1*
X1969948D2*
X2318084D1*
X2669948D2*
X3018084D1*
X3369948D2*
X3718084D1*
X4069948D2*
X4338016D1*
X425016Y3478360D2*
X708163D1*
X1079869D2*
X1608163D1*
X1979869D2*
X2308163D1*
X2679869D2*
X3008163D1*
X3379869D2*
X3708163D1*
X4079869D2*
X4338016D1*
X425016Y3468491D2*
X699256D1*
X1088776D2*
X1599256D1*
X1988776D2*
X2299256D1*
X2688776D2*
X2999256D1*
X3388776D2*
X3699256D1*
X4088776D2*
X4338016D1*
X425016Y3458622D2*
X691228D1*
X1096803D2*
X1591228D1*
X1996803D2*
X2291228D1*
X2696803D2*
X2991228D1*
X3396803D2*
X3691228D1*
X4096803D2*
X4338016D1*
X425016Y3448753D2*
X683963D1*
X1104068D2*
X1583963D1*
X2004068D2*
X2283963D1*
X2704068D2*
X2983963D1*
X3404068D2*
X3683963D1*
X4104068D2*
X4338016D1*
X425016Y3438885D2*
X677400D1*
X1110631D2*
X1577400D1*
X2010631D2*
X2277400D1*
X2710631D2*
X2977400D1*
X3410631D2*
X3677400D1*
X4110631D2*
X4338016D1*
X425016Y3429016D2*
X671463D1*
X1116568D2*
X1571463D1*
X2016568D2*
X2271463D1*
X2716568D2*
X2971463D1*
X3416568D2*
X3671463D1*
X4116568D2*
X4338016D1*
X425016Y3419147D2*
X666112D1*
X1121920D2*
X1566112D1*
X2021920D2*
X2266112D1*
X2721920D2*
X2966112D1*
X3421920D2*
X3666112D1*
X4121920D2*
X4338016D1*
X425016Y3409278D2*
X661307D1*
X1126724D2*
X1561307D1*
X2026724D2*
X2261307D1*
X2726724D2*
X2961307D1*
X3426724D2*
X3661307D1*
X4126724D2*
X4338016D1*
X425016Y3399409D2*
X657010D1*
X1131021D2*
X1252244D1*
X1335787D2*
X1557010D1*
X2031021D2*
X2257010D1*
X2731021D2*
X2957010D1*
X3431021D2*
X3657010D1*
X4131021D2*
X4338016D1*
X425016Y3389541D2*
X653182D1*
X1134849D2*
X1234041D1*
X1353991D2*
X1553182D1*
X2034849D2*
X2253182D1*
X2734849D2*
X2953182D1*
X3434849D2*
X3653182D1*
X4134849D2*
X4338016D1*
X425016Y3379672D2*
X649843D1*
X1138189D2*
X1221619D1*
X1366412D2*
X1549843D1*
X2038189D2*
X2249843D1*
X2738189D2*
X2949843D1*
X3438189D2*
X3649843D1*
X4138189D2*
X4338016D1*
X425016Y3369803D2*
X646912D1*
X1141119D2*
X1212244D1*
X1375787D2*
X1546912D1*
X2041119D2*
X2246912D1*
X2741119D2*
X2946912D1*
X3441119D2*
X3646912D1*
X4141119D2*
X4338016D1*
X425016Y3359934D2*
X644432D1*
X1143600D2*
X1204959D1*
X1383072D2*
X1544432D1*
X2043600D2*
X2244432D1*
X2743600D2*
X2944432D1*
X3443600D2*
X3644432D1*
X4143600D2*
X4338016D1*
X425016Y3350066D2*
X642361D1*
X1145671D2*
X1199256D1*
X1388776D2*
X1542361D1*
X2045671D2*
X2242361D1*
X2745671D2*
X2942361D1*
X3445671D2*
X3642361D1*
X4145671D2*
X4338016D1*
X425016Y3340197D2*
X640682D1*
X1147349D2*
X1194881D1*
X1393151D2*
X1540682D1*
X2047349D2*
X2240682D1*
X2747349D2*
X2940682D1*
X3447349D2*
X3640682D1*
X4147349D2*
X4338016D1*
X425016Y3330328D2*
X639412D1*
X1148619D2*
X1191639D1*
X1396392D2*
X1539412D1*
X2048619D2*
X2239412D1*
X2748619D2*
X2939412D1*
X3448619D2*
X3639412D1*
X4148619D2*
X4338016D1*
X425016Y3320459D2*
X638514D1*
X1149517D2*
X1189432D1*
X1398600D2*
X1538514D1*
X2049517D2*
X2238514D1*
X2749517D2*
X2938514D1*
X3449517D2*
X3638514D1*
X4149517D2*
X4338016D1*
X425016Y3310591D2*
X638007D1*
X1150025D2*
X1188201D1*
X1399831D2*
X1538007D1*
X2050025D2*
X2238007D1*
X2750025D2*
X2938007D1*
X3450025D2*
X3638007D1*
X4150025D2*
X4338016D1*
X425016Y3300722D2*
X637888D1*
X1150143D2*
X1187908D1*
X1400123D2*
X1537888D1*
X2050143D2*
X2237888D1*
X2750143D2*
X2937888D1*
X3450143D2*
X3637888D1*
X4150143D2*
X4338016D1*
X425016Y3290853D2*
X638143D1*
X1149888D2*
X1188533D1*
X1399499D2*
X1538143D1*
X2049888D2*
X2238143D1*
X2749888D2*
X2938143D1*
X3449888D2*
X3638143D1*
X4149888D2*
X4338016D1*
X425016Y3280984D2*
X638787D1*
X1149244D2*
X1190115D1*
X1397916D2*
X1538787D1*
X2049244D2*
X2238787D1*
X2749244D2*
X2938787D1*
X3449244D2*
X3638787D1*
X4149244D2*
X4338016D1*
X425016Y3271115D2*
X639823D1*
X1148209D2*
X1192675D1*
X1395357D2*
X1539823D1*
X2048209D2*
X2239823D1*
X2748209D2*
X2939823D1*
X3448209D2*
X3639823D1*
X4148209D2*
X4338016D1*
X425016Y3261247D2*
X641248D1*
X1146783D2*
X1196327D1*
X1391705D2*
X1541248D1*
X2046783D2*
X2241248D1*
X2746783D2*
X2941248D1*
X3446783D2*
X3641248D1*
X4146783D2*
X4338016D1*
X425016Y3251378D2*
X643064D1*
X1144967D2*
X1201151D1*
X1386881D2*
X1543064D1*
X2044967D2*
X2243064D1*
X2744967D2*
X2943064D1*
X3444967D2*
X3643064D1*
X4144967D2*
X4338016D1*
X425016Y3241509D2*
X645291D1*
X1142740D2*
X1207381D1*
X1380651D2*
X1545291D1*
X2042740D2*
X2245291D1*
X2742740D2*
X2945291D1*
X3442740D2*
X3645291D1*
X4142740D2*
X4338016D1*
X425016Y3231640D2*
X647928D1*
X1140104D2*
X1215349D1*
X1372682D2*
X1547928D1*
X2040104D2*
X2247928D1*
X2740104D2*
X2947928D1*
X3440104D2*
X3647928D1*
X4140104D2*
X4338016D1*
X425016Y3221772D2*
X650995D1*
X1137037D2*
X1225682D1*
X1362349D2*
X1550995D1*
X2037037D2*
X2250995D1*
X2737037D2*
X2950995D1*
X3437037D2*
X3650995D1*
X4137037D2*
X4338016D1*
X425016Y3211903D2*
X654510D1*
X1133521D2*
X1239685D1*
X1348346D2*
X1554510D1*
X2033521D2*
X2254510D1*
X2733521D2*
X2954510D1*
X3433521D2*
X3654510D1*
X4133521D2*
X4338016D1*
X425016Y3202034D2*
X658495D1*
X1129537D2*
X1262068D1*
X1325963D2*
X1558495D1*
X2029537D2*
X2258495D1*
X2729537D2*
X2958495D1*
X3429537D2*
X3658495D1*
X4129537D2*
X4338016D1*
X425016Y3192165D2*
X662987D1*
X1125045D2*
X1562987D1*
X2025045D2*
X2262987D1*
X2725045D2*
X2962987D1*
X3425045D2*
X3662987D1*
X4125045D2*
X4338016D1*
X425016Y3182297D2*
X667987D1*
X1120045D2*
X1567987D1*
X2020045D2*
X2267987D1*
X2720045D2*
X2967987D1*
X3420045D2*
X3667987D1*
X4120045D2*
X4338016D1*
X425016Y3172428D2*
X673533D1*
X1114499D2*
X1573533D1*
X2014499D2*
X2273533D1*
X2714499D2*
X2973533D1*
X3414499D2*
X3673533D1*
X4114499D2*
X4338016D1*
X425016Y3162559D2*
X679685D1*
X1108346D2*
X1579685D1*
X2008346D2*
X2279685D1*
X2708346D2*
X2979685D1*
X3408346D2*
X3679685D1*
X4108346D2*
X4338016D1*
X425016Y3152690D2*
X686503D1*
X1101529D2*
X1586503D1*
X2001529D2*
X2286503D1*
X2701529D2*
X2986503D1*
X3401529D2*
X3686503D1*
X4101529D2*
X4338016D1*
X425016Y3142822D2*
X694041D1*
X1093991D2*
X1594041D1*
X1993991D2*
X2294041D1*
X2693991D2*
X2994041D1*
X3393991D2*
X3694041D1*
X4093991D2*
X4338016D1*
X425016Y3132953D2*
X702381D1*
X1085651D2*
X1602381D1*
X1985651D2*
X2302381D1*
X2685651D2*
X3002381D1*
X3385651D2*
X3702381D1*
X4085651D2*
X4338016D1*
X425016Y3123084D2*
X711639D1*
X1076392D2*
X1611639D1*
X1976392D2*
X2311639D1*
X2676392D2*
X3011639D1*
X3376392D2*
X3711639D1*
X4076392D2*
X4338016D1*
X425016Y3113215D2*
X721951D1*
X1066080D2*
X1621951D1*
X1966080D2*
X2321951D1*
X2666080D2*
X3021951D1*
X3366080D2*
X3721951D1*
X4066080D2*
X4338016D1*
X425016Y3103346D2*
X733552D1*
X1054479D2*
X1633552D1*
X1954479D2*
X2333552D1*
X2654479D2*
X3033552D1*
X3354479D2*
X3733552D1*
X4054479D2*
X4338016D1*
X425016Y3093478D2*
X746736D1*
X1041295D2*
X1646736D1*
X1941295D2*
X2346736D1*
X2641295D2*
X3046736D1*
X3341295D2*
X3746736D1*
X4041295D2*
X4338016D1*
X425016Y3083609D2*
X761951D1*
X1026080D2*
X1661951D1*
X1926080D2*
X2361951D1*
X2626080D2*
X3061951D1*
X3326080D2*
X3761951D1*
X4026080D2*
X4338016D1*
X425016Y3073740D2*
X780056D1*
X1007975D2*
X1680056D1*
X1907975D2*
X2380056D1*
X2607975D2*
X3080056D1*
X3307975D2*
X3780056D1*
X4007975D2*
X4338016D1*
X425016Y3063871D2*
X802772D1*
X985260D2*
X1702772D1*
X1885260D2*
X2402772D1*
X2585260D2*
X3102772D1*
X3285260D2*
X3802772D1*
X3985260D2*
X4338016D1*
X425016Y3054003D2*
X835252D1*
X952780D2*
X1735252D1*
X1852780D2*
X2435252D1*
X2552780D2*
X3135252D1*
X3252780D2*
X3835252D1*
X3952780D2*
X4338016D1*
X425016Y3044134D2*
X4338016D1*
X425016Y3034265D2*
X4338016D1*
X425016Y3024396D2*
X4338016D1*
X425016Y3014528D2*
X3879861D1*
X3908171D2*
X4338016D1*
X425016Y3004659D2*
X3856971D1*
X3931060D2*
X4338016D1*
X425016Y2994790D2*
X3845780D1*
X3942252D2*
X4338016D1*
X425016Y2984921D2*
X3838533D1*
X3949499D2*
X4338016D1*
X425016Y2975052D2*
X3833768D1*
X3954264D2*
X4338016D1*
X425016Y2965184D2*
X3830896D1*
X3957135D2*
X4338016D1*
X425016Y2955315D2*
X3829685D1*
X3958346D2*
X4338016D1*
X425016Y2945446D2*
X489021D1*
X511900D2*
X3830017D1*
X3958014D2*
X4338016D1*
X425016Y2935577D2*
X472244D1*
X528678D2*
X3831912D1*
X3956119D2*
X4338016D1*
X425016Y2925709D2*
X465135D1*
X535787D2*
X3835564D1*
X3952467D2*
X4338016D1*
X425016Y2915840D2*
X461776D1*
X539147D2*
X3841287D1*
X3946744D2*
X4338016D1*
X425016Y2905971D2*
X461151D1*
X539791D2*
X3849959D1*
X3938072D2*
X4338016D1*
X425016Y2896102D2*
X463123D1*
X537819D2*
X3864060D1*
X3923971D2*
X4338016D1*
X425016Y2886234D2*
X468182D1*
X532760D2*
X4338016D1*
X425016Y2876365D2*
X478436D1*
X522487D2*
X845896D1*
X942135D2*
X4338016D1*
X425016Y2866496D2*
X818495D1*
X969537D2*
X4338016D1*
X425016Y2856627D2*
X799783D1*
X988248D2*
X4338016D1*
X425016Y2846759D2*
X785135D1*
X1002896D2*
X4338016D1*
X425016Y2836890D2*
X773064D1*
X1014967D2*
X4338016D1*
X425016Y2827021D2*
X762849D1*
X1025182D2*
X4338016D1*
X425016Y2817152D2*
X754080D1*
X1033951D2*
X4338016D1*
X425016Y2807283D2*
X746503D1*
X1041529D2*
X4338016D1*
X425016Y2797415D2*
X739920D1*
X1048112D2*
X4338016D1*
X425016Y2787546D2*
X734217D1*
X1053815D2*
X4338016D1*
X425016Y2777677D2*
X729315D1*
X1058717D2*
X4338016D1*
X425016Y2767808D2*
X725135D1*
X1062896D2*
X4338016D1*
X425016Y2757940D2*
X721619D1*
X1066412D2*
X4338016D1*
X425016Y2748071D2*
X718748D1*
X1069283D2*
X4338016D1*
X425016Y2738202D2*
X716463D1*
X1071568D2*
X1429608D1*
X1458619D2*
X1573339D1*
X1602369D2*
X1992049D1*
X2021060D2*
X2242029D1*
X2271041D2*
X2748220D1*
X2777232D2*
X2979451D1*
X3008463D2*
X3398143D1*
X3427175D2*
X3673123D1*
X3702135D2*
X4073084D1*
X4102096D2*
X4338016D1*
X425016Y2728333D2*
X714744D1*
X1073287D2*
X1414920D1*
X1473307D2*
X1558671D1*
X1617037D2*
X1977361D1*
X2035748D2*
X2227343D1*
X2285709D2*
X2733533D1*
X2791920D2*
X2964764D1*
X3023151D2*
X3383475D1*
X3441843D2*
X3658436D1*
X3716823D2*
X4058396D1*
X4116783D2*
X4338016D1*
X425016Y2718465D2*
X713592D1*
X1074440D2*
X1408299D1*
X1479928D2*
X1552029D1*
X1623659D2*
X1970740D1*
X2042369D2*
X2220720D1*
X2292349D2*
X2726912D1*
X2798541D2*
X2958143D1*
X3029772D2*
X3376853D1*
X3448463D2*
X3651815D1*
X3723444D2*
X4051776D1*
X4123404D2*
X4338016D1*
X425016Y2708596D2*
X712987D1*
X1075045D2*
X1405252D1*
X1482995D2*
X1548983D1*
X1626724D2*
X1967675D1*
X2045436D2*
X2217655D1*
X2295396D2*
X2723846D1*
X2801608D2*
X2955076D1*
X3032819D2*
X3373787D1*
X3451529D2*
X3648748D1*
X3726510D2*
X4048709D1*
X4126451D2*
X4338016D1*
X425016Y2698727D2*
X712928D1*
X1075104D2*
X1404881D1*
X1483346D2*
X1548612D1*
X1627096D2*
X1967323D1*
X2045787D2*
X2217283D1*
X2295768D2*
X2723495D1*
X2801959D2*
X2954724D1*
X3033189D2*
X3373416D1*
X3451900D2*
X3648396D1*
X3726861D2*
X4048357D1*
X4126823D2*
X4338016D1*
X425016Y2688858D2*
X713396D1*
X1074635D2*
X1407127D1*
X1481100D2*
X1550857D1*
X1624831D2*
X1969568D1*
X2043541D2*
X2219549D1*
X2293521D2*
X2725740D1*
X2799713D2*
X2956971D1*
X3030944D2*
X3375682D1*
X3449655D2*
X3650643D1*
X3724615D2*
X4050604D1*
X4124576D2*
X4338016D1*
X425016Y2678990D2*
X714432D1*
X1073600D2*
X1412576D1*
X1475671D2*
X1556307D1*
X1619400D2*
X1975017D1*
X2038112D2*
X2224979D1*
X2288072D2*
X2731171D1*
X2794283D2*
X2962400D1*
X3025495D2*
X3381112D1*
X3444205D2*
X3656092D1*
X3719185D2*
X4056033D1*
X4119127D2*
X4338016D1*
X425016Y2669121D2*
X716014D1*
X1072017D2*
X1423709D1*
X1464517D2*
X1567440D1*
X1608248D2*
X1986151D1*
X2026959D2*
X2236131D1*
X2276940D2*
X2742323D1*
X2783131D2*
X2973552D1*
X3014361D2*
X3392264D1*
X3433072D2*
X3667224D1*
X3708033D2*
X4067185D1*
X4107995D2*
X4338016D1*
X425016Y2659252D2*
X718163D1*
X1069869D2*
X4338016D1*
X425016Y2649383D2*
X720896D1*
X1067135D2*
X4338016D1*
X425016Y2639514D2*
X724256D1*
X1063776D2*
X4338016D1*
X425016Y2629646D2*
X728280D1*
X1059752D2*
X4338016D1*
X425016Y2619777D2*
X733007D1*
X1055025D2*
X4338016D1*
X425016Y2609908D2*
X738514D1*
X1049517D2*
X4338016D1*
X425016Y2600039D2*
X744861D1*
X1043171D2*
X4338016D1*
X425016Y2590171D2*
X752205D1*
X1035827D2*
X4338016D1*
X425016Y2580302D2*
X760682D1*
X1027349D2*
X4338016D1*
X425016Y2570433D2*
X770525D1*
X1017507D2*
X4338016D1*
X425016Y2560564D2*
X782108D1*
X1005924D2*
X4338016D1*
X425016Y2550696D2*
X796052D1*
X991979D2*
X4338016D1*
X425016Y2540827D2*
X813592D1*
X974440D2*
X4338016D1*
X425016Y2530958D2*
X838084D1*
X949948D2*
X4338016D1*
X425016Y2521089D2*
X4338016D1*
X425016Y2511220D2*
X4338016D1*
X425016Y2501352D2*
X4338016D1*
X425016Y2491483D2*
X4338016D1*
X425016Y2481614D2*
X4338016D1*
X425016Y2471745D2*
X4338016D1*
X425016Y2461877D2*
X4338016D1*
X425016Y2452008D2*
X4338016D1*
X425016Y2442139D2*
X4338016D1*
X425016Y2432270D2*
X4338016D1*
X425016Y2422402D2*
X4338016D1*
X425016Y2412533D2*
X4338016D1*
X425016Y2402664D2*
X4338016D1*
X425016Y2392795D2*
X4338016D1*
X425016Y2382927D2*
X4338016D1*
X425016Y2373058D2*
X4338016D1*
X425016Y2363189D2*
X4338016D1*
X425016Y2353320D2*
X846287D1*
X941744D2*
X1746287D1*
X1841744D2*
X2446287D1*
X2541744D2*
X3146287D1*
X3241744D2*
X3846287D1*
X3941744D2*
X4338016D1*
X425016Y2343451D2*
X809119D1*
X978912D2*
X1709119D1*
X1878912D2*
X2409119D1*
X2578912D2*
X3109119D1*
X3278912D2*
X3809119D1*
X3978912D2*
X4338016D1*
X425016Y2333583D2*
X784861D1*
X1003171D2*
X1684861D1*
X1903171D2*
X2384861D1*
X2603171D2*
X3084861D1*
X3303171D2*
X3784861D1*
X4003171D2*
X4338016D1*
X425016Y2323714D2*
X765896D1*
X1022135D2*
X1665896D1*
X1922135D2*
X2365896D1*
X2622135D2*
X3065896D1*
X3322135D2*
X3765896D1*
X4022135D2*
X4338016D1*
X425016Y2313845D2*
X750096D1*
X1037936D2*
X1650096D1*
X1937936D2*
X2350096D1*
X2637936D2*
X3050096D1*
X3337936D2*
X3750096D1*
X4037936D2*
X4338016D1*
X425016Y2303976D2*
X736483D1*
X1051549D2*
X1636483D1*
X1951549D2*
X2336483D1*
X2651549D2*
X3036483D1*
X3351549D2*
X3736483D1*
X4051549D2*
X4338016D1*
X425016Y2294108D2*
X724549D1*
X1063483D2*
X1624549D1*
X1963483D2*
X2324549D1*
X2663483D2*
X3024549D1*
X3363483D2*
X3724549D1*
X4063483D2*
X4338016D1*
X425016Y2284239D2*
X713944D1*
X1074088D2*
X1613944D1*
X1974088D2*
X2313944D1*
X2674088D2*
X3013944D1*
X3374088D2*
X3713944D1*
X4074088D2*
X4338016D1*
X425016Y2274370D2*
X704451D1*
X1083580D2*
X1604451D1*
X1983580D2*
X2304451D1*
X2683580D2*
X3004451D1*
X3383580D2*
X3704451D1*
X4083580D2*
X4338016D1*
X425016Y2264501D2*
X695916D1*
X1092115D2*
X1595916D1*
X1992115D2*
X2295916D1*
X2692115D2*
X2995916D1*
X3392115D2*
X3695916D1*
X4092115D2*
X4338016D1*
X425016Y2254633D2*
X688201D1*
X1099831D2*
X1588201D1*
X1999831D2*
X2288201D1*
X2699831D2*
X2988201D1*
X3399831D2*
X3688201D1*
X4099831D2*
X4338016D1*
X425016Y2244764D2*
X681228D1*
X1106803D2*
X1581228D1*
X2006803D2*
X2281228D1*
X2706803D2*
X2981228D1*
X3406803D2*
X3681228D1*
X4106803D2*
X4338016D1*
X425016Y2234895D2*
X674920D1*
X1113112D2*
X1574920D1*
X2013112D2*
X2274920D1*
X2713112D2*
X2974920D1*
X3413112D2*
X3674920D1*
X4113112D2*
X4338016D1*
X425016Y2225026D2*
X669236D1*
X1118795D2*
X1569236D1*
X2018795D2*
X2269236D1*
X2718795D2*
X2969236D1*
X3418795D2*
X3669236D1*
X4118795D2*
X4338016D1*
X425016Y2215157D2*
X664100D1*
X1123932D2*
X1564100D1*
X2023932D2*
X2264100D1*
X2723932D2*
X2964100D1*
X3423932D2*
X3664100D1*
X4123932D2*
X4338016D1*
X425016Y2205289D2*
X659510D1*
X1128521D2*
X1559510D1*
X2028521D2*
X2259510D1*
X2728521D2*
X2959510D1*
X3428521D2*
X3659510D1*
X4128521D2*
X4338016D1*
X425016Y2195420D2*
X655408D1*
X1132623D2*
X1555408D1*
X2032623D2*
X2255408D1*
X2732623D2*
X2955408D1*
X3432623D2*
X3655408D1*
X4132623D2*
X4338016D1*
X425016Y2185551D2*
X651776D1*
X1136256D2*
X1551776D1*
X2036256D2*
X2251776D1*
X2736256D2*
X2951776D1*
X3436256D2*
X3651776D1*
X4136256D2*
X4338016D1*
X425016Y2175682D2*
X648612D1*
X1139420D2*
X1548612D1*
X2039420D2*
X2248612D1*
X2739420D2*
X2948612D1*
X3439420D2*
X3648612D1*
X4139420D2*
X4338016D1*
X425016Y2165814D2*
X645857D1*
X1142175D2*
X1545857D1*
X2042175D2*
X2245857D1*
X2742175D2*
X2945857D1*
X3442175D2*
X3645857D1*
X4142175D2*
X4338016D1*
X425016Y2155945D2*
X643552D1*
X1144479D2*
X1543552D1*
X2044479D2*
X2243552D1*
X2744479D2*
X2943552D1*
X3444479D2*
X3643552D1*
X4144479D2*
X4338016D1*
X425016Y2146076D2*
X641639D1*
X1146392D2*
X1541639D1*
X2046392D2*
X2241639D1*
X2746392D2*
X2941639D1*
X3446392D2*
X3641639D1*
X4146392D2*
X4338016D1*
X425016Y2136207D2*
X640115D1*
X1147916D2*
X1540115D1*
X2047916D2*
X2240115D1*
X2747916D2*
X2940115D1*
X3447916D2*
X3640115D1*
X4147916D2*
X4338016D1*
X425016Y2126339D2*
X639003D1*
X1149029D2*
X1539003D1*
X2049029D2*
X2239003D1*
X2749029D2*
X2939003D1*
X3449029D2*
X3639003D1*
X4149029D2*
X4338016D1*
X425016Y2116470D2*
X638260D1*
X1149772D2*
X1538260D1*
X2049772D2*
X2238260D1*
X2749772D2*
X2938260D1*
X3449772D2*
X3638260D1*
X4149772D2*
X4338016D1*
X425016Y2106601D2*
X637908D1*
X1150123D2*
X1537908D1*
X2050123D2*
X2237908D1*
X2750123D2*
X2937908D1*
X3450123D2*
X3637908D1*
X4150123D2*
X4338016D1*
X425016Y2096732D2*
X637948D1*
X1150084D2*
X1537948D1*
X2050084D2*
X2237948D1*
X2750084D2*
X2937948D1*
X3450084D2*
X3637948D1*
X4150084D2*
X4338016D1*
X425016Y2086864D2*
X638357D1*
X1149675D2*
X1538357D1*
X2049675D2*
X2238357D1*
X2749675D2*
X2938357D1*
X3449675D2*
X3638357D1*
X4149675D2*
X4338016D1*
X425016Y2076995D2*
X639159D1*
X1148873D2*
X1539159D1*
X2048873D2*
X2239159D1*
X2748873D2*
X2939159D1*
X3448873D2*
X3639159D1*
X4148873D2*
X4338016D1*
X425016Y2067126D2*
X640349D1*
X1147682D2*
X1540349D1*
X2047682D2*
X2240349D1*
X2747682D2*
X2940349D1*
X3447682D2*
X3640349D1*
X4147682D2*
X4338016D1*
X425016Y2057257D2*
X641932D1*
X1146100D2*
X1541932D1*
X2046100D2*
X2241932D1*
X2746100D2*
X2941932D1*
X3446100D2*
X3641932D1*
X4146100D2*
X4338016D1*
X425016Y2047388D2*
X643904D1*
X1144127D2*
X1543904D1*
X2044127D2*
X2243904D1*
X2744127D2*
X2943904D1*
X3444127D2*
X3643904D1*
X4144127D2*
X4338016D1*
X425016Y2037520D2*
X646307D1*
X1141724D2*
X1546307D1*
X2041724D2*
X2246307D1*
X2741724D2*
X2946307D1*
X3441724D2*
X3646307D1*
X4141724D2*
X4338016D1*
X425016Y2027651D2*
X649119D1*
X1138912D2*
X1549119D1*
X2038912D2*
X2249119D1*
X2738912D2*
X2949119D1*
X3438912D2*
X3649119D1*
X4138912D2*
X4338016D1*
X425016Y2017782D2*
X652361D1*
X1135671D2*
X1552361D1*
X2035671D2*
X2252361D1*
X2735671D2*
X2952361D1*
X3435671D2*
X3652361D1*
X4135671D2*
X4338016D1*
X425016Y2007913D2*
X656072D1*
X1131959D2*
X1556072D1*
X2031959D2*
X2256072D1*
X2731959D2*
X2956072D1*
X3431959D2*
X3656072D1*
X4131959D2*
X4338016D1*
X425016Y1998045D2*
X660252D1*
X1127780D2*
X1560252D1*
X2027780D2*
X2260252D1*
X2727780D2*
X2960252D1*
X3427780D2*
X3660252D1*
X4127780D2*
X4338016D1*
X425016Y1988176D2*
X664940D1*
X1123092D2*
X1564940D1*
X2023092D2*
X2264940D1*
X2723092D2*
X2964940D1*
X3423092D2*
X3664940D1*
X4123092D2*
X4338016D1*
X425016Y1978307D2*
X670155D1*
X1117877D2*
X1570155D1*
X2017877D2*
X2270155D1*
X2717877D2*
X2970155D1*
X3417877D2*
X3670155D1*
X4117877D2*
X4338016D1*
X425016Y1968438D2*
X675955D1*
X1112076D2*
X1575955D1*
X2012076D2*
X2275955D1*
X2712076D2*
X2975955D1*
X3412076D2*
X3675955D1*
X4112076D2*
X4338016D1*
X425016Y1958570D2*
X682361D1*
X1105671D2*
X1582361D1*
X2005671D2*
X2282361D1*
X2705671D2*
X2982361D1*
X3405671D2*
X3682361D1*
X4105671D2*
X4338016D1*
X425016Y1948701D2*
X689451D1*
X1098580D2*
X1589451D1*
X1998580D2*
X2289451D1*
X2698580D2*
X2989451D1*
X3398580D2*
X3689451D1*
X4098580D2*
X4338016D1*
X425016Y1938832D2*
X697303D1*
X1090728D2*
X1597303D1*
X1990728D2*
X2297303D1*
X2690728D2*
X2997303D1*
X3390728D2*
X3697303D1*
X4090728D2*
X4338016D1*
X425016Y1928963D2*
X705995D1*
X1082037D2*
X1605995D1*
X1982037D2*
X2305995D1*
X2682037D2*
X3005995D1*
X3382037D2*
X3705995D1*
X4082037D2*
X4338016D1*
X425016Y1919094D2*
X715663D1*
X1072369D2*
X1615663D1*
X1972369D2*
X2315663D1*
X2672369D2*
X3015663D1*
X3372369D2*
X3715663D1*
X4072369D2*
X4338016D1*
X425016Y1909226D2*
X726483D1*
X1061549D2*
X1626483D1*
X1961549D2*
X2326483D1*
X2661549D2*
X3026483D1*
X3361549D2*
X3726483D1*
X4061549D2*
X4338016D1*
X425016Y1899357D2*
X738671D1*
X1049361D2*
X1638671D1*
X1949361D2*
X2338671D1*
X2649361D2*
X3038671D1*
X3349361D2*
X3738671D1*
X4049361D2*
X4338016D1*
X425016Y1889488D2*
X752596D1*
X1035436D2*
X1652596D1*
X1935436D2*
X2352596D1*
X2635436D2*
X3052596D1*
X3335436D2*
X3752596D1*
X4035436D2*
X4338016D1*
X425016Y1879619D2*
X768865D1*
X1019167D2*
X1668865D1*
X1919167D2*
X2368865D1*
X2619167D2*
X3068865D1*
X3319167D2*
X3768865D1*
X4019167D2*
X4338016D1*
X425016Y1869751D2*
X788533D1*
X999499D2*
X1688533D1*
X1899499D2*
X2388533D1*
X2599499D2*
X3088533D1*
X3299499D2*
X3788533D1*
X3999499D2*
X4338016D1*
X425016Y1859882D2*
X814119D1*
X973912D2*
X1714119D1*
X1873912D2*
X2414119D1*
X2573912D2*
X3114119D1*
X3273912D2*
X3814119D1*
X3973912D2*
X4338016D1*
X425016Y1850013D2*
X856424D1*
X931608D2*
X1756424D1*
X1831608D2*
X2456424D1*
X2531608D2*
X3156424D1*
X3231608D2*
X3856424D1*
X3931608D2*
X4338016D1*
X425016Y1840144D2*
X4338016D1*
X425016Y1830276D2*
X4338016D1*
X425016Y1820407D2*
X4338016D1*
X425016Y1810538D2*
X4338016D1*
X425016Y1800669D2*
X4338016D1*
X425016Y1790801D2*
X4338016D1*
X425016Y1780932D2*
X4338016D1*
X425016Y1771063D2*
X4338016D1*
X425016Y1761194D2*
X4338016D1*
X425016Y1751325D2*
X4338016D1*
X425016Y1741457D2*
X4338016D1*
X425016Y1731588D2*
X4338016D1*
X425016Y1721719D2*
X4338016D1*
X425016Y1711850D2*
X482556D1*
X518365D2*
X4338016D1*
X425016Y1701982D2*
X469979D1*
X530944D2*
X4338016D1*
X425016Y1692113D2*
X464003D1*
X536920D2*
X4338016D1*
X425016Y1682244D2*
X461365D1*
X539556D2*
X4338016D1*
X425016Y1672375D2*
X461385D1*
X539537D2*
X4338016D1*
X425016Y1662507D2*
X464060D1*
X536861D2*
X4338016D1*
X425016Y1652638D2*
X470096D1*
X530846D2*
X4338016D1*
X425016Y1642769D2*
X482811D1*
X518112D2*
X4338016D1*
X425016Y1632900D2*
X4338016D1*
X425016Y1623031D2*
X4338016D1*
X425016Y1613163D2*
X4338016D1*
X425016Y1603294D2*
X4338016D1*
X425016Y1593425D2*
X4338016D1*
X425016Y1583556D2*
X4338016D1*
X425016Y1573688D2*
X4338016D1*
X425016Y1563819D2*
X4338016D1*
X425016Y1553950D2*
X4338016D1*
X425016Y1544081D2*
X4338016D1*
X425016Y1534213D2*
X4338016D1*
X425016Y1524344D2*
X4338016D1*
X425016Y1514475D2*
X804627D1*
X833404D2*
X4338016D1*
X425016Y1504606D2*
X781892D1*
X856139D2*
X4338016D1*
X425016Y1494738D2*
X770720D1*
X867311D2*
X4338016D1*
X425016Y1484869D2*
X763495D1*
X874537D2*
X4338016D1*
X425016Y1475000D2*
X758748D1*
X879283D2*
X4338016D1*
X425016Y1465131D2*
X755877D1*
X882155D2*
X4338016D1*
X425016Y1455262D2*
X754667D1*
X883365D2*
X4338016D1*
X425016Y1445394D2*
X755017D1*
X883014D2*
X4338016D1*
X425016Y1435525D2*
X756932D1*
X881100D2*
X4338016D1*
X425016Y1425656D2*
X760584D1*
X877448D2*
X4338016D1*
X425016Y1415787D2*
X766327D1*
X871705D2*
X4338016D1*
X425016Y1405919D2*
X775017D1*
X863014D2*
X4338016D1*
X425016Y1396050D2*
X789178D1*
X848853D2*
X4338016D1*
X425016Y1386181D2*
X4338016D1*
X425016Y1376312D2*
X4338016D1*
X425016Y1366444D2*
X4338016D1*
X425016Y1356575D2*
X4338016D1*
X425016Y1346706D2*
X4338016D1*
X425016Y1336837D2*
X4338016D1*
X425016Y1326969D2*
X4338016D1*
X425016Y1317100D2*
X4338016D1*
X425016Y1307231D2*
X4338016D1*
X425016Y1297362D2*
X4338016D1*
X425016Y1287493D2*
X4338016D1*
X425016Y1277625D2*
X4338016D1*
X425016Y1267756D2*
X4338016D1*
X425016Y1257887D2*
X4338016D1*
X425016Y1248018D2*
X4338016D1*
X425016Y1238150D2*
X4338016D1*
X425016Y1228281D2*
X4338016D1*
X425016Y1218412D2*
X4338016D1*
X425016Y1208543D2*
X4338016D1*
X425016Y1198675D2*
X766052D1*
X871979D2*
X1216052D1*
X1321979D2*
X1666052D1*
X1771979D2*
X2116052D1*
X2221979D2*
X2566052D1*
X2671979D2*
X3016052D1*
X3121979D2*
X3466052D1*
X3571979D2*
X3916052D1*
X4021979D2*
X4338016D1*
X425016Y1188806D2*
X743924D1*
X894108D2*
X1193924D1*
X1344108D2*
X1643924D1*
X1794108D2*
X2093924D1*
X2244108D2*
X2543924D1*
X2694108D2*
X2993924D1*
X3144108D2*
X3443924D1*
X3594108D2*
X3893924D1*
X4044108D2*
X4338016D1*
X425016Y1178937D2*
X728123D1*
X909908D2*
X1178123D1*
X1359908D2*
X1628123D1*
X1809908D2*
X2078123D1*
X2259908D2*
X2528123D1*
X2709908D2*
X2978123D1*
X3159908D2*
X3428123D1*
X3609908D2*
X3878123D1*
X4059908D2*
X4338016D1*
X425016Y1169068D2*
X715643D1*
X922388D2*
X1165643D1*
X1372388D2*
X1615643D1*
X1822388D2*
X2065643D1*
X2272388D2*
X2515643D1*
X2722388D2*
X2965643D1*
X3172388D2*
X3415643D1*
X3622388D2*
X3865643D1*
X4072388D2*
X4338016D1*
X425016Y1159199D2*
X705408D1*
X932623D2*
X1155408D1*
X1382623D2*
X1605408D1*
X1832623D2*
X2055408D1*
X2282623D2*
X2505408D1*
X2732623D2*
X2955408D1*
X3182623D2*
X3405408D1*
X3632623D2*
X3855408D1*
X4082623D2*
X4338016D1*
X425016Y1149331D2*
X696815D1*
X941217D2*
X1146815D1*
X1391217D2*
X1596815D1*
X1841217D2*
X2046815D1*
X2291217D2*
X2496815D1*
X2741217D2*
X2946815D1*
X3191217D2*
X3396815D1*
X3641217D2*
X3846815D1*
X4091217D2*
X4338016D1*
X425016Y1139462D2*
X689549D1*
X948483D2*
X1139549D1*
X1398483D2*
X1589549D1*
X1848483D2*
X2039549D1*
X2298483D2*
X2489549D1*
X2748483D2*
X2939549D1*
X3198483D2*
X3389549D1*
X3648483D2*
X3839549D1*
X4098483D2*
X4338016D1*
X425016Y1129593D2*
X683396D1*
X954635D2*
X1133396D1*
X1404635D2*
X1583396D1*
X1854635D2*
X2033396D1*
X2304635D2*
X2483396D1*
X2754635D2*
X2933396D1*
X3204635D2*
X3383396D1*
X3654635D2*
X3833396D1*
X4104635D2*
X4338016D1*
X425016Y1119724D2*
X678201D1*
X959831D2*
X1128201D1*
X1409831D2*
X1578201D1*
X1859831D2*
X2028201D1*
X2309831D2*
X2478201D1*
X2759831D2*
X2928201D1*
X3209831D2*
X3378201D1*
X3659831D2*
X3828201D1*
X4109831D2*
X4338016D1*
X425016Y1109856D2*
X673865D1*
X964167D2*
X1123865D1*
X1414167D2*
X1573865D1*
X1864167D2*
X2023865D1*
X2314167D2*
X2473865D1*
X2764167D2*
X2923865D1*
X3214167D2*
X3373865D1*
X3664167D2*
X3823865D1*
X4114167D2*
X4338016D1*
X425016Y1099987D2*
X670331D1*
X967701D2*
X1120331D1*
X1417701D2*
X1570331D1*
X1867701D2*
X2020331D1*
X2317701D2*
X2470331D1*
X2767701D2*
X2920331D1*
X3217701D2*
X3370331D1*
X3667701D2*
X3820331D1*
X4117701D2*
X4338016D1*
X425016Y1090118D2*
X667517D1*
X970514D2*
X1117517D1*
X1420514D2*
X1567517D1*
X1870514D2*
X2017517D1*
X2320514D2*
X2467517D1*
X2770514D2*
X2917517D1*
X3220514D2*
X3367517D1*
X3670514D2*
X3817517D1*
X4120514D2*
X4338016D1*
X425016Y1080249D2*
X665388D1*
X972643D2*
X1115388D1*
X1422643D2*
X1565388D1*
X1872643D2*
X2015388D1*
X2322643D2*
X2465388D1*
X2772643D2*
X2915388D1*
X3222643D2*
X3365388D1*
X3672643D2*
X3815388D1*
X4122643D2*
X4338016D1*
X425016Y1070381D2*
X663924D1*
X974108D2*
X1113924D1*
X1424108D2*
X1563924D1*
X1874108D2*
X2013924D1*
X2324108D2*
X2463924D1*
X2774108D2*
X2913924D1*
X3224108D2*
X3363924D1*
X3674108D2*
X3813924D1*
X4124108D2*
X4338016D1*
X425016Y1060512D2*
X663084D1*
X974948D2*
X1113084D1*
X1424948D2*
X1563084D1*
X1874948D2*
X2013084D1*
X2324948D2*
X2463084D1*
X2774948D2*
X2913084D1*
X3224948D2*
X3363084D1*
X3674948D2*
X3813084D1*
X4124948D2*
X4338016D1*
X425016Y1050643D2*
X662888D1*
X975143D2*
X1112888D1*
X1425143D2*
X1562888D1*
X1875143D2*
X2012888D1*
X2325143D2*
X2462888D1*
X2775143D2*
X2912888D1*
X3225143D2*
X3362888D1*
X3675143D2*
X3812888D1*
X4125143D2*
X4338016D1*
X425016Y1040774D2*
X663339D1*
X974693D2*
X1113339D1*
X1424693D2*
X1563339D1*
X1874693D2*
X2013339D1*
X2324693D2*
X2463339D1*
X2774693D2*
X2913339D1*
X3224693D2*
X3363339D1*
X3674693D2*
X3813339D1*
X4124693D2*
X4338016D1*
X425016Y1030906D2*
X664392D1*
X973639D2*
X1114392D1*
X1423639D2*
X1564392D1*
X1873639D2*
X2014392D1*
X2323639D2*
X2464392D1*
X2773639D2*
X2914392D1*
X3223639D2*
X3364392D1*
X3673639D2*
X3814392D1*
X4123639D2*
X4338016D1*
X425016Y1021037D2*
X666112D1*
X971920D2*
X1116112D1*
X1421920D2*
X1566112D1*
X1871920D2*
X2016112D1*
X2321920D2*
X2466112D1*
X2771920D2*
X2916112D1*
X3221920D2*
X3366112D1*
X3671920D2*
X3816112D1*
X4121920D2*
X4338016D1*
X425016Y1011168D2*
X668495D1*
X969537D2*
X1118495D1*
X1419537D2*
X1568495D1*
X1869537D2*
X2018495D1*
X2319537D2*
X2468495D1*
X2769537D2*
X2918495D1*
X3219537D2*
X3368495D1*
X3669537D2*
X3818495D1*
X4119537D2*
X4338016D1*
X425016Y1001299D2*
X671580D1*
X966451D2*
X1121580D1*
X1416451D2*
X1571580D1*
X1866451D2*
X2021580D1*
X2316451D2*
X2471580D1*
X2766451D2*
X2921580D1*
X3216451D2*
X3371580D1*
X3666451D2*
X3821580D1*
X4116451D2*
X4338016D1*
X425016Y991430D2*
X675408D1*
X962623D2*
X1125408D1*
X1412623D2*
X1575408D1*
X1862623D2*
X2025408D1*
X2312623D2*
X2475408D1*
X2762623D2*
X2925408D1*
X3212623D2*
X3375408D1*
X3662623D2*
X3825408D1*
X4112623D2*
X4338016D1*
X425016Y981562D2*
X680056D1*
X957975D2*
X1130056D1*
X1407975D2*
X1580056D1*
X1857975D2*
X2030056D1*
X2307975D2*
X2480056D1*
X2757975D2*
X2930056D1*
X3207975D2*
X3380056D1*
X3657975D2*
X3830056D1*
X4107975D2*
X4338016D1*
X425016Y971693D2*
X685604D1*
X952428D2*
X1135604D1*
X1402428D2*
X1585604D1*
X1852428D2*
X2035604D1*
X2302428D2*
X2485604D1*
X2752428D2*
X2935604D1*
X3202428D2*
X3385604D1*
X3652428D2*
X3835604D1*
X4102428D2*
X4338016D1*
X425016Y961824D2*
X692147D1*
X945885D2*
X1142147D1*
X1395885D2*
X1592147D1*
X1845885D2*
X2042147D1*
X2295885D2*
X2492147D1*
X2745885D2*
X2942147D1*
X3195885D2*
X3392147D1*
X3645885D2*
X3842147D1*
X4095885D2*
X4338016D1*
X425016Y951955D2*
X699881D1*
X938151D2*
X1149881D1*
X1388151D2*
X1599881D1*
X1838151D2*
X2049881D1*
X2288151D2*
X2499881D1*
X2738151D2*
X2949881D1*
X3188151D2*
X3399881D1*
X3638151D2*
X3849881D1*
X4088151D2*
X4338016D1*
X425016Y942087D2*
X709060D1*
X928971D2*
X1159060D1*
X1378971D2*
X1609060D1*
X1828971D2*
X2059060D1*
X2278971D2*
X2509060D1*
X2728971D2*
X2959060D1*
X3178971D2*
X3409060D1*
X3628971D2*
X3859060D1*
X4078971D2*
X4338016D1*
X425016Y932218D2*
X720056D1*
X917975D2*
X1170056D1*
X1367975D2*
X1620056D1*
X1817975D2*
X2070056D1*
X2267975D2*
X2520056D1*
X2717975D2*
X2970056D1*
X3167975D2*
X3420056D1*
X3617975D2*
X3870056D1*
X4067975D2*
X4338016D1*
X425016Y922349D2*
X733612D1*
X904420D2*
X1183612D1*
X1354420D2*
X1633612D1*
X1804420D2*
X2083612D1*
X2254420D2*
X2533612D1*
X2704420D2*
X2983612D1*
X3154420D2*
X3433612D1*
X3604420D2*
X3883612D1*
X4054420D2*
X4338016D1*
X425016Y912480D2*
X751248D1*
X886783D2*
X1201248D1*
X1336783D2*
X1651248D1*
X1786783D2*
X2101248D1*
X2236783D2*
X2551248D1*
X2686783D2*
X3001248D1*
X3136783D2*
X3451248D1*
X3586783D2*
X3901248D1*
X4036783D2*
X4338016D1*
X425016Y902612D2*
X778045D1*
X859987D2*
X1228045D1*
X1309987D2*
X1678045D1*
X1759987D2*
X2128045D1*
X2209987D2*
X2578045D1*
X2659987D2*
X3028045D1*
X3109987D2*
X3478045D1*
X3559987D2*
X3928045D1*
X4009987D2*
X4338016D1*
X425016Y892743D2*
X4338016D1*
X425016Y882874D2*
X4338016D1*
X425016Y873005D2*
X4338016D1*
X425016Y863136D2*
X4338016D1*
X425016Y853268D2*
X4338016D1*
X425016Y843399D2*
X4338016D1*
X425016Y833530D2*
X4338016D1*
X425016Y823661D2*
X4338016D1*
X425016Y813793D2*
X4338016D1*
X425016Y803924D2*
X4338016D1*
X425016Y794055D2*
X576971D1*
X611451D2*
X1483123D1*
X1517604D2*
X2358025D1*
X2392507D2*
X3307928D1*
X3342408D2*
X4176580D1*
X4211060D2*
X4338016D1*
X425016Y784186D2*
X564003D1*
X624420D2*
X1470155D1*
X1530572D2*
X2345056D1*
X2405475D2*
X3294959D1*
X3355377D2*
X4163612D1*
X4224029D2*
X4338016D1*
X425016Y774318D2*
X557888D1*
X630533D2*
X1464041D1*
X1536685D2*
X2338944D1*
X2411588D2*
X3288846D1*
X3361491D2*
X4157499D1*
X4230143D2*
X4338016D1*
X425016Y764449D2*
X555155D1*
X633248D2*
X1461307D1*
X1539400D2*
X2336228D1*
X2414323D2*
X3286112D1*
X3364224D2*
X4154783D1*
X4232877D2*
X4338016D1*
X425016Y754580D2*
X555096D1*
X633327D2*
X1461248D1*
X1539479D2*
X2336151D1*
X2414381D2*
X3286052D1*
X3364283D2*
X4154705D1*
X4232936D2*
X4338016D1*
X425016Y744711D2*
X557675D1*
X630748D2*
X1463827D1*
X1536900D2*
X2338728D1*
X2411803D2*
X3288631D1*
X3361705D2*
X4157283D1*
X4230357D2*
X4338016D1*
X425016Y734843D2*
X563572D1*
X624849D2*
X1469724D1*
X1531003D2*
X2344627D1*
X2405904D2*
X3294529D1*
X3355807D2*
X4163182D1*
X4224459D2*
X4338016D1*
X425016Y724974D2*
X575916D1*
X612507D2*
X1482068D1*
X1518659D2*
X2356971D1*
X2393560D2*
X3306873D1*
X3343463D2*
X4175525D1*
X4212115D2*
X4338016D1*
X425016Y715105D2*
X4338016D1*
X425016Y705236D2*
X4338016D1*
X425016Y695367D2*
X4338016D1*
X425016Y685499D2*
X4338016D1*
X425016Y675630D2*
X4338016D1*
X425016Y665761D2*
X4338016D1*
X425016Y655892D2*
X2371991D1*
X2413072D2*
X4338016D1*
X425016Y646024D2*
X2360916D1*
X2424147D2*
X4338016D1*
X425016Y636155D2*
X2355525D1*
X2429556D2*
X4338016D1*
X425016Y626286D2*
X2353280D1*
X2431783D2*
X4338016D1*
X425016Y616417D2*
X680682D1*
X697896D2*
X2353671D1*
X2431392D2*
X4080682D1*
X4097896D2*
X4338016D1*
X425016Y606549D2*
X643240D1*
X735339D2*
X2356756D1*
X2428307D2*
X4043240D1*
X4135339D2*
X4338016D1*
X425016Y596680D2*
X626580D1*
X751999D2*
X2363416D1*
X2421647D2*
X4026580D1*
X4151999D2*
X4338016D1*
X425016Y586811D2*
X614881D1*
X763717D2*
X2378240D1*
X2406823D2*
X4014881D1*
X4163717D2*
X4338016D1*
X425016Y576942D2*
X605955D1*
X772623D2*
X4005955D1*
X4172623D2*
X4338016D1*
X425016Y567073D2*
X599003D1*
X779576D2*
X3999003D1*
X4179576D2*
X4338016D1*
X425016Y557205D2*
X593592D1*
X785007D2*
X3993592D1*
X4185007D2*
X4338016D1*
X425016Y547336D2*
X589432D1*
X789147D2*
X3989432D1*
X4189147D2*
X4338016D1*
X425016Y537467D2*
X586404D1*
X792175D2*
X3986404D1*
X4192175D2*
X4338016D1*
X425016Y527598D2*
X584392D1*
X794185D2*
X3984392D1*
X4194185D2*
X4338016D1*
X425016Y517730D2*
X583339D1*
X795240D2*
X3983339D1*
X4195240D2*
X4338016D1*
X425016Y507861D2*
X583220D1*
X795357D2*
X3983220D1*
X4195357D2*
X4338016D1*
X425016Y497992D2*
X584041D1*
X794537D2*
X3984041D1*
X4194537D2*
X4338016D1*
X425016Y488123D2*
X585799D1*
X792780D2*
X3985799D1*
X4192780D2*
X4338016D1*
X425016Y478255D2*
X588572D1*
X790007D2*
X3988572D1*
X4190007D2*
X4338016D1*
X425016Y468386D2*
X592440D1*
X786139D2*
X3992440D1*
X4186139D2*
X4338016D1*
X425016Y458517D2*
X597517D1*
X781060D2*
X3997517D1*
X4181060D2*
X4338016D1*
X425016Y448648D2*
X604060D1*
X774517D2*
X4004060D1*
X4174517D2*
X4338016D1*
X425016Y438780D2*
X612420D1*
X766159D2*
X4012420D1*
X4166159D2*
X4338016D1*
X1149098Y4697507D2*
X1148706Y4687516D1*
X1147923Y4677546D1*
X1146751Y4667617D1*
X1145189Y4657740D1*
X1143241Y4647932D1*
X1140912Y4638207D1*
X1138202Y4628583D1*
X1135118Y4619071D1*
X1131664Y4609686D1*
X1127844Y4600446D1*
X1123665Y4591361D1*
X1119133Y4582448D1*
X1114256Y4573719D1*
X1109039Y4565188D1*
X1103493Y4556867D1*
X1097626Y4548770D1*
X1091445Y4540909D1*
X1084962Y4533298D1*
X1078184Y4525945D1*
X1071125Y4518865D1*
X1063793Y4512066D1*
X1056199Y4505559D1*
X1048357Y4499354D1*
X1040278Y4493463D1*
X1031974Y4487892D1*
X1023458Y4482651D1*
X1014744Y4477748D1*
X1005844Y4473189D1*
X996772Y4468983D1*
X987542Y4465136D1*
X978169Y4461654D1*
X968667Y4458541D1*
X959050Y4455803D1*
X949332Y4453445D1*
X939530Y4451469D1*
X929657Y4449877D1*
X919731Y4448675D1*
X909765Y4447862D1*
X899774Y4447441D1*
X889776Y4447411D1*
X879782Y4447773D1*
X869811Y4448526D1*
X859878Y4449669D1*
X849996Y4451202D1*
X840182Y4453119D1*
X830451Y4455420D1*
X820819Y4458101D1*
X811298Y4461157D1*
X801903Y4464584D1*
X792651Y4468375D1*
X783554Y4472528D1*
X774627Y4477033D1*
X765883Y4481885D1*
X757337Y4487075D1*
X749000Y4492596D1*
X740886Y4498440D1*
X733008Y4504597D1*
X725375Y4511058D1*
X718004Y4517814D1*
X710902Y4524853D1*
X704080Y4532164D1*
X697551Y4539738D1*
X691324Y4547562D1*
X685408Y4555623D1*
X679812Y4563911D1*
X674546Y4572411D1*
X669617Y4581110D1*
X665033Y4589996D1*
X660799Y4599056D1*
X656925Y4608274D1*
X653415Y4617636D1*
X650273Y4627130D1*
X647507Y4636739D1*
X645119Y4646449D1*
X643114Y4656245D1*
X641493Y4666113D1*
X640261Y4676035D1*
X639419Y4686000D1*
X638967Y4695990D1*
X638908Y4705988D1*
X639240Y4715982D1*
X639965Y4725955D1*
X641079Y4735892D1*
X642581Y4745778D1*
X644470Y4755597D1*
X646741Y4765335D1*
X649394Y4774976D1*
X652421Y4784507D1*
X655820Y4793911D1*
X659584Y4803175D1*
X663709Y4812283D1*
X668188Y4821223D1*
X673013Y4829982D1*
X678178Y4838543D1*
X683675Y4846896D1*
X689495Y4855029D1*
X695627Y4862925D1*
X702067Y4870576D1*
X708799Y4877969D1*
X715818Y4885092D1*
X723109Y4891934D1*
X730663Y4898486D1*
X738469Y4904736D1*
X746512Y4910676D1*
X754782Y4916297D1*
X763266Y4921588D1*
X771953Y4926543D1*
X780825Y4931155D1*
X789871Y4935415D1*
X799077Y4939316D1*
X808430Y4942854D1*
X817915Y4946024D1*
X827516Y4948819D1*
X837218Y4951235D1*
X847008Y4953270D1*
X856870Y4954920D1*
X866790Y4956181D1*
X876752Y4957052D1*
X886739Y4957534D1*
X896738Y4957623D1*
X906732Y4957320D1*
X916709Y4956626D1*
X926648Y4955542D1*
X936539Y4954070D1*
X946364Y4952210D1*
X956108Y4949967D1*
X965757Y4947344D1*
X975297Y4944344D1*
X984710Y4940974D1*
X993986Y4937236D1*
X1003106Y4933139D1*
X1012060Y4928686D1*
X1020832Y4923887D1*
X1029409Y4918748D1*
X1037780Y4913277D1*
X1045928Y4907482D1*
X1053844Y4901371D1*
X1061513Y4894955D1*
X1068927Y4888244D1*
X1076070Y4881248D1*
X1082934Y4873976D1*
X1089508Y4866442D1*
X1095782Y4858655D1*
X1101745Y4850629D1*
X1107390Y4842375D1*
X1112707Y4833907D1*
X1117688Y4825236D1*
X1122325Y4816378D1*
X1126613Y4807344D1*
X1130542Y4798148D1*
X1134108Y4788807D1*
X1137306Y4779332D1*
X1140129Y4769740D1*
X1142575Y4760045D1*
X1144638Y4750260D1*
X1146316Y4740403D1*
X1147608Y4730487D1*
X1148509Y4720529D1*
X1149021Y4710542D1*
X1149098Y4697507D1*
X2049098D2*
X2048706Y4687516D1*
X2047923Y4677546D1*
X2046751Y4667617D1*
X2045189Y4657740D1*
X2043241Y4647932D1*
X2040912Y4638207D1*
X2038202Y4628583D1*
X2035118Y4619071D1*
X2031664Y4609686D1*
X2027844Y4600446D1*
X2023665Y4591361D1*
X2019133Y4582448D1*
X2014256Y4573719D1*
X2009039Y4565188D1*
X2003493Y4556867D1*
X1997626Y4548770D1*
X1991445Y4540909D1*
X1984962Y4533298D1*
X1978184Y4525945D1*
X1971125Y4518865D1*
X1963793Y4512066D1*
X1956199Y4505559D1*
X1948357Y4499354D1*
X1940278Y4493463D1*
X1931974Y4487892D1*
X1923458Y4482651D1*
X1914744Y4477748D1*
X1905844Y4473189D1*
X1896772Y4468983D1*
X1887542Y4465136D1*
X1878169Y4461654D1*
X1868667Y4458541D1*
X1859050Y4455803D1*
X1849332Y4453445D1*
X1839530Y4451469D1*
X1829657Y4449877D1*
X1819731Y4448675D1*
X1809765Y4447862D1*
X1799774Y4447441D1*
X1789776Y4447411D1*
X1779782Y4447773D1*
X1769811Y4448526D1*
X1759878Y4449669D1*
X1749996Y4451202D1*
X1740182Y4453119D1*
X1730451Y4455420D1*
X1720819Y4458101D1*
X1711298Y4461157D1*
X1701903Y4464584D1*
X1692651Y4468375D1*
X1683554Y4472528D1*
X1674627Y4477033D1*
X1665883Y4481885D1*
X1657337Y4487075D1*
X1649000Y4492596D1*
X1640886Y4498440D1*
X1633008Y4504597D1*
X1625375Y4511058D1*
X1618004Y4517814D1*
X1610902Y4524853D1*
X1604080Y4532164D1*
X1597551Y4539738D1*
X1591324Y4547562D1*
X1585408Y4555623D1*
X1579812Y4563911D1*
X1574546Y4572411D1*
X1569617Y4581110D1*
X1565033Y4589996D1*
X1560799Y4599056D1*
X1556925Y4608274D1*
X1553415Y4617636D1*
X1550273Y4627130D1*
X1547507Y4636739D1*
X1545119Y4646449D1*
X1543114Y4656245D1*
X1541493Y4666113D1*
X1540261Y4676035D1*
X1539419Y4686000D1*
X1538967Y4695990D1*
X1538908Y4705988D1*
X1539240Y4715982D1*
X1539965Y4725955D1*
X1541079Y4735892D1*
X1542581Y4745778D1*
X1544470Y4755597D1*
X1546741Y4765335D1*
X1549394Y4774976D1*
X1552421Y4784507D1*
X1555820Y4793911D1*
X1559584Y4803175D1*
X1563709Y4812283D1*
X1568188Y4821223D1*
X1573013Y4829982D1*
X1578178Y4838543D1*
X1583675Y4846896D1*
X1589495Y4855029D1*
X1595627Y4862925D1*
X1602067Y4870576D1*
X1608799Y4877969D1*
X1615818Y4885092D1*
X1623109Y4891934D1*
X1630663Y4898486D1*
X1638469Y4904736D1*
X1646512Y4910676D1*
X1654782Y4916297D1*
X1663266Y4921588D1*
X1671953Y4926543D1*
X1680825Y4931155D1*
X1689871Y4935415D1*
X1699077Y4939316D1*
X1708430Y4942854D1*
X1717915Y4946024D1*
X1727516Y4948819D1*
X1737218Y4951235D1*
X1747008Y4953270D1*
X1756870Y4954920D1*
X1766790Y4956181D1*
X1776752Y4957052D1*
X1786739Y4957534D1*
X1796738Y4957623D1*
X1806732Y4957320D1*
X1816709Y4956626D1*
X1826648Y4955542D1*
X1836539Y4954070D1*
X1846364Y4952210D1*
X1856108Y4949967D1*
X1865757Y4947344D1*
X1875297Y4944344D1*
X1884710Y4940974D1*
X1893986Y4937236D1*
X1903106Y4933139D1*
X1912060Y4928686D1*
X1920832Y4923887D1*
X1929409Y4918748D1*
X1937780Y4913277D1*
X1945928Y4907482D1*
X1953844Y4901371D1*
X1961513Y4894955D1*
X1968927Y4888244D1*
X1976070Y4881248D1*
X1982934Y4873976D1*
X1989508Y4866442D1*
X1995782Y4858655D1*
X2001745Y4850629D1*
X2007390Y4842375D1*
X2012707Y4833907D1*
X2017688Y4825236D1*
X2022325Y4816378D1*
X2026613Y4807344D1*
X2030542Y4798148D1*
X2034108Y4788807D1*
X2037306Y4779332D1*
X2040129Y4769740D1*
X2042575Y4760045D1*
X2044638Y4750260D1*
X2046316Y4740403D1*
X2047608Y4730487D1*
X2048509Y4720529D1*
X2049021Y4710542D1*
X2049098Y4697507D1*
X2949098D2*
X2948706Y4687516D1*
X2947923Y4677546D1*
X2946751Y4667617D1*
X2945189Y4657740D1*
X2943241Y4647932D1*
X2940912Y4638207D1*
X2938202Y4628583D1*
X2935118Y4619071D1*
X2931664Y4609686D1*
X2927844Y4600446D1*
X2923665Y4591361D1*
X2919133Y4582448D1*
X2914256Y4573719D1*
X2909039Y4565188D1*
X2903493Y4556867D1*
X2897626Y4548770D1*
X2891445Y4540909D1*
X2884962Y4533298D1*
X2878184Y4525945D1*
X2871125Y4518865D1*
X2863793Y4512066D1*
X2856199Y4505559D1*
X2848357Y4499354D1*
X2840278Y4493463D1*
X2831974Y4487892D1*
X2823458Y4482651D1*
X2814744Y4477748D1*
X2805844Y4473189D1*
X2796772Y4468983D1*
X2787542Y4465136D1*
X2778169Y4461654D1*
X2768667Y4458541D1*
X2759050Y4455803D1*
X2749332Y4453445D1*
X2739530Y4451469D1*
X2729657Y4449877D1*
X2719731Y4448675D1*
X2709765Y4447862D1*
X2699774Y4447441D1*
X2689776Y4447411D1*
X2679782Y4447773D1*
X2669811Y4448526D1*
X2659878Y4449669D1*
X2649996Y4451202D1*
X2640182Y4453119D1*
X2630451Y4455420D1*
X2620819Y4458101D1*
X2611298Y4461157D1*
X2601903Y4464584D1*
X2592651Y4468375D1*
X2583554Y4472528D1*
X2574627Y4477033D1*
X2565883Y4481885D1*
X2557337Y4487075D1*
X2549000Y4492596D1*
X2540886Y4498440D1*
X2533008Y4504597D1*
X2525375Y4511058D1*
X2518004Y4517814D1*
X2510902Y4524853D1*
X2504080Y4532164D1*
X2497551Y4539738D1*
X2491324Y4547562D1*
X2485408Y4555623D1*
X2479812Y4563911D1*
X2474546Y4572411D1*
X2469617Y4581110D1*
X2465033Y4589996D1*
X2460799Y4599056D1*
X2456925Y4608274D1*
X2453415Y4617636D1*
X2450273Y4627130D1*
X2447507Y4636739D1*
X2445119Y4646449D1*
X2443114Y4656245D1*
X2441493Y4666113D1*
X2440261Y4676035D1*
X2439419Y4686000D1*
X2438967Y4695990D1*
X2438908Y4705988D1*
X2439240Y4715982D1*
X2439965Y4725955D1*
X2441079Y4735892D1*
X2442581Y4745778D1*
X2444470Y4755597D1*
X2446741Y4765335D1*
X2449394Y4774976D1*
X2452421Y4784507D1*
X2455820Y4793911D1*
X2459584Y4803175D1*
X2463709Y4812283D1*
X2468188Y4821223D1*
X2473013Y4829982D1*
X2478178Y4838543D1*
X2483675Y4846896D1*
X2489495Y4855029D1*
X2495627Y4862925D1*
X2502067Y4870576D1*
X2508799Y4877969D1*
X2515818Y4885092D1*
X2523109Y4891934D1*
X2530663Y4898486D1*
X2538469Y4904736D1*
X2546512Y4910676D1*
X2554782Y4916297D1*
X2563266Y4921588D1*
X2571953Y4926543D1*
X2580825Y4931155D1*
X2589871Y4935415D1*
X2599077Y4939316D1*
X2608430Y4942854D1*
X2617915Y4946024D1*
X2627516Y4948819D1*
X2637218Y4951235D1*
X2647008Y4953270D1*
X2656870Y4954920D1*
X2666790Y4956181D1*
X2676752Y4957052D1*
X2686739Y4957534D1*
X2696738Y4957623D1*
X2706732Y4957320D1*
X2716709Y4956626D1*
X2726648Y4955542D1*
X2736539Y4954070D1*
X2746364Y4952210D1*
X2756108Y4949967D1*
X2765757Y4947344D1*
X2775297Y4944344D1*
X2784710Y4940974D1*
X2793986Y4937236D1*
X2803106Y4933139D1*
X2812060Y4928686D1*
X2820832Y4923887D1*
X2829409Y4918748D1*
X2837780Y4913277D1*
X2845928Y4907482D1*
X2853844Y4901371D1*
X2861513Y4894955D1*
X2868927Y4888244D1*
X2876070Y4881248D1*
X2882934Y4873976D1*
X2889508Y4866442D1*
X2895782Y4858655D1*
X2901745Y4850629D1*
X2907390Y4842375D1*
X2912707Y4833907D1*
X2917688Y4825236D1*
X2922325Y4816378D1*
X2926613Y4807344D1*
X2930542Y4798148D1*
X2934108Y4788807D1*
X2937306Y4779332D1*
X2940129Y4769740D1*
X2942575Y4760045D1*
X2944638Y4750260D1*
X2946316Y4740403D1*
X2947608Y4730487D1*
X2948509Y4720529D1*
X2949021Y4710542D1*
X2949098Y4697507D1*
X4149098D2*
X4148706Y4687516D1*
X4147923Y4677546D1*
X4146751Y4667617D1*
X4145189Y4657740D1*
X4143241Y4647932D1*
X4140912Y4638207D1*
X4138202Y4628583D1*
X4135118Y4619071D1*
X4131664Y4609686D1*
X4127844Y4600446D1*
X4123665Y4591361D1*
X4119133Y4582448D1*
X4114256Y4573719D1*
X4109039Y4565188D1*
X4103493Y4556867D1*
X4097626Y4548770D1*
X4091445Y4540909D1*
X4084962Y4533298D1*
X4078184Y4525945D1*
X4071125Y4518865D1*
X4063793Y4512066D1*
X4056199Y4505559D1*
X4048357Y4499354D1*
X4040278Y4493463D1*
X4031974Y4487892D1*
X4023458Y4482651D1*
X4014744Y4477748D1*
X4005844Y4473189D1*
X3996772Y4468983D1*
X3987542Y4465136D1*
X3978169Y4461654D1*
X3968667Y4458541D1*
X3959050Y4455803D1*
X3949332Y4453445D1*
X3939530Y4451469D1*
X3929657Y4449877D1*
X3919731Y4448675D1*
X3909765Y4447862D1*
X3899774Y4447441D1*
X3889776Y4447411D1*
X3879782Y4447773D1*
X3869811Y4448526D1*
X3859878Y4449669D1*
X3849996Y4451202D1*
X3840182Y4453119D1*
X3830451Y4455420D1*
X3820819Y4458101D1*
X3811298Y4461157D1*
X3801903Y4464584D1*
X3792651Y4468375D1*
X3783554Y4472528D1*
X3774627Y4477033D1*
X3765883Y4481885D1*
X3757337Y4487075D1*
X3749000Y4492596D1*
X3740886Y4498440D1*
X3733008Y4504597D1*
X3725375Y4511058D1*
X3718004Y4517814D1*
X3710902Y4524853D1*
X3704080Y4532164D1*
X3697551Y4539738D1*
X3691324Y4547562D1*
X3685408Y4555623D1*
X3679812Y4563911D1*
X3674546Y4572411D1*
X3669617Y4581110D1*
X3665033Y4589996D1*
X3660799Y4599056D1*
X3656925Y4608274D1*
X3653415Y4617636D1*
X3650273Y4627130D1*
X3647507Y4636739D1*
X3645119Y4646449D1*
X3643114Y4656245D1*
X3641493Y4666113D1*
X3640261Y4676035D1*
X3639419Y4686000D1*
X3638967Y4695990D1*
X3638908Y4705988D1*
X3639240Y4715982D1*
X3639965Y4725955D1*
X3641079Y4735892D1*
X3642581Y4745778D1*
X3644470Y4755597D1*
X3646741Y4765335D1*
X3649394Y4774976D1*
X3652421Y4784507D1*
X3655820Y4793911D1*
X3659584Y4803175D1*
X3663709Y4812283D1*
X3668188Y4821223D1*
X3673013Y4829982D1*
X3678178Y4838543D1*
X3683675Y4846896D1*
X3689495Y4855029D1*
X3695627Y4862925D1*
X3702067Y4870576D1*
X3708799Y4877969D1*
X3715818Y4885092D1*
X3723109Y4891934D1*
X3730663Y4898486D1*
X3738469Y4904736D1*
X3746512Y4910676D1*
X3754782Y4916297D1*
X3763266Y4921588D1*
X3771953Y4926543D1*
X3780825Y4931155D1*
X3789871Y4935415D1*
X3799077Y4939316D1*
X3808430Y4942854D1*
X3817915Y4946024D1*
X3827516Y4948819D1*
X3837218Y4951235D1*
X3847008Y4953270D1*
X3856870Y4954920D1*
X3866790Y4956181D1*
X3876752Y4957052D1*
X3886739Y4957534D1*
X3896738Y4957623D1*
X3906732Y4957320D1*
X3916709Y4956626D1*
X3926648Y4955542D1*
X3936539Y4954070D1*
X3946364Y4952210D1*
X3956108Y4949967D1*
X3965757Y4947344D1*
X3975297Y4944344D1*
X3984710Y4940974D1*
X3993986Y4937236D1*
X4003106Y4933139D1*
X4012060Y4928686D1*
X4020832Y4923887D1*
X4029409Y4918748D1*
X4037780Y4913277D1*
X4045928Y4907482D1*
X4053844Y4901371D1*
X4061513Y4894955D1*
X4068927Y4888244D1*
X4076070Y4881248D1*
X4082934Y4873976D1*
X4089508Y4866442D1*
X4095782Y4858655D1*
X4101745Y4850629D1*
X4107390Y4842375D1*
X4112707Y4833907D1*
X4117688Y4825236D1*
X4122325Y4816378D1*
X4126613Y4807344D1*
X4130542Y4798148D1*
X4134108Y4788807D1*
X4137306Y4779332D1*
X4140129Y4769740D1*
X4142575Y4760045D1*
X4144638Y4750260D1*
X4146316Y4740403D1*
X4147608Y4730487D1*
X4148509Y4720529D1*
X4149021Y4710542D1*
X4149098Y4697507D1*
X2049098Y3297507D2*
X2048706Y3287516D1*
X2047923Y3277546D1*
X2046751Y3267617D1*
X2045189Y3257740D1*
X2043241Y3247932D1*
X2040912Y3238207D1*
X2038202Y3228583D1*
X2035118Y3219071D1*
X2031664Y3209686D1*
X2027844Y3200446D1*
X2023665Y3191361D1*
X2019133Y3182448D1*
X2014256Y3173719D1*
X2009039Y3165188D1*
X2003493Y3156867D1*
X1997626Y3148770D1*
X1991445Y3140909D1*
X1984962Y3133298D1*
X1978184Y3125945D1*
X1971125Y3118865D1*
X1963793Y3112066D1*
X1956199Y3105559D1*
X1948357Y3099354D1*
X1940278Y3093463D1*
X1931974Y3087892D1*
X1923458Y3082651D1*
X1914744Y3077748D1*
X1905844Y3073189D1*
X1896772Y3068983D1*
X1887542Y3065136D1*
X1878169Y3061654D1*
X1868667Y3058541D1*
X1859050Y3055803D1*
X1849332Y3053445D1*
X1839530Y3051469D1*
X1829657Y3049877D1*
X1819731Y3048675D1*
X1809765Y3047862D1*
X1799774Y3047441D1*
X1789776Y3047411D1*
X1779782Y3047773D1*
X1769811Y3048526D1*
X1759878Y3049669D1*
X1749996Y3051202D1*
X1740182Y3053119D1*
X1730451Y3055420D1*
X1720819Y3058101D1*
X1711298Y3061157D1*
X1701903Y3064584D1*
X1692651Y3068375D1*
X1683554Y3072528D1*
X1674627Y3077033D1*
X1665883Y3081885D1*
X1657337Y3087075D1*
X1649000Y3092596D1*
X1640886Y3098440D1*
X1633008Y3104597D1*
X1625375Y3111058D1*
X1618004Y3117814D1*
X1610902Y3124853D1*
X1604080Y3132164D1*
X1597551Y3139738D1*
X1591324Y3147562D1*
X1585408Y3155623D1*
X1579812Y3163911D1*
X1574546Y3172411D1*
X1569617Y3181110D1*
X1565033Y3189996D1*
X1560799Y3199056D1*
X1556925Y3208274D1*
X1553415Y3217636D1*
X1550273Y3227130D1*
X1547507Y3236739D1*
X1545119Y3246449D1*
X1543114Y3256245D1*
X1541493Y3266113D1*
X1540261Y3276035D1*
X1539419Y3286000D1*
X1538967Y3295990D1*
X1538908Y3305988D1*
X1539240Y3315982D1*
X1539965Y3325955D1*
X1541079Y3335892D1*
X1542581Y3345778D1*
X1544470Y3355597D1*
X1546741Y3365335D1*
X1549394Y3374976D1*
X1552421Y3384507D1*
X1555820Y3393911D1*
X1559584Y3403175D1*
X1563709Y3412283D1*
X1568188Y3421223D1*
X1573013Y3429982D1*
X1578178Y3438543D1*
X1583675Y3446896D1*
X1589495Y3455029D1*
X1595627Y3462925D1*
X1602067Y3470576D1*
X1608799Y3477969D1*
X1615818Y3485092D1*
X1623109Y3491934D1*
X1630663Y3498486D1*
X1638469Y3504736D1*
X1646512Y3510676D1*
X1654782Y3516297D1*
X1663266Y3521588D1*
X1671953Y3526543D1*
X1680825Y3531155D1*
X1689871Y3535415D1*
X1699077Y3539316D1*
X1708430Y3542854D1*
X1717915Y3546024D1*
X1727516Y3548819D1*
X1737218Y3551235D1*
X1747008Y3553270D1*
X1756870Y3554920D1*
X1766790Y3556181D1*
X1776752Y3557052D1*
X1786739Y3557534D1*
X1796738Y3557623D1*
X1806732Y3557320D1*
X1816709Y3556626D1*
X1826648Y3555542D1*
X1836539Y3554070D1*
X1846364Y3552210D1*
X1856108Y3549967D1*
X1865757Y3547344D1*
X1875297Y3544344D1*
X1884710Y3540974D1*
X1893986Y3537236D1*
X1903106Y3533139D1*
X1912060Y3528686D1*
X1920832Y3523887D1*
X1929409Y3518748D1*
X1937780Y3513277D1*
X1945928Y3507482D1*
X1953844Y3501371D1*
X1961513Y3494955D1*
X1968927Y3488244D1*
X1976070Y3481248D1*
X1982934Y3473976D1*
X1989508Y3466442D1*
X1995782Y3458655D1*
X2001745Y3450629D1*
X2007390Y3442375D1*
X2012707Y3433907D1*
X2017688Y3425236D1*
X2022325Y3416378D1*
X2026613Y3407344D1*
X2030542Y3398148D1*
X2034108Y3388807D1*
X2037306Y3379332D1*
X2040129Y3369740D1*
X2042575Y3360045D1*
X2044638Y3350260D1*
X2046316Y3340403D1*
X2047608Y3330487D1*
X2048509Y3320529D1*
X2049021Y3310542D1*
X2049098Y3297507D1*
X2749098D2*
X2748706Y3287516D1*
X2747923Y3277546D1*
X2746751Y3267617D1*
X2745189Y3257740D1*
X2743241Y3247932D1*
X2740912Y3238207D1*
X2738202Y3228583D1*
X2735118Y3219071D1*
X2731664Y3209686D1*
X2727844Y3200446D1*
X2723665Y3191361D1*
X2719133Y3182448D1*
X2714256Y3173719D1*
X2709039Y3165188D1*
X2703493Y3156867D1*
X2697626Y3148770D1*
X2691445Y3140909D1*
X2684962Y3133298D1*
X2678184Y3125945D1*
X2671125Y3118865D1*
X2663793Y3112066D1*
X2656199Y3105559D1*
X2648357Y3099354D1*
X2640278Y3093463D1*
X2631974Y3087892D1*
X2623458Y3082651D1*
X2614744Y3077748D1*
X2605844Y3073189D1*
X2596772Y3068983D1*
X2587542Y3065136D1*
X2578169Y3061654D1*
X2568667Y3058541D1*
X2559050Y3055803D1*
X2549332Y3053445D1*
X2539530Y3051469D1*
X2529657Y3049877D1*
X2519731Y3048675D1*
X2509765Y3047862D1*
X2499774Y3047441D1*
X2489776Y3047411D1*
X2479782Y3047773D1*
X2469811Y3048526D1*
X2459878Y3049669D1*
X2449996Y3051202D1*
X2440182Y3053119D1*
X2430451Y3055420D1*
X2420819Y3058101D1*
X2411298Y3061157D1*
X2401903Y3064584D1*
X2392651Y3068375D1*
X2383554Y3072528D1*
X2374627Y3077033D1*
X2365883Y3081885D1*
X2357337Y3087075D1*
X2349000Y3092596D1*
X2340886Y3098440D1*
X2333008Y3104597D1*
X2325375Y3111058D1*
X2318004Y3117814D1*
X2310902Y3124853D1*
X2304080Y3132164D1*
X2297551Y3139738D1*
X2291324Y3147562D1*
X2285408Y3155623D1*
X2279812Y3163911D1*
X2274546Y3172411D1*
X2269617Y3181110D1*
X2265033Y3189996D1*
X2260799Y3199056D1*
X2256925Y3208274D1*
X2253415Y3217636D1*
X2250273Y3227130D1*
X2247507Y3236739D1*
X2245119Y3246449D1*
X2243114Y3256245D1*
X2241493Y3266113D1*
X2240261Y3276035D1*
X2239419Y3286000D1*
X2238967Y3295990D1*
X2238908Y3305988D1*
X2239240Y3315982D1*
X2239965Y3325955D1*
X2241079Y3335892D1*
X2242581Y3345778D1*
X2244470Y3355597D1*
X2246741Y3365335D1*
X2249394Y3374976D1*
X2252421Y3384507D1*
X2255820Y3393911D1*
X2259584Y3403175D1*
X2263709Y3412283D1*
X2268188Y3421223D1*
X2273013Y3429982D1*
X2278178Y3438543D1*
X2283675Y3446896D1*
X2289495Y3455029D1*
X2295627Y3462925D1*
X2302067Y3470576D1*
X2308799Y3477969D1*
X2315818Y3485092D1*
X2323109Y3491934D1*
X2330663Y3498486D1*
X2338469Y3504736D1*
X2346512Y3510676D1*
X2354782Y3516297D1*
X2363266Y3521588D1*
X2371953Y3526543D1*
X2380825Y3531155D1*
X2389871Y3535415D1*
X2399077Y3539316D1*
X2408430Y3542854D1*
X2417915Y3546024D1*
X2427516Y3548819D1*
X2437218Y3551235D1*
X2447008Y3553270D1*
X2456870Y3554920D1*
X2466790Y3556181D1*
X2476752Y3557052D1*
X2486739Y3557534D1*
X2496738Y3557623D1*
X2506732Y3557320D1*
X2516709Y3556626D1*
X2526648Y3555542D1*
X2536539Y3554070D1*
X2546364Y3552210D1*
X2556108Y3549967D1*
X2565757Y3547344D1*
X2575297Y3544344D1*
X2584710Y3540974D1*
X2593986Y3537236D1*
X2603106Y3533139D1*
X2612060Y3528686D1*
X2620832Y3523887D1*
X2629409Y3518748D1*
X2637780Y3513277D1*
X2645928Y3507482D1*
X2653844Y3501371D1*
X2661513Y3494955D1*
X2668927Y3488244D1*
X2676070Y3481248D1*
X2682934Y3473976D1*
X2689508Y3466442D1*
X2695782Y3458655D1*
X2701745Y3450629D1*
X2707390Y3442375D1*
X2712707Y3433907D1*
X2717688Y3425236D1*
X2722325Y3416378D1*
X2726613Y3407344D1*
X2730542Y3398148D1*
X2734108Y3388807D1*
X2737306Y3379332D1*
X2740129Y3369740D1*
X2742575Y3360045D1*
X2744638Y3350260D1*
X2746316Y3340403D1*
X2747608Y3330487D1*
X2748509Y3320529D1*
X2749021Y3310542D1*
X2749098Y3297507D1*
X3449098D2*
X3448706Y3287516D1*
X3447923Y3277546D1*
X3446751Y3267617D1*
X3445189Y3257740D1*
X3443241Y3247932D1*
X3440912Y3238207D1*
X3438202Y3228583D1*
X3435118Y3219071D1*
X3431664Y3209686D1*
X3427844Y3200446D1*
X3423665Y3191361D1*
X3419133Y3182448D1*
X3414256Y3173719D1*
X3409039Y3165188D1*
X3403493Y3156867D1*
X3397626Y3148770D1*
X3391445Y3140909D1*
X3384962Y3133298D1*
X3378184Y3125945D1*
X3371125Y3118865D1*
X3363793Y3112066D1*
X3356199Y3105559D1*
X3348357Y3099354D1*
X3340278Y3093463D1*
X3331974Y3087892D1*
X3323458Y3082651D1*
X3314744Y3077748D1*
X3305844Y3073189D1*
X3296772Y3068983D1*
X3287542Y3065136D1*
X3278169Y3061654D1*
X3268667Y3058541D1*
X3259050Y3055803D1*
X3249332Y3053445D1*
X3239530Y3051469D1*
X3229657Y3049877D1*
X3219731Y3048675D1*
X3209765Y3047862D1*
X3199774Y3047441D1*
X3189776Y3047411D1*
X3179782Y3047773D1*
X3169811Y3048526D1*
X3159878Y3049669D1*
X3149996Y3051202D1*
X3140182Y3053119D1*
X3130451Y3055420D1*
X3120819Y3058101D1*
X3111298Y3061157D1*
X3101903Y3064584D1*
X3092651Y3068375D1*
X3083554Y3072528D1*
X3074627Y3077033D1*
X3065883Y3081885D1*
X3057337Y3087075D1*
X3049000Y3092596D1*
X3040886Y3098440D1*
X3033008Y3104597D1*
X3025375Y3111058D1*
X3018004Y3117814D1*
X3010902Y3124853D1*
X3004080Y3132164D1*
X2997551Y3139738D1*
X2991324Y3147562D1*
X2985408Y3155623D1*
X2979812Y3163911D1*
X2974546Y3172411D1*
X2969617Y3181110D1*
X2965033Y3189996D1*
X2960799Y3199056D1*
X2956925Y3208274D1*
X2953415Y3217636D1*
X2950273Y3227130D1*
X2947507Y3236739D1*
X2945119Y3246449D1*
X2943114Y3256245D1*
X2941493Y3266113D1*
X2940261Y3276035D1*
X2939419Y3286000D1*
X2938967Y3295990D1*
X2938908Y3305988D1*
X2939240Y3315982D1*
X2939965Y3325955D1*
X2941079Y3335892D1*
X2942581Y3345778D1*
X2944470Y3355597D1*
X2946741Y3365335D1*
X2949394Y3374976D1*
X2952421Y3384507D1*
X2955820Y3393911D1*
X2959584Y3403175D1*
X2963709Y3412283D1*
X2968188Y3421223D1*
X2973013Y3429982D1*
X2978178Y3438543D1*
X2983675Y3446896D1*
X2989495Y3455029D1*
X2995627Y3462925D1*
X3002067Y3470576D1*
X3008799Y3477969D1*
X3015818Y3485092D1*
X3023109Y3491934D1*
X3030663Y3498486D1*
X3038469Y3504736D1*
X3046512Y3510676D1*
X3054782Y3516297D1*
X3063266Y3521588D1*
X3071953Y3526543D1*
X3080825Y3531155D1*
X3089871Y3535415D1*
X3099077Y3539316D1*
X3108430Y3542854D1*
X3117915Y3546024D1*
X3127516Y3548819D1*
X3137218Y3551235D1*
X3147008Y3553270D1*
X3156870Y3554920D1*
X3166790Y3556181D1*
X3176752Y3557052D1*
X3186739Y3557534D1*
X3196738Y3557623D1*
X3206732Y3557320D1*
X3216709Y3556626D1*
X3226648Y3555542D1*
X3236539Y3554070D1*
X3246364Y3552210D1*
X3256108Y3549967D1*
X3265757Y3547344D1*
X3275297Y3544344D1*
X3284710Y3540974D1*
X3293986Y3537236D1*
X3303106Y3533139D1*
X3312060Y3528686D1*
X3320832Y3523887D1*
X3329409Y3518748D1*
X3337780Y3513277D1*
X3345928Y3507482D1*
X3353844Y3501371D1*
X3361513Y3494955D1*
X3368927Y3488244D1*
X3376070Y3481248D1*
X3382934Y3473976D1*
X3389508Y3466442D1*
X3395782Y3458655D1*
X3401745Y3450629D1*
X3407390Y3442375D1*
X3412707Y3433907D1*
X3417688Y3425236D1*
X3422325Y3416378D1*
X3426613Y3407344D1*
X3430542Y3398148D1*
X3434108Y3388807D1*
X3437306Y3379332D1*
X3440129Y3369740D1*
X3442575Y3360045D1*
X3444638Y3350260D1*
X3446316Y3340403D1*
X3447608Y3330487D1*
X3448509Y3320529D1*
X3449021Y3310542D1*
X3449098Y3297507D1*
X4149098D2*
X4148706Y3287516D1*
X4147923Y3277546D1*
X4146751Y3267617D1*
X4145189Y3257740D1*
X4143241Y3247932D1*
X4140912Y3238207D1*
X4138202Y3228583D1*
X4135118Y3219071D1*
X4131664Y3209686D1*
X4127844Y3200446D1*
X4123665Y3191361D1*
X4119133Y3182448D1*
X4114256Y3173719D1*
X4109039Y3165188D1*
X4103493Y3156867D1*
X4097626Y3148770D1*
X4091445Y3140909D1*
X4084962Y3133298D1*
X4078184Y3125945D1*
X4071125Y3118865D1*
X4063793Y3112066D1*
X4056199Y3105559D1*
X4048357Y3099354D1*
X4040278Y3093463D1*
X4031974Y3087892D1*
X4023458Y3082651D1*
X4014744Y3077748D1*
X4005844Y3073189D1*
X3996772Y3068983D1*
X3987542Y3065136D1*
X3978169Y3061654D1*
X3968667Y3058541D1*
X3959050Y3055803D1*
X3949332Y3053445D1*
X3939530Y3051469D1*
X3929657Y3049877D1*
X3919731Y3048675D1*
X3909765Y3047862D1*
X3899774Y3047441D1*
X3889776Y3047411D1*
X3879782Y3047773D1*
X3869811Y3048526D1*
X3859878Y3049669D1*
X3849996Y3051202D1*
X3840182Y3053119D1*
X3830451Y3055420D1*
X3820819Y3058101D1*
X3811298Y3061157D1*
X3801903Y3064584D1*
X3792651Y3068375D1*
X3783554Y3072528D1*
X3774627Y3077033D1*
X3765883Y3081885D1*
X3757337Y3087075D1*
X3749000Y3092596D1*
X3740886Y3098440D1*
X3733008Y3104597D1*
X3725375Y3111058D1*
X3718004Y3117814D1*
X3710902Y3124853D1*
X3704080Y3132164D1*
X3697551Y3139738D1*
X3691324Y3147562D1*
X3685408Y3155623D1*
X3679812Y3163911D1*
X3674546Y3172411D1*
X3669617Y3181110D1*
X3665033Y3189996D1*
X3660799Y3199056D1*
X3656925Y3208274D1*
X3653415Y3217636D1*
X3650273Y3227130D1*
X3647507Y3236739D1*
X3645119Y3246449D1*
X3643114Y3256245D1*
X3641493Y3266113D1*
X3640261Y3276035D1*
X3639419Y3286000D1*
X3638967Y3295990D1*
X3638908Y3305988D1*
X3639240Y3315982D1*
X3639965Y3325955D1*
X3641079Y3335892D1*
X3642581Y3345778D1*
X3644470Y3355597D1*
X3646741Y3365335D1*
X3649394Y3374976D1*
X3652421Y3384507D1*
X3655820Y3393911D1*
X3659584Y3403175D1*
X3663709Y3412283D1*
X3668188Y3421223D1*
X3673013Y3429982D1*
X3678178Y3438543D1*
X3683675Y3446896D1*
X3689495Y3455029D1*
X3695627Y3462925D1*
X3702067Y3470576D1*
X3708799Y3477969D1*
X3715818Y3485092D1*
X3723109Y3491934D1*
X3730663Y3498486D1*
X3738469Y3504736D1*
X3746512Y3510676D1*
X3754782Y3516297D1*
X3763266Y3521588D1*
X3771953Y3526543D1*
X3780825Y3531155D1*
X3789871Y3535415D1*
X3799077Y3539316D1*
X3808430Y3542854D1*
X3817915Y3546024D1*
X3827516Y3548819D1*
X3837218Y3551235D1*
X3847008Y3553270D1*
X3856870Y3554920D1*
X3866790Y3556181D1*
X3876752Y3557052D1*
X3886739Y3557534D1*
X3896738Y3557623D1*
X3906732Y3557320D1*
X3916709Y3556626D1*
X3926648Y3555542D1*
X3936539Y3554070D1*
X3946364Y3552210D1*
X3956108Y3549967D1*
X3965757Y3547344D1*
X3975297Y3544344D1*
X3984710Y3540974D1*
X3993986Y3537236D1*
X4003106Y3533139D1*
X4012060Y3528686D1*
X4020832Y3523887D1*
X4029409Y3518748D1*
X4037780Y3513277D1*
X4045928Y3507482D1*
X4053844Y3501371D1*
X4061513Y3494955D1*
X4068927Y3488244D1*
X4076070Y3481248D1*
X4082934Y3473976D1*
X4089508Y3466442D1*
X4095782Y3458655D1*
X4101745Y3450629D1*
X4107390Y3442375D1*
X4112707Y3433907D1*
X4117688Y3425236D1*
X4122325Y3416378D1*
X4126613Y3407344D1*
X4130542Y3398148D1*
X4134108Y3388807D1*
X4137306Y3379332D1*
X4140129Y3369740D1*
X4142575Y3360045D1*
X4144638Y3350260D1*
X4146316Y3340403D1*
X4147608Y3330487D1*
X4148509Y3320529D1*
X4149021Y3310542D1*
X4149098Y3297507D1*
X2049098Y2097507D2*
X2048706Y2087516D1*
X2047923Y2077546D1*
X2046751Y2067617D1*
X2045189Y2057740D1*
X2043241Y2047932D1*
X2040912Y2038207D1*
X2038202Y2028583D1*
X2035118Y2019071D1*
X2031664Y2009686D1*
X2027844Y2000446D1*
X2023665Y1991361D1*
X2019133Y1982448D1*
X2014256Y1973719D1*
X2009039Y1965188D1*
X2003493Y1956867D1*
X1997626Y1948770D1*
X1991445Y1940909D1*
X1984962Y1933298D1*
X1978184Y1925945D1*
X1971125Y1918865D1*
X1963793Y1912066D1*
X1956199Y1905559D1*
X1948357Y1899354D1*
X1940278Y1893463D1*
X1931974Y1887892D1*
X1923458Y1882651D1*
X1914744Y1877748D1*
X1905844Y1873189D1*
X1896772Y1868983D1*
X1887542Y1865136D1*
X1878169Y1861654D1*
X1868667Y1858541D1*
X1859050Y1855803D1*
X1849332Y1853445D1*
X1839530Y1851469D1*
X1829657Y1849877D1*
X1819731Y1848675D1*
X1809765Y1847862D1*
X1799774Y1847441D1*
X1789776Y1847411D1*
X1779782Y1847773D1*
X1769811Y1848526D1*
X1759878Y1849669D1*
X1749996Y1851202D1*
X1740182Y1853119D1*
X1730451Y1855420D1*
X1720819Y1858101D1*
X1711298Y1861157D1*
X1701903Y1864584D1*
X1692651Y1868375D1*
X1683554Y1872528D1*
X1674627Y1877033D1*
X1665883Y1881885D1*
X1657337Y1887075D1*
X1649000Y1892596D1*
X1640886Y1898440D1*
X1633008Y1904597D1*
X1625375Y1911058D1*
X1618004Y1917814D1*
X1610902Y1924853D1*
X1604080Y1932164D1*
X1597551Y1939738D1*
X1591324Y1947562D1*
X1585408Y1955623D1*
X1579812Y1963911D1*
X1574546Y1972411D1*
X1569617Y1981110D1*
X1565033Y1989996D1*
X1560799Y1999056D1*
X1556925Y2008274D1*
X1553415Y2017636D1*
X1550273Y2027130D1*
X1547507Y2036739D1*
X1545119Y2046449D1*
X1543114Y2056245D1*
X1541493Y2066113D1*
X1540261Y2076035D1*
X1539419Y2086000D1*
X1538967Y2095990D1*
X1538908Y2105988D1*
X1539240Y2115982D1*
X1539965Y2125955D1*
X1541079Y2135892D1*
X1542581Y2145778D1*
X1544470Y2155597D1*
X1546741Y2165335D1*
X1549394Y2174976D1*
X1552421Y2184507D1*
X1555820Y2193911D1*
X1559584Y2203175D1*
X1563709Y2212283D1*
X1568188Y2221223D1*
X1573013Y2229982D1*
X1578178Y2238543D1*
X1583675Y2246896D1*
X1589495Y2255029D1*
X1595627Y2262925D1*
X1602067Y2270576D1*
X1608799Y2277969D1*
X1615818Y2285092D1*
X1623109Y2291934D1*
X1630663Y2298486D1*
X1638469Y2304736D1*
X1646512Y2310676D1*
X1654782Y2316297D1*
X1663266Y2321588D1*
X1671953Y2326543D1*
X1680825Y2331155D1*
X1689871Y2335415D1*
X1699077Y2339316D1*
X1708430Y2342854D1*
X1717915Y2346024D1*
X1727516Y2348819D1*
X1737218Y2351235D1*
X1747008Y2353270D1*
X1756870Y2354920D1*
X1766790Y2356181D1*
X1776752Y2357052D1*
X1786739Y2357534D1*
X1796738Y2357623D1*
X1806732Y2357320D1*
X1816709Y2356626D1*
X1826648Y2355542D1*
X1836539Y2354070D1*
X1846364Y2352210D1*
X1856108Y2349967D1*
X1865757Y2347344D1*
X1875297Y2344344D1*
X1884710Y2340974D1*
X1893986Y2337236D1*
X1903106Y2333139D1*
X1912060Y2328686D1*
X1920832Y2323887D1*
X1929409Y2318748D1*
X1937780Y2313277D1*
X1945928Y2307482D1*
X1953844Y2301371D1*
X1961513Y2294955D1*
X1968927Y2288244D1*
X1976070Y2281248D1*
X1982934Y2273976D1*
X1989508Y2266442D1*
X1995782Y2258655D1*
X2001745Y2250629D1*
X2007390Y2242375D1*
X2012707Y2233907D1*
X2017688Y2225236D1*
X2022325Y2216378D1*
X2026613Y2207344D1*
X2030542Y2198148D1*
X2034108Y2188807D1*
X2037306Y2179332D1*
X2040129Y2169740D1*
X2042575Y2160045D1*
X2044638Y2150260D1*
X2046316Y2140403D1*
X2047608Y2130487D1*
X2048509Y2120529D1*
X2049021Y2110542D1*
X2049098Y2097507D1*
X2749098D2*
X2748706Y2087516D1*
X2747923Y2077546D1*
X2746751Y2067617D1*
X2745189Y2057740D1*
X2743241Y2047932D1*
X2740912Y2038207D1*
X2738202Y2028583D1*
X2735118Y2019071D1*
X2731664Y2009686D1*
X2727844Y2000446D1*
X2723665Y1991361D1*
X2719133Y1982448D1*
X2714256Y1973719D1*
X2709039Y1965188D1*
X2703493Y1956867D1*
X2697626Y1948770D1*
X2691445Y1940909D1*
X2684962Y1933298D1*
X2678184Y1925945D1*
X2671125Y1918865D1*
X2663793Y1912066D1*
X2656199Y1905559D1*
X2648357Y1899354D1*
X2640278Y1893463D1*
X2631974Y1887892D1*
X2623458Y1882651D1*
X2614744Y1877748D1*
X2605844Y1873189D1*
X2596772Y1868983D1*
X2587542Y1865136D1*
X2578169Y1861654D1*
X2568667Y1858541D1*
X2559050Y1855803D1*
X2549332Y1853445D1*
X2539530Y1851469D1*
X2529657Y1849877D1*
X2519731Y1848675D1*
X2509765Y1847862D1*
X2499774Y1847441D1*
X2489776Y1847411D1*
X2479782Y1847773D1*
X2469811Y1848526D1*
X2459878Y1849669D1*
X2449996Y1851202D1*
X2440182Y1853119D1*
X2430451Y1855420D1*
X2420819Y1858101D1*
X2411298Y1861157D1*
X2401903Y1864584D1*
X2392651Y1868375D1*
X2383554Y1872528D1*
X2374627Y1877033D1*
X2365883Y1881885D1*
X2357337Y1887075D1*
X2349000Y1892596D1*
X2340886Y1898440D1*
X2333008Y1904597D1*
X2325375Y1911058D1*
X2318004Y1917814D1*
X2310902Y1924853D1*
X2304080Y1932164D1*
X2297551Y1939738D1*
X2291324Y1947562D1*
X2285408Y1955623D1*
X2279812Y1963911D1*
X2274546Y1972411D1*
X2269617Y1981110D1*
X2265033Y1989996D1*
X2260799Y1999056D1*
X2256925Y2008274D1*
X2253415Y2017636D1*
X2250273Y2027130D1*
X2247507Y2036739D1*
X2245119Y2046449D1*
X2243114Y2056245D1*
X2241493Y2066113D1*
X2240261Y2076035D1*
X2239419Y2086000D1*
X2238967Y2095990D1*
X2238908Y2105988D1*
X2239240Y2115982D1*
X2239965Y2125955D1*
X2241079Y2135892D1*
X2242581Y2145778D1*
X2244470Y2155597D1*
X2246741Y2165335D1*
X2249394Y2174976D1*
X2252421Y2184507D1*
X2255820Y2193911D1*
X2259584Y2203175D1*
X2263709Y2212283D1*
X2268188Y2221223D1*
X2273013Y2229982D1*
X2278178Y2238543D1*
X2283675Y2246896D1*
X2289495Y2255029D1*
X2295627Y2262925D1*
X2302067Y2270576D1*
X2308799Y2277969D1*
X2315818Y2285092D1*
X2323109Y2291934D1*
X2330663Y2298486D1*
X2338469Y2304736D1*
X2346512Y2310676D1*
X2354782Y2316297D1*
X2363266Y2321588D1*
X2371953Y2326543D1*
X2380825Y2331155D1*
X2389871Y2335415D1*
X2399077Y2339316D1*
X2408430Y2342854D1*
X2417915Y2346024D1*
X2427516Y2348819D1*
X2437218Y2351235D1*
X2447008Y2353270D1*
X2456870Y2354920D1*
X2466790Y2356181D1*
X2476752Y2357052D1*
X2486739Y2357534D1*
X2496738Y2357623D1*
X2506732Y2357320D1*
X2516709Y2356626D1*
X2526648Y2355542D1*
X2536539Y2354070D1*
X2546364Y2352210D1*
X2556108Y2349967D1*
X2565757Y2347344D1*
X2575297Y2344344D1*
X2584710Y2340974D1*
X2593986Y2337236D1*
X2603106Y2333139D1*
X2612060Y2328686D1*
X2620832Y2323887D1*
X2629409Y2318748D1*
X2637780Y2313277D1*
X2645928Y2307482D1*
X2653844Y2301371D1*
X2661513Y2294955D1*
X2668927Y2288244D1*
X2676070Y2281248D1*
X2682934Y2273976D1*
X2689508Y2266442D1*
X2695782Y2258655D1*
X2701745Y2250629D1*
X2707390Y2242375D1*
X2712707Y2233907D1*
X2717688Y2225236D1*
X2722325Y2216378D1*
X2726613Y2207344D1*
X2730542Y2198148D1*
X2734108Y2188807D1*
X2737306Y2179332D1*
X2740129Y2169740D1*
X2742575Y2160045D1*
X2744638Y2150260D1*
X2746316Y2140403D1*
X2747608Y2130487D1*
X2748509Y2120529D1*
X2749021Y2110542D1*
X2749098Y2097507D1*
X3449098D2*
X3448706Y2087516D1*
X3447923Y2077546D1*
X3446751Y2067617D1*
X3445189Y2057740D1*
X3443241Y2047932D1*
X3440912Y2038207D1*
X3438202Y2028583D1*
X3435118Y2019071D1*
X3431664Y2009686D1*
X3427844Y2000446D1*
X3423665Y1991361D1*
X3419133Y1982448D1*
X3414256Y1973719D1*
X3409039Y1965188D1*
X3403493Y1956867D1*
X3397626Y1948770D1*
X3391445Y1940909D1*
X3384962Y1933298D1*
X3378184Y1925945D1*
X3371125Y1918865D1*
X3363793Y1912066D1*
X3356199Y1905559D1*
X3348357Y1899354D1*
X3340278Y1893463D1*
X3331974Y1887892D1*
X3323458Y1882651D1*
X3314744Y1877748D1*
X3305844Y1873189D1*
X3296772Y1868983D1*
X3287542Y1865136D1*
X3278169Y1861654D1*
X3268667Y1858541D1*
X3259050Y1855803D1*
X3249332Y1853445D1*
X3239530Y1851469D1*
X3229657Y1849877D1*
X3219731Y1848675D1*
X3209765Y1847862D1*
X3199774Y1847441D1*
X3189776Y1847411D1*
X3179782Y1847773D1*
X3169811Y1848526D1*
X3159878Y1849669D1*
X3149996Y1851202D1*
X3140182Y1853119D1*
X3130451Y1855420D1*
X3120819Y1858101D1*
X3111298Y1861157D1*
X3101903Y1864584D1*
X3092651Y1868375D1*
X3083554Y1872528D1*
X3074627Y1877033D1*
X3065883Y1881885D1*
X3057337Y1887075D1*
X3049000Y1892596D1*
X3040886Y1898440D1*
X3033008Y1904597D1*
X3025375Y1911058D1*
X3018004Y1917814D1*
X3010902Y1924853D1*
X3004080Y1932164D1*
X2997551Y1939738D1*
X2991324Y1947562D1*
X2985408Y1955623D1*
X2979812Y1963911D1*
X2974546Y1972411D1*
X2969617Y1981110D1*
X2965033Y1989996D1*
X2960799Y1999056D1*
X2956925Y2008274D1*
X2953415Y2017636D1*
X2950273Y2027130D1*
X2947507Y2036739D1*
X2945119Y2046449D1*
X2943114Y2056245D1*
X2941493Y2066113D1*
X2940261Y2076035D1*
X2939419Y2086000D1*
X2938967Y2095990D1*
X2938908Y2105988D1*
X2939240Y2115982D1*
X2939965Y2125955D1*
X2941079Y2135892D1*
X2942581Y2145778D1*
X2944470Y2155597D1*
X2946741Y2165335D1*
X2949394Y2174976D1*
X2952421Y2184507D1*
X2955820Y2193911D1*
X2959584Y2203175D1*
X2963709Y2212283D1*
X2968188Y2221223D1*
X2973013Y2229982D1*
X2978178Y2238543D1*
X2983675Y2246896D1*
X2989495Y2255029D1*
X2995627Y2262925D1*
X3002067Y2270576D1*
X3008799Y2277969D1*
X3015818Y2285092D1*
X3023109Y2291934D1*
X3030663Y2298486D1*
X3038469Y2304736D1*
X3046512Y2310676D1*
X3054782Y2316297D1*
X3063266Y2321588D1*
X3071953Y2326543D1*
X3080825Y2331155D1*
X3089871Y2335415D1*
X3099077Y2339316D1*
X3108430Y2342854D1*
X3117915Y2346024D1*
X3127516Y2348819D1*
X3137218Y2351235D1*
X3147008Y2353270D1*
X3156870Y2354920D1*
X3166790Y2356181D1*
X3176752Y2357052D1*
X3186739Y2357534D1*
X3196738Y2357623D1*
X3206732Y2357320D1*
X3216709Y2356626D1*
X3226648Y2355542D1*
X3236539Y2354070D1*
X3246364Y2352210D1*
X3256108Y2349967D1*
X3265757Y2347344D1*
X3275297Y2344344D1*
X3284710Y2340974D1*
X3293986Y2337236D1*
X3303106Y2333139D1*
X3312060Y2328686D1*
X3320832Y2323887D1*
X3329409Y2318748D1*
X3337780Y2313277D1*
X3345928Y2307482D1*
X3353844Y2301371D1*
X3361513Y2294955D1*
X3368927Y2288244D1*
X3376070Y2281248D1*
X3382934Y2273976D1*
X3389508Y2266442D1*
X3395782Y2258655D1*
X3401745Y2250629D1*
X3407390Y2242375D1*
X3412707Y2233907D1*
X3417688Y2225236D1*
X3422325Y2216378D1*
X3426613Y2207344D1*
X3430542Y2198148D1*
X3434108Y2188807D1*
X3437306Y2179332D1*
X3440129Y2169740D1*
X3442575Y2160045D1*
X3444638Y2150260D1*
X3446316Y2140403D1*
X3447608Y2130487D1*
X3448509Y2120529D1*
X3449021Y2110542D1*
X3449098Y2097507D1*
X4149098D2*
X4148706Y2087516D1*
X4147923Y2077546D1*
X4146751Y2067617D1*
X4145189Y2057740D1*
X4143241Y2047932D1*
X4140912Y2038207D1*
X4138202Y2028583D1*
X4135118Y2019071D1*
X4131664Y2009686D1*
X4127844Y2000446D1*
X4123665Y1991361D1*
X4119133Y1982448D1*
X4114256Y1973719D1*
X4109039Y1965188D1*
X4103493Y1956867D1*
X4097626Y1948770D1*
X4091445Y1940909D1*
X4084962Y1933298D1*
X4078184Y1925945D1*
X4071125Y1918865D1*
X4063793Y1912066D1*
X4056199Y1905559D1*
X4048357Y1899354D1*
X4040278Y1893463D1*
X4031974Y1887892D1*
X4023458Y1882651D1*
X4014744Y1877748D1*
X4005844Y1873189D1*
X3996772Y1868983D1*
X3987542Y1865136D1*
X3978169Y1861654D1*
X3968667Y1858541D1*
X3959050Y1855803D1*
X3949332Y1853445D1*
X3939530Y1851469D1*
X3929657Y1849877D1*
X3919731Y1848675D1*
X3909765Y1847862D1*
X3899774Y1847441D1*
X3889776Y1847411D1*
X3879782Y1847773D1*
X3869811Y1848526D1*
X3859878Y1849669D1*
X3849996Y1851202D1*
X3840182Y1853119D1*
X3830451Y1855420D1*
X3820819Y1858101D1*
X3811298Y1861157D1*
X3801903Y1864584D1*
X3792651Y1868375D1*
X3783554Y1872528D1*
X3774627Y1877033D1*
X3765883Y1881885D1*
X3757337Y1887075D1*
X3749000Y1892596D1*
X3740886Y1898440D1*
X3733008Y1904597D1*
X3725375Y1911058D1*
X3718004Y1917814D1*
X3710902Y1924853D1*
X3704080Y1932164D1*
X3697551Y1939738D1*
X3691324Y1947562D1*
X3685408Y1955623D1*
X3679812Y1963911D1*
X3674546Y1972411D1*
X3669617Y1981110D1*
X3665033Y1989996D1*
X3660799Y1999056D1*
X3656925Y2008274D1*
X3653415Y2017636D1*
X3650273Y2027130D1*
X3647507Y2036739D1*
X3645119Y2046449D1*
X3643114Y2056245D1*
X3641493Y2066113D1*
X3640261Y2076035D1*
X3639419Y2086000D1*
X3638967Y2095990D1*
X3638908Y2105988D1*
X3639240Y2115982D1*
X3639965Y2125955D1*
X3641079Y2135892D1*
X3642581Y2145778D1*
X3644470Y2155597D1*
X3646741Y2165335D1*
X3649394Y2174976D1*
X3652421Y2184507D1*
X3655820Y2193911D1*
X3659584Y2203175D1*
X3663709Y2212283D1*
X3668188Y2221223D1*
X3673013Y2229982D1*
X3678178Y2238543D1*
X3683675Y2246896D1*
X3689495Y2255029D1*
X3695627Y2262925D1*
X3702067Y2270576D1*
X3708799Y2277969D1*
X3715818Y2285092D1*
X3723109Y2291934D1*
X3730663Y2298486D1*
X3738469Y2304736D1*
X3746512Y2310676D1*
X3754782Y2316297D1*
X3763266Y2321588D1*
X3771953Y2326543D1*
X3780825Y2331155D1*
X3789871Y2335415D1*
X3799077Y2339316D1*
X3808430Y2342854D1*
X3817915Y2346024D1*
X3827516Y2348819D1*
X3837218Y2351235D1*
X3847008Y2353270D1*
X3856870Y2354920D1*
X3866790Y2356181D1*
X3876752Y2357052D1*
X3886739Y2357534D1*
X3896738Y2357623D1*
X3906732Y2357320D1*
X3916709Y2356626D1*
X3926648Y2355542D1*
X3936539Y2354070D1*
X3946364Y2352210D1*
X3956108Y2349967D1*
X3965757Y2347344D1*
X3975297Y2344344D1*
X3984710Y2340974D1*
X3993986Y2337236D1*
X4003106Y2333139D1*
X4012060Y2328686D1*
X4020832Y2323887D1*
X4029409Y2318748D1*
X4037780Y2313277D1*
X4045928Y2307482D1*
X4053844Y2301371D1*
X4061513Y2294955D1*
X4068927Y2288244D1*
X4076070Y2281248D1*
X4082934Y2273976D1*
X4089508Y2266442D1*
X4095782Y2258655D1*
X4101745Y2250629D1*
X4107390Y2242375D1*
X4112707Y2233907D1*
X4117688Y2225236D1*
X4122325Y2216378D1*
X4126613Y2207344D1*
X4130542Y2198148D1*
X4134108Y2188807D1*
X4137306Y2179332D1*
X4140129Y2169740D1*
X4142575Y2160045D1*
X4144638Y2150260D1*
X4146316Y2140403D1*
X4147608Y2130487D1*
X4148509Y2120529D1*
X4149021Y2110542D1*
X4149098Y2097507D1*
X1149098Y3297507D2*
X1148706Y3287516D1*
X1147923Y3277546D1*
X1146751Y3267617D1*
X1145189Y3257740D1*
X1143241Y3247932D1*
X1140912Y3238207D1*
X1138202Y3228583D1*
X1135118Y3219071D1*
X1131664Y3209686D1*
X1127844Y3200446D1*
X1123665Y3191361D1*
X1119133Y3182448D1*
X1114256Y3173719D1*
X1109039Y3165188D1*
X1103493Y3156867D1*
X1097626Y3148770D1*
X1091445Y3140909D1*
X1084962Y3133298D1*
X1078184Y3125945D1*
X1071125Y3118865D1*
X1063793Y3112066D1*
X1056199Y3105559D1*
X1048357Y3099354D1*
X1040278Y3093463D1*
X1031974Y3087892D1*
X1023458Y3082651D1*
X1014744Y3077748D1*
X1005844Y3073189D1*
X996772Y3068983D1*
X987542Y3065136D1*
X978169Y3061654D1*
X968667Y3058541D1*
X959050Y3055803D1*
X949332Y3053445D1*
X939530Y3051469D1*
X929657Y3049877D1*
X919731Y3048675D1*
X909765Y3047862D1*
X899774Y3047441D1*
X889776Y3047411D1*
X879782Y3047773D1*
X869811Y3048526D1*
X859878Y3049669D1*
X849996Y3051202D1*
X840182Y3053119D1*
X830451Y3055420D1*
X820819Y3058101D1*
X811298Y3061157D1*
X801903Y3064584D1*
X792651Y3068375D1*
X783554Y3072528D1*
X774627Y3077033D1*
X765883Y3081885D1*
X757337Y3087075D1*
X749000Y3092596D1*
X740886Y3098440D1*
X733008Y3104597D1*
X725375Y3111058D1*
X718004Y3117814D1*
X710902Y3124853D1*
X704080Y3132164D1*
X697551Y3139738D1*
X691324Y3147562D1*
X685408Y3155623D1*
X679812Y3163911D1*
X674546Y3172411D1*
X669617Y3181110D1*
X665033Y3189996D1*
X660799Y3199056D1*
X656925Y3208274D1*
X653415Y3217636D1*
X650273Y3227130D1*
X647507Y3236739D1*
X645119Y3246449D1*
X643114Y3256245D1*
X641493Y3266113D1*
X640261Y3276035D1*
X639419Y3286000D1*
X638967Y3295990D1*
X638908Y3305988D1*
X639240Y3315982D1*
X639965Y3325955D1*
X641079Y3335892D1*
X642581Y3345778D1*
X644470Y3355597D1*
X646741Y3365335D1*
X649394Y3374976D1*
X652421Y3384507D1*
X655820Y3393911D1*
X659584Y3403175D1*
X663709Y3412283D1*
X668188Y3421223D1*
X673013Y3429982D1*
X678178Y3438543D1*
X683675Y3446896D1*
X689495Y3455029D1*
X695627Y3462925D1*
X702067Y3470576D1*
X708799Y3477969D1*
X715818Y3485092D1*
X723109Y3491934D1*
X730663Y3498486D1*
X738469Y3504736D1*
X746512Y3510676D1*
X754782Y3516297D1*
X763266Y3521588D1*
X771953Y3526543D1*
X780825Y3531155D1*
X789871Y3535415D1*
X799077Y3539316D1*
X808430Y3542854D1*
X817915Y3546024D1*
X827516Y3548819D1*
X837218Y3551235D1*
X847008Y3553270D1*
X856870Y3554920D1*
X866790Y3556181D1*
X876752Y3557052D1*
X886739Y3557534D1*
X896738Y3557623D1*
X906732Y3557320D1*
X916709Y3556626D1*
X926648Y3555542D1*
X936539Y3554070D1*
X946364Y3552210D1*
X956108Y3549967D1*
X965757Y3547344D1*
X975297Y3544344D1*
X984710Y3540974D1*
X993986Y3537236D1*
X1003106Y3533139D1*
X1012060Y3528686D1*
X1020832Y3523887D1*
X1029409Y3518748D1*
X1037780Y3513277D1*
X1045928Y3507482D1*
X1053844Y3501371D1*
X1061513Y3494955D1*
X1068927Y3488244D1*
X1076070Y3481248D1*
X1082934Y3473976D1*
X1089508Y3466442D1*
X1095782Y3458655D1*
X1101745Y3450629D1*
X1107390Y3442375D1*
X1112707Y3433907D1*
X1117688Y3425236D1*
X1122325Y3416378D1*
X1126613Y3407344D1*
X1130542Y3398148D1*
X1134108Y3388807D1*
X1137306Y3379332D1*
X1140129Y3369740D1*
X1142575Y3360045D1*
X1144638Y3350260D1*
X1146316Y3340403D1*
X1147608Y3330487D1*
X1148509Y3320529D1*
X1149021Y3310542D1*
X1149098Y3297507D1*
Y2097507D2*
X1148706Y2087516D1*
X1147923Y2077546D1*
X1146751Y2067617D1*
X1145189Y2057740D1*
X1143241Y2047932D1*
X1140912Y2038207D1*
X1138202Y2028583D1*
X1135118Y2019071D1*
X1131664Y2009686D1*
X1127844Y2000446D1*
X1123665Y1991361D1*
X1119133Y1982448D1*
X1114256Y1973719D1*
X1109039Y1965188D1*
X1103493Y1956867D1*
X1097626Y1948770D1*
X1091445Y1940909D1*
X1084962Y1933298D1*
X1078184Y1925945D1*
X1071125Y1918865D1*
X1063793Y1912066D1*
X1056199Y1905559D1*
X1048357Y1899354D1*
X1040278Y1893463D1*
X1031974Y1887892D1*
X1023458Y1882651D1*
X1014744Y1877748D1*
X1005844Y1873189D1*
X996772Y1868983D1*
X987542Y1865136D1*
X978169Y1861654D1*
X968667Y1858541D1*
X959050Y1855803D1*
X949332Y1853445D1*
X939530Y1851469D1*
X929657Y1849877D1*
X919731Y1848675D1*
X909765Y1847862D1*
X899774Y1847441D1*
X889776Y1847411D1*
X879782Y1847773D1*
X869811Y1848526D1*
X859878Y1849669D1*
X849996Y1851202D1*
X840182Y1853119D1*
X830451Y1855420D1*
X820819Y1858101D1*
X811298Y1861157D1*
X801903Y1864584D1*
X792651Y1868375D1*
X783554Y1872528D1*
X774627Y1877033D1*
X765883Y1881885D1*
X757337Y1887075D1*
X749000Y1892596D1*
X740886Y1898440D1*
X733008Y1904597D1*
X725375Y1911058D1*
X718004Y1917814D1*
X710902Y1924853D1*
X704080Y1932164D1*
X697551Y1939738D1*
X691324Y1947562D1*
X685408Y1955623D1*
X679812Y1963911D1*
X674546Y1972411D1*
X669617Y1981110D1*
X665033Y1989996D1*
X660799Y1999056D1*
X656925Y2008274D1*
X653415Y2017636D1*
X650273Y2027130D1*
X647507Y2036739D1*
X645119Y2046449D1*
X643114Y2056245D1*
X641493Y2066113D1*
X640261Y2076035D1*
X639419Y2086000D1*
X638967Y2095990D1*
X638908Y2105988D1*
X639240Y2115982D1*
X639965Y2125955D1*
X641079Y2135892D1*
X642581Y2145778D1*
X644470Y2155597D1*
X646741Y2165335D1*
X649394Y2174976D1*
X652421Y2184507D1*
X655820Y2193911D1*
X659584Y2203175D1*
X663709Y2212283D1*
X668188Y2221223D1*
X673013Y2229982D1*
X678178Y2238543D1*
X683675Y2246896D1*
X689495Y2255029D1*
X695627Y2262925D1*
X702067Y2270576D1*
X708799Y2277969D1*
X715818Y2285092D1*
X723109Y2291934D1*
X730663Y2298486D1*
X738469Y2304736D1*
X746512Y2310676D1*
X754782Y2316297D1*
X763266Y2321588D1*
X771953Y2326543D1*
X780825Y2331155D1*
X789871Y2335415D1*
X799077Y2339316D1*
X808430Y2342854D1*
X817915Y2346024D1*
X827516Y2348819D1*
X837218Y2351235D1*
X847008Y2353270D1*
X856870Y2354920D1*
X866790Y2356181D1*
X876752Y2357052D1*
X886739Y2357534D1*
X896738Y2357623D1*
X906732Y2357320D1*
X916709Y2356626D1*
X926648Y2355542D1*
X936539Y2354070D1*
X946364Y2352210D1*
X956108Y2349967D1*
X965757Y2347344D1*
X975297Y2344344D1*
X984710Y2340974D1*
X993986Y2337236D1*
X1003106Y2333139D1*
X1012060Y2328686D1*
X1020832Y2323887D1*
X1029409Y2318748D1*
X1037780Y2313277D1*
X1045928Y2307482D1*
X1053844Y2301371D1*
X1061513Y2294955D1*
X1068927Y2288244D1*
X1076070Y2281248D1*
X1082934Y2273976D1*
X1089508Y2266442D1*
X1095782Y2258655D1*
X1101745Y2250629D1*
X1107390Y2242375D1*
X1112707Y2233907D1*
X1117688Y2225236D1*
X1122325Y2216378D1*
X1126613Y2207344D1*
X1130542Y2198148D1*
X1134108Y2188807D1*
X1137306Y2179332D1*
X1140129Y2169740D1*
X1142575Y2160045D1*
X1144638Y2150260D1*
X1146316Y2140403D1*
X1147608Y2130487D1*
X1148509Y2120529D1*
X1149021Y2110542D1*
X1149098Y2097507D1*
X1074077Y4047507D2*
X1073522Y4037524D1*
X1072415Y4027587D1*
X1070757Y4017726D1*
X1068555Y4007974D1*
X1065815Y3998357D1*
X1062546Y3988908D1*
X1058757Y3979655D1*
X1054462Y3970626D1*
X1049671Y3961849D1*
X1044402Y3953353D1*
X1038668Y3945161D1*
X1032488Y3937301D1*
X1025883Y3929794D1*
X1018871Y3922667D1*
X1011474Y3915938D1*
X1003715Y3909631D1*
X995619Y3903765D1*
X987209Y3898357D1*
X978512Y3893423D1*
X969555Y3888979D1*
X960365Y3885041D1*
X950971Y3881617D1*
X941402Y3878719D1*
X931685Y3876358D1*
X921853Y3874539D1*
X911936Y3873269D1*
X901963Y3872551D1*
X891966Y3872387D1*
X881974Y3872778D1*
X872020Y3873723D1*
X862134Y3875219D1*
X852346Y3877261D1*
X842686Y3879844D1*
X833185Y3882958D1*
X823871Y3886594D1*
X814773Y3890741D1*
X805920Y3895387D1*
X797337Y3900518D1*
X789052Y3906117D1*
X781092Y3912165D1*
X773479Y3918648D1*
X766238Y3925542D1*
X759390Y3932828D1*
X752957Y3940482D1*
X746958Y3948482D1*
X741412Y3956802D1*
X736337Y3965416D1*
X731748Y3974301D1*
X727657Y3983424D1*
X724081Y3992761D1*
X721028Y4002282D1*
X718508Y4011958D1*
X716528Y4021759D1*
X715096Y4031655D1*
X714214Y4041614D1*
X713887Y4051608D1*
X714114Y4061604D1*
X714896Y4071572D1*
X716230Y4081482D1*
X718112Y4091302D1*
X720535Y4101001D1*
X723493Y4110552D1*
X726976Y4119925D1*
X730975Y4129089D1*
X735475Y4138018D1*
X740465Y4146684D1*
X745927Y4155059D1*
X751845Y4163117D1*
X758202Y4170836D1*
X764976Y4178189D1*
X772148Y4185155D1*
X779697Y4191713D1*
X787597Y4197841D1*
X795825Y4203522D1*
X804356Y4208739D1*
X813163Y4213472D1*
X822219Y4217711D1*
X831496Y4221440D1*
X840966Y4224648D1*
X850598Y4227327D1*
X857554Y4228891D1*
X850504Y4231802D1*
X841612Y4236367D1*
X833193Y4241756D1*
X825323Y4247921D1*
X818075Y4254804D1*
X811513Y4262345D1*
X805698Y4270476D1*
X800680Y4279122D1*
X796507Y4288205D1*
X793215Y4297644D1*
X790835Y4307353D1*
X789387Y4317243D1*
X788885Y4327227D1*
X789333Y4337213D1*
X790728Y4347112D1*
X793058Y4356833D1*
X796299Y4366289D1*
X800424Y4375394D1*
X805395Y4384067D1*
X811168Y4392228D1*
X817689Y4399803D1*
X824902Y4406726D1*
X832738Y4412932D1*
X841127Y4418366D1*
X849996Y4422978D1*
X859262Y4426727D1*
X868844Y4429580D1*
X878652Y4431509D1*
X888598Y4432499D1*
X898594Y4432538D1*
X908550Y4431629D1*
X918373Y4429777D1*
X927976Y4427001D1*
X937273Y4423327D1*
X946177Y4418785D1*
X954610Y4413419D1*
X962496Y4407274D1*
X969762Y4400411D1*
X976345Y4392886D1*
X982182Y4384772D1*
X987222Y4376139D1*
X991420Y4367067D1*
X994736Y4357636D1*
X997143Y4347934D1*
X998617Y4338047D1*
X999146Y4328066D1*
X999028Y4322508D1*
X998079Y4312558D1*
X996189Y4302741D1*
X993374Y4293150D1*
X989663Y4283869D1*
X985085Y4274982D1*
X979685Y4266570D1*
X973510Y4258709D1*
X966617Y4251470D1*
X959067Y4244917D1*
X950929Y4239113D1*
X942276Y4234106D1*
X933188Y4229945D1*
X930425Y4228912D1*
X939664Y4226757D1*
X949262Y4223957D1*
X958690Y4220627D1*
X967919Y4216780D1*
X976920Y4212425D1*
X985665Y4207579D1*
X994129Y4202255D1*
X1002283Y4196470D1*
X1010105Y4190240D1*
X1017568Y4183587D1*
X1024651Y4176529D1*
X1031332Y4169089D1*
X1037589Y4161290D1*
X1043404Y4153156D1*
X1048759Y4144713D1*
X1053636Y4135984D1*
X1058022Y4126999D1*
X1061903Y4117783D1*
X1065266Y4108367D1*
X1068102Y4098780D1*
X1070402Y4089049D1*
X1072157Y4079206D1*
X1073365Y4069280D1*
X1074018Y4059303D1*
X1074077Y4047507D1*
Y2697507D2*
X1073522Y2687524D1*
X1072415Y2677587D1*
X1070757Y2667726D1*
X1068555Y2657974D1*
X1065815Y2648357D1*
X1062546Y2638908D1*
X1058757Y2629655D1*
X1054462Y2620626D1*
X1049671Y2611849D1*
X1044402Y2603353D1*
X1038668Y2595161D1*
X1032488Y2587301D1*
X1025883Y2579794D1*
X1018871Y2572667D1*
X1011474Y2565938D1*
X1003715Y2559631D1*
X995619Y2553765D1*
X987209Y2548357D1*
X978512Y2543423D1*
X969555Y2538979D1*
X960365Y2535041D1*
X950971Y2531617D1*
X941402Y2528719D1*
X931685Y2526358D1*
X921853Y2524539D1*
X911936Y2523269D1*
X901963Y2522551D1*
X891966Y2522387D1*
X881974Y2522778D1*
X872020Y2523723D1*
X862134Y2525219D1*
X852346Y2527261D1*
X842686Y2529844D1*
X833185Y2532958D1*
X823871Y2536594D1*
X814773Y2540741D1*
X805920Y2545387D1*
X797337Y2550518D1*
X789052Y2556117D1*
X781092Y2562165D1*
X773479Y2568648D1*
X766238Y2575542D1*
X759390Y2582828D1*
X752957Y2590482D1*
X746958Y2598482D1*
X741412Y2606802D1*
X736337Y2615416D1*
X731748Y2624301D1*
X727657Y2633424D1*
X724081Y2642761D1*
X721028Y2652282D1*
X718508Y2661958D1*
X716528Y2671759D1*
X715096Y2681655D1*
X714214Y2691614D1*
X713887Y2701608D1*
X714114Y2711604D1*
X714896Y2721572D1*
X716230Y2731482D1*
X718112Y2741302D1*
X720535Y2751001D1*
X723493Y2760552D1*
X726976Y2769925D1*
X730975Y2779089D1*
X735475Y2788018D1*
X740465Y2796684D1*
X745927Y2805059D1*
X751845Y2813117D1*
X758202Y2820836D1*
X764976Y2828189D1*
X772148Y2835155D1*
X779697Y2841713D1*
X787597Y2847841D1*
X795825Y2853522D1*
X804356Y2858739D1*
X813163Y2863472D1*
X822219Y2867711D1*
X831496Y2871440D1*
X840966Y2874648D1*
X850598Y2877327D1*
X860366Y2879467D1*
X870238Y2881062D1*
X880181Y2882106D1*
X890168Y2882597D1*
X900167Y2882533D1*
X910146Y2881915D1*
X920076Y2880743D1*
X929925Y2879022D1*
X939664Y2876757D1*
X949262Y2873957D1*
X958690Y2870627D1*
X967919Y2866780D1*
X976920Y2862425D1*
X985665Y2857579D1*
X994129Y2852255D1*
X1002283Y2846470D1*
X1010105Y2840240D1*
X1017568Y2833587D1*
X1024651Y2826529D1*
X1031332Y2819089D1*
X1037589Y2811290D1*
X1043404Y2803156D1*
X1048759Y2794713D1*
X1053636Y2785984D1*
X1058022Y2776999D1*
X1061903Y2767783D1*
X1065266Y2758367D1*
X1068102Y2748780D1*
X1070402Y2739049D1*
X1072157Y2729206D1*
X1073365Y2719280D1*
X1074018Y2709303D1*
X1074077Y2697507D1*
X1974077Y4047507D2*
X1973522Y4037524D1*
X1972415Y4027587D1*
X1970757Y4017726D1*
X1968555Y4007974D1*
X1965815Y3998357D1*
X1962546Y3988908D1*
X1958757Y3979655D1*
X1954462Y3970626D1*
X1949671Y3961849D1*
X1944402Y3953353D1*
X1938668Y3945161D1*
X1932488Y3937301D1*
X1925883Y3929794D1*
X1918871Y3922667D1*
X1911474Y3915938D1*
X1903715Y3909631D1*
X1895619Y3903765D1*
X1887209Y3898357D1*
X1878512Y3893423D1*
X1869555Y3888979D1*
X1860365Y3885041D1*
X1850971Y3881617D1*
X1841402Y3878719D1*
X1831685Y3876358D1*
X1821853Y3874539D1*
X1811936Y3873269D1*
X1801963Y3872551D1*
X1791966Y3872387D1*
X1781974Y3872778D1*
X1772020Y3873723D1*
X1762134Y3875219D1*
X1752346Y3877261D1*
X1742686Y3879844D1*
X1733185Y3882958D1*
X1723871Y3886594D1*
X1714773Y3890741D1*
X1705920Y3895387D1*
X1697337Y3900518D1*
X1689052Y3906117D1*
X1681092Y3912165D1*
X1673479Y3918648D1*
X1666238Y3925542D1*
X1659390Y3932828D1*
X1652957Y3940482D1*
X1646958Y3948482D1*
X1641412Y3956802D1*
X1636337Y3965416D1*
X1631748Y3974301D1*
X1627657Y3983424D1*
X1624081Y3992761D1*
X1621028Y4002282D1*
X1618508Y4011958D1*
X1616528Y4021759D1*
X1615096Y4031655D1*
X1614214Y4041614D1*
X1613887Y4051608D1*
X1614114Y4061604D1*
X1614896Y4071572D1*
X1616230Y4081482D1*
X1618112Y4091302D1*
X1620535Y4101001D1*
X1623493Y4110552D1*
X1626976Y4119925D1*
X1630975Y4129089D1*
X1635475Y4138018D1*
X1640465Y4146684D1*
X1645927Y4155059D1*
X1651845Y4163117D1*
X1658202Y4170836D1*
X1664976Y4178189D1*
X1672148Y4185155D1*
X1679697Y4191713D1*
X1687597Y4197841D1*
X1695825Y4203522D1*
X1704356Y4208739D1*
X1713163Y4213472D1*
X1722219Y4217711D1*
X1731496Y4221440D1*
X1740966Y4224648D1*
X1750598Y4227327D1*
X1757554Y4228891D1*
X1750504Y4231802D1*
X1741612Y4236367D1*
X1733193Y4241756D1*
X1725323Y4247921D1*
X1718075Y4254804D1*
X1711513Y4262345D1*
X1705698Y4270476D1*
X1700680Y4279122D1*
X1696507Y4288205D1*
X1693215Y4297644D1*
X1690835Y4307353D1*
X1689387Y4317243D1*
X1688885Y4327227D1*
X1689333Y4337213D1*
X1690728Y4347112D1*
X1693058Y4356833D1*
X1696299Y4366289D1*
X1700424Y4375394D1*
X1705395Y4384067D1*
X1711168Y4392228D1*
X1717689Y4399803D1*
X1724902Y4406726D1*
X1732738Y4412932D1*
X1741127Y4418366D1*
X1749996Y4422978D1*
X1759262Y4426727D1*
X1768844Y4429580D1*
X1778652Y4431509D1*
X1788598Y4432499D1*
X1798594Y4432538D1*
X1808550Y4431629D1*
X1818373Y4429777D1*
X1827976Y4427001D1*
X1837273Y4423327D1*
X1846177Y4418785D1*
X1854610Y4413419D1*
X1862496Y4407274D1*
X1869762Y4400411D1*
X1876345Y4392886D1*
X1882182Y4384772D1*
X1887222Y4376139D1*
X1891420Y4367067D1*
X1894736Y4357636D1*
X1897143Y4347934D1*
X1898617Y4338047D1*
X1899146Y4328066D1*
X1899028Y4322508D1*
X1898079Y4312558D1*
X1896189Y4302741D1*
X1893374Y4293150D1*
X1889663Y4283869D1*
X1885085Y4274982D1*
X1879685Y4266570D1*
X1873510Y4258709D1*
X1866617Y4251470D1*
X1859067Y4244917D1*
X1850929Y4239113D1*
X1842276Y4234106D1*
X1833188Y4229945D1*
X1830425Y4228912D1*
X1839664Y4226757D1*
X1849262Y4223957D1*
X1858690Y4220627D1*
X1867919Y4216780D1*
X1876920Y4212425D1*
X1885665Y4207579D1*
X1894129Y4202255D1*
X1902283Y4196470D1*
X1910105Y4190240D1*
X1917568Y4183587D1*
X1924651Y4176529D1*
X1931332Y4169089D1*
X1937589Y4161290D1*
X1943404Y4153156D1*
X1948759Y4144713D1*
X1953636Y4135984D1*
X1958022Y4126999D1*
X1961903Y4117783D1*
X1965266Y4108367D1*
X1968102Y4098780D1*
X1970402Y4089049D1*
X1972157Y4079206D1*
X1973365Y4069280D1*
X1974018Y4059303D1*
X1974077Y4047507D1*
X2874077D2*
X2873522Y4037524D1*
X2872415Y4027587D1*
X2870757Y4017726D1*
X2868555Y4007974D1*
X2865815Y3998357D1*
X2862546Y3988908D1*
X2858757Y3979655D1*
X2854462Y3970626D1*
X2849671Y3961849D1*
X2844402Y3953353D1*
X2838668Y3945161D1*
X2832488Y3937301D1*
X2825883Y3929794D1*
X2818871Y3922667D1*
X2811474Y3915938D1*
X2803715Y3909631D1*
X2795619Y3903765D1*
X2787209Y3898357D1*
X2778512Y3893423D1*
X2769555Y3888979D1*
X2760365Y3885041D1*
X2750971Y3881617D1*
X2741402Y3878719D1*
X2731685Y3876358D1*
X2721853Y3874539D1*
X2711936Y3873269D1*
X2701963Y3872551D1*
X2691966Y3872387D1*
X2681974Y3872778D1*
X2672020Y3873723D1*
X2662134Y3875219D1*
X2652346Y3877261D1*
X2642686Y3879844D1*
X2633185Y3882958D1*
X2623871Y3886594D1*
X2614773Y3890741D1*
X2605920Y3895387D1*
X2597337Y3900518D1*
X2589052Y3906117D1*
X2581092Y3912165D1*
X2573479Y3918648D1*
X2566238Y3925542D1*
X2559390Y3932828D1*
X2552957Y3940482D1*
X2546958Y3948482D1*
X2541412Y3956802D1*
X2536337Y3965416D1*
X2531748Y3974301D1*
X2527657Y3983424D1*
X2524081Y3992761D1*
X2521028Y4002282D1*
X2518508Y4011958D1*
X2516528Y4021759D1*
X2515096Y4031655D1*
X2514214Y4041614D1*
X2513887Y4051608D1*
X2514114Y4061604D1*
X2514896Y4071572D1*
X2516230Y4081482D1*
X2518112Y4091302D1*
X2520535Y4101001D1*
X2523493Y4110552D1*
X2526976Y4119925D1*
X2530975Y4129089D1*
X2535475Y4138018D1*
X2540465Y4146684D1*
X2545927Y4155059D1*
X2551845Y4163117D1*
X2558202Y4170836D1*
X2564976Y4178189D1*
X2572148Y4185155D1*
X2579697Y4191713D1*
X2587597Y4197841D1*
X2595825Y4203522D1*
X2604356Y4208739D1*
X2613163Y4213472D1*
X2622219Y4217711D1*
X2631496Y4221440D1*
X2640966Y4224648D1*
X2650598Y4227327D1*
X2657554Y4228891D1*
X2650504Y4231802D1*
X2641612Y4236367D1*
X2633193Y4241756D1*
X2625323Y4247921D1*
X2618075Y4254804D1*
X2611513Y4262345D1*
X2605698Y4270476D1*
X2600680Y4279122D1*
X2596507Y4288205D1*
X2593215Y4297644D1*
X2590835Y4307353D1*
X2589387Y4317243D1*
X2588885Y4327227D1*
X2589333Y4337213D1*
X2590728Y4347112D1*
X2593058Y4356833D1*
X2596299Y4366289D1*
X2600424Y4375394D1*
X2605395Y4384067D1*
X2611168Y4392228D1*
X2617689Y4399803D1*
X2624902Y4406726D1*
X2632738Y4412932D1*
X2641127Y4418366D1*
X2649996Y4422978D1*
X2659262Y4426727D1*
X2668844Y4429580D1*
X2678652Y4431509D1*
X2688598Y4432499D1*
X2698594Y4432538D1*
X2708550Y4431629D1*
X2718373Y4429777D1*
X2727976Y4427001D1*
X2737273Y4423327D1*
X2746177Y4418785D1*
X2754610Y4413419D1*
X2762496Y4407274D1*
X2769762Y4400411D1*
X2776345Y4392886D1*
X2782182Y4384772D1*
X2787222Y4376139D1*
X2791420Y4367067D1*
X2794736Y4357636D1*
X2797143Y4347934D1*
X2798617Y4338047D1*
X2799146Y4328066D1*
X2799028Y4322508D1*
X2798079Y4312558D1*
X2796189Y4302741D1*
X2793374Y4293150D1*
X2789663Y4283869D1*
X2785085Y4274982D1*
X2779685Y4266570D1*
X2773510Y4258709D1*
X2766617Y4251470D1*
X2759067Y4244917D1*
X2750929Y4239113D1*
X2742276Y4234106D1*
X2733188Y4229945D1*
X2730425Y4228912D1*
X2739664Y4226757D1*
X2749262Y4223957D1*
X2758690Y4220627D1*
X2767919Y4216780D1*
X2776920Y4212425D1*
X2785665Y4207579D1*
X2794129Y4202255D1*
X2802283Y4196470D1*
X2810105Y4190240D1*
X2817568Y4183587D1*
X2824651Y4176529D1*
X2831332Y4169089D1*
X2837589Y4161290D1*
X2843404Y4153156D1*
X2848759Y4144713D1*
X2853636Y4135984D1*
X2858022Y4126999D1*
X2861903Y4117783D1*
X2865266Y4108367D1*
X2868102Y4098780D1*
X2870402Y4089049D1*
X2872157Y4079206D1*
X2873365Y4069280D1*
X2874018Y4059303D1*
X2874077Y4047507D1*
X4224077D2*
X4223522Y4037524D1*
X4222415Y4027587D1*
X4220757Y4017726D1*
X4218555Y4007974D1*
X4215815Y3998357D1*
X4212546Y3988908D1*
X4208757Y3979655D1*
X4204462Y3970626D1*
X4199671Y3961849D1*
X4194402Y3953353D1*
X4188668Y3945161D1*
X4182488Y3937301D1*
X4175883Y3929794D1*
X4168871Y3922667D1*
X4161474Y3915938D1*
X4153715Y3909631D1*
X4145619Y3903765D1*
X4137209Y3898357D1*
X4128512Y3893423D1*
X4119555Y3888979D1*
X4110365Y3885041D1*
X4100971Y3881617D1*
X4091402Y3878719D1*
X4081685Y3876358D1*
X4071853Y3874539D1*
X4061936Y3873269D1*
X4051963Y3872551D1*
X4041966Y3872387D1*
X4031974Y3872778D1*
X4022020Y3873723D1*
X4012134Y3875219D1*
X4002346Y3877261D1*
X3992686Y3879844D1*
X3983185Y3882958D1*
X3973871Y3886594D1*
X3964773Y3890741D1*
X3955920Y3895387D1*
X3947337Y3900518D1*
X3939052Y3906117D1*
X3931092Y3912165D1*
X3923479Y3918648D1*
X3916238Y3925542D1*
X3909390Y3932828D1*
X3902957Y3940482D1*
X3896958Y3948482D1*
X3891412Y3956802D1*
X3886337Y3965416D1*
X3881748Y3974301D1*
X3877657Y3983424D1*
X3874081Y3992761D1*
X3871028Y4002282D1*
X3868508Y4011958D1*
X3866528Y4021759D1*
X3865096Y4031655D1*
X3864214Y4041614D1*
X3863887Y4051608D1*
X3864114Y4061604D1*
X3864896Y4071572D1*
X3866230Y4081482D1*
X3868112Y4091302D1*
X3870535Y4101001D1*
X3873493Y4110552D1*
X3876976Y4119925D1*
X3880975Y4129089D1*
X3885475Y4138018D1*
X3890465Y4146684D1*
X3895927Y4155059D1*
X3901845Y4163117D1*
X3908202Y4170836D1*
X3914976Y4178189D1*
X3922148Y4185155D1*
X3929697Y4191713D1*
X3937597Y4197841D1*
X3945825Y4203522D1*
X3954356Y4208739D1*
X3963163Y4213472D1*
X3972219Y4217711D1*
X3981496Y4221440D1*
X3990966Y4224648D1*
X4000598Y4227327D1*
X4010366Y4229467D1*
X4020238Y4231062D1*
X4030181Y4232106D1*
X4040168Y4232597D1*
X4050167Y4232533D1*
X4060146Y4231915D1*
X4070076Y4230743D1*
X4079925Y4229022D1*
X4089664Y4226757D1*
X4099262Y4223957D1*
X4108690Y4220627D1*
X4117919Y4216780D1*
X4126920Y4212425D1*
X4135665Y4207579D1*
X4144129Y4202255D1*
X4152283Y4196470D1*
X4160105Y4190240D1*
X4167568Y4183587D1*
X4174651Y4176529D1*
X4181332Y4169089D1*
X4187589Y4161290D1*
X4193404Y4153156D1*
X4198759Y4144713D1*
X4203636Y4135984D1*
X4208022Y4126999D1*
X4211903Y4117783D1*
X4215266Y4108367D1*
X4218102Y4098780D1*
X4220402Y4089049D1*
X4222157Y4079206D1*
X4223365Y4069280D1*
X4224018Y4059303D1*
X4224077Y4047507D1*
X3774077D2*
X3773522Y4037524D1*
X3772415Y4027587D1*
X3770757Y4017726D1*
X3768555Y4007974D1*
X3765815Y3998357D1*
X3762546Y3988908D1*
X3758757Y3979655D1*
X3754462Y3970626D1*
X3749671Y3961849D1*
X3744402Y3953353D1*
X3738668Y3945161D1*
X3732488Y3937301D1*
X3725883Y3929794D1*
X3718871Y3922667D1*
X3711474Y3915938D1*
X3703715Y3909631D1*
X3695619Y3903765D1*
X3687209Y3898357D1*
X3678512Y3893423D1*
X3669555Y3888979D1*
X3660365Y3885041D1*
X3650971Y3881617D1*
X3641402Y3878719D1*
X3631685Y3876358D1*
X3621853Y3874539D1*
X3611936Y3873269D1*
X3601963Y3872551D1*
X3591966Y3872387D1*
X3581974Y3872778D1*
X3572020Y3873723D1*
X3562134Y3875219D1*
X3552346Y3877261D1*
X3542686Y3879844D1*
X3533185Y3882958D1*
X3523871Y3886594D1*
X3514773Y3890741D1*
X3505920Y3895387D1*
X3497337Y3900518D1*
X3489052Y3906117D1*
X3481092Y3912165D1*
X3473479Y3918648D1*
X3466238Y3925542D1*
X3459390Y3932828D1*
X3452957Y3940482D1*
X3446958Y3948482D1*
X3441412Y3956802D1*
X3436337Y3965416D1*
X3431748Y3974301D1*
X3427657Y3983424D1*
X3424081Y3992761D1*
X3421028Y4002282D1*
X3418508Y4011958D1*
X3416528Y4021759D1*
X3415096Y4031655D1*
X3414214Y4041614D1*
X3413887Y4051608D1*
X3414114Y4061604D1*
X3414896Y4071572D1*
X3416230Y4081482D1*
X3418112Y4091302D1*
X3420535Y4101001D1*
X3423493Y4110552D1*
X3426976Y4119925D1*
X3430975Y4129089D1*
X3435475Y4138018D1*
X3440465Y4146684D1*
X3445927Y4155059D1*
X3451845Y4163117D1*
X3458202Y4170836D1*
X3464976Y4178189D1*
X3472148Y4185155D1*
X3479697Y4191713D1*
X3487597Y4197841D1*
X3495825Y4203522D1*
X3504356Y4208739D1*
X3513163Y4213472D1*
X3522219Y4217711D1*
X3531496Y4221440D1*
X3540966Y4224648D1*
X3550598Y4227327D1*
X3560366Y4229467D1*
X3570238Y4231062D1*
X3580181Y4232106D1*
X3590168Y4232597D1*
X3600167Y4232533D1*
X3610146Y4231915D1*
X3620076Y4230743D1*
X3629925Y4229022D1*
X3639664Y4226757D1*
X3649262Y4223957D1*
X3658690Y4220627D1*
X3667919Y4216780D1*
X3676920Y4212425D1*
X3685665Y4207579D1*
X3694129Y4202255D1*
X3702283Y4196470D1*
X3710105Y4190240D1*
X3717568Y4183587D1*
X3724651Y4176529D1*
X3731332Y4169089D1*
X3737589Y4161290D1*
X3743404Y4153156D1*
X3748759Y4144713D1*
X3753636Y4135984D1*
X3758022Y4126999D1*
X3761903Y4117783D1*
X3765266Y4108367D1*
X3768102Y4098780D1*
X3770402Y4089049D1*
X3772157Y4079206D1*
X3773365Y4069280D1*
X3774018Y4059303D1*
X3774077Y4047507D1*
X3324077D2*
X3323522Y4037524D1*
X3322415Y4027587D1*
X3320757Y4017726D1*
X3318555Y4007974D1*
X3315815Y3998357D1*
X3312546Y3988908D1*
X3308757Y3979655D1*
X3304462Y3970626D1*
X3299671Y3961849D1*
X3294402Y3953353D1*
X3288668Y3945161D1*
X3282488Y3937301D1*
X3275883Y3929794D1*
X3268871Y3922667D1*
X3261474Y3915938D1*
X3253715Y3909631D1*
X3245619Y3903765D1*
X3237209Y3898357D1*
X3228512Y3893423D1*
X3219555Y3888979D1*
X3210365Y3885041D1*
X3200971Y3881617D1*
X3191402Y3878719D1*
X3181685Y3876358D1*
X3171853Y3874539D1*
X3161936Y3873269D1*
X3151963Y3872551D1*
X3141966Y3872387D1*
X3131974Y3872778D1*
X3122020Y3873723D1*
X3112134Y3875219D1*
X3102346Y3877261D1*
X3092686Y3879844D1*
X3083185Y3882958D1*
X3073871Y3886594D1*
X3064773Y3890741D1*
X3055920Y3895387D1*
X3047337Y3900518D1*
X3039052Y3906117D1*
X3031092Y3912165D1*
X3023479Y3918648D1*
X3016238Y3925542D1*
X3009390Y3932828D1*
X3002957Y3940482D1*
X2996958Y3948482D1*
X2991412Y3956802D1*
X2986337Y3965416D1*
X2981748Y3974301D1*
X2977657Y3983424D1*
X2974081Y3992761D1*
X2971028Y4002282D1*
X2968508Y4011958D1*
X2966528Y4021759D1*
X2965096Y4031655D1*
X2964214Y4041614D1*
X2963887Y4051608D1*
X2964114Y4061604D1*
X2964896Y4071572D1*
X2966230Y4081482D1*
X2968112Y4091302D1*
X2970535Y4101001D1*
X2973493Y4110552D1*
X2976976Y4119925D1*
X2980975Y4129089D1*
X2985475Y4138018D1*
X2990465Y4146684D1*
X2995927Y4155059D1*
X3001845Y4163117D1*
X3008202Y4170836D1*
X3014976Y4178189D1*
X3022148Y4185155D1*
X3029697Y4191713D1*
X3037597Y4197841D1*
X3045825Y4203522D1*
X3054356Y4208739D1*
X3063163Y4213472D1*
X3072219Y4217711D1*
X3081496Y4221440D1*
X3090966Y4224648D1*
X3100598Y4227327D1*
X3110366Y4229467D1*
X3120238Y4231062D1*
X3130181Y4232106D1*
X3140168Y4232597D1*
X3150167Y4232533D1*
X3160146Y4231915D1*
X3170076Y4230743D1*
X3179925Y4229022D1*
X3189664Y4226757D1*
X3199262Y4223957D1*
X3208690Y4220627D1*
X3217919Y4216780D1*
X3226920Y4212425D1*
X3235665Y4207579D1*
X3244129Y4202255D1*
X3252283Y4196470D1*
X3260105Y4190240D1*
X3267568Y4183587D1*
X3274651Y4176529D1*
X3281332Y4169089D1*
X3287589Y4161290D1*
X3293404Y4153156D1*
X3298759Y4144713D1*
X3303636Y4135984D1*
X3308022Y4126999D1*
X3311903Y4117783D1*
X3315266Y4108367D1*
X3318102Y4098780D1*
X3320402Y4089049D1*
X3322157Y4079206D1*
X3323365Y4069280D1*
X3324018Y4059303D1*
X3324077Y4047507D1*
X2424077D2*
X2423522Y4037524D1*
X2422415Y4027587D1*
X2420757Y4017726D1*
X2418555Y4007974D1*
X2415815Y3998357D1*
X2412546Y3988908D1*
X2408757Y3979655D1*
X2404462Y3970626D1*
X2399671Y3961849D1*
X2394402Y3953353D1*
X2388668Y3945161D1*
X2382488Y3937301D1*
X2375883Y3929794D1*
X2368871Y3922667D1*
X2361474Y3915938D1*
X2353715Y3909631D1*
X2345619Y3903765D1*
X2337209Y3898357D1*
X2328512Y3893423D1*
X2319555Y3888979D1*
X2310365Y3885041D1*
X2300971Y3881617D1*
X2291402Y3878719D1*
X2281685Y3876358D1*
X2271853Y3874539D1*
X2261936Y3873269D1*
X2251963Y3872551D1*
X2241966Y3872387D1*
X2231974Y3872778D1*
X2222020Y3873723D1*
X2212134Y3875219D1*
X2202346Y3877261D1*
X2192686Y3879844D1*
X2183185Y3882958D1*
X2173871Y3886594D1*
X2164773Y3890741D1*
X2155920Y3895387D1*
X2147337Y3900518D1*
X2139052Y3906117D1*
X2131092Y3912165D1*
X2123479Y3918648D1*
X2116238Y3925542D1*
X2109390Y3932828D1*
X2102957Y3940482D1*
X2096958Y3948482D1*
X2091412Y3956802D1*
X2086337Y3965416D1*
X2081748Y3974301D1*
X2077657Y3983424D1*
X2074081Y3992761D1*
X2071028Y4002282D1*
X2068508Y4011958D1*
X2066528Y4021759D1*
X2065096Y4031655D1*
X2064214Y4041614D1*
X2063887Y4051608D1*
X2064114Y4061604D1*
X2064896Y4071572D1*
X2066230Y4081482D1*
X2068112Y4091302D1*
X2070535Y4101001D1*
X2073493Y4110552D1*
X2076976Y4119925D1*
X2080975Y4129089D1*
X2085475Y4138018D1*
X2090465Y4146684D1*
X2095927Y4155059D1*
X2101845Y4163117D1*
X2108202Y4170836D1*
X2114976Y4178189D1*
X2122148Y4185155D1*
X2129697Y4191713D1*
X2137597Y4197841D1*
X2145825Y4203522D1*
X2154356Y4208739D1*
X2163163Y4213472D1*
X2172219Y4217711D1*
X2181496Y4221440D1*
X2190966Y4224648D1*
X2200598Y4227327D1*
X2210366Y4229467D1*
X2220238Y4231062D1*
X2230181Y4232106D1*
X2240168Y4232597D1*
X2250167Y4232533D1*
X2260146Y4231915D1*
X2270076Y4230743D1*
X2279925Y4229022D1*
X2289664Y4226757D1*
X2299262Y4223957D1*
X2308690Y4220627D1*
X2317919Y4216780D1*
X2326920Y4212425D1*
X2335665Y4207579D1*
X2344129Y4202255D1*
X2352283Y4196470D1*
X2360105Y4190240D1*
X2367568Y4183587D1*
X2374651Y4176529D1*
X2381332Y4169089D1*
X2387589Y4161290D1*
X2393404Y4153156D1*
X2398759Y4144713D1*
X2403636Y4135984D1*
X2408022Y4126999D1*
X2411903Y4117783D1*
X2415266Y4108367D1*
X2418102Y4098780D1*
X2420402Y4089049D1*
X2422157Y4079206D1*
X2423365Y4069280D1*
X2424018Y4059303D1*
X2424077Y4047507D1*
X974067Y1047508D2*
X973423Y1037530D1*
X972136Y1027614D1*
X970215Y1017803D1*
X967665Y1008135D1*
X964499Y998651D1*
X960727Y989392D1*
X956367Y980394D1*
X951437Y971697D1*
X945957Y963333D1*
X939949Y955343D1*
X933438Y947753D1*
X926453Y940601D1*
X919021Y933912D1*
X911175Y927717D1*
X902944Y922039D1*
X894365Y916904D1*
X885474Y912332D1*
X876306Y908341D1*
X866900Y904950D1*
X857295Y902172D1*
X847533Y900018D1*
X837650Y898499D1*
X827690Y897618D1*
X817696Y897381D1*
X807705Y897789D1*
X797762Y898839D1*
X787908Y900526D1*
X778182Y902846D1*
X768626Y905787D1*
X759280Y909337D1*
X750181Y913483D1*
X741369Y918206D1*
X732879Y923487D1*
X724747Y929303D1*
X717007Y935631D1*
X709689Y942446D1*
X702827Y949717D1*
X696446Y957415D1*
X690576Y965508D1*
X685238Y973962D1*
X680457Y982743D1*
X676251Y991814D1*
X672636Y1001136D1*
X669631Y1010672D1*
X667247Y1020382D1*
X665493Y1030224D1*
X664377Y1040160D1*
X663903Y1050147D1*
X664072Y1060144D1*
X664886Y1070109D1*
X666340Y1080001D1*
X668429Y1089780D1*
X671143Y1099402D1*
X674470Y1108831D1*
X678399Y1118025D1*
X682911Y1126946D1*
X687990Y1135559D1*
X693612Y1143827D1*
X699755Y1151715D1*
X706392Y1159192D1*
X713499Y1166226D1*
X721043Y1172786D1*
X728995Y1178848D1*
X737320Y1184383D1*
X745986Y1189373D1*
X754954Y1193793D1*
X764188Y1197626D1*
X773650Y1200856D1*
X783301Y1203471D1*
X793100Y1205458D1*
X803005Y1206810D1*
X812979Y1207520D1*
X822976Y1207587D1*
X832958Y1207010D1*
X842882Y1205791D1*
X852706Y1203936D1*
X862391Y1201450D1*
X871895Y1198346D1*
X881180Y1194638D1*
X890207Y1190339D1*
X898937Y1185466D1*
X907336Y1180042D1*
X915369Y1174088D1*
X923000Y1167629D1*
X930199Y1160690D1*
X936938Y1153303D1*
X943186Y1145499D1*
X948919Y1137306D1*
X954112Y1128762D1*
X958743Y1119902D1*
X962794Y1110761D1*
X966248Y1101378D1*
X969091Y1091793D1*
X971310Y1082043D1*
X972895Y1072172D1*
X973843Y1062218D1*
X974147Y1052507D1*
X974067Y1047508D1*
X1874067D2*
X1873423Y1037530D1*
X1872136Y1027614D1*
X1870215Y1017803D1*
X1867665Y1008135D1*
X1864499Y998651D1*
X1860727Y989392D1*
X1856367Y980394D1*
X1851437Y971697D1*
X1845957Y963333D1*
X1839949Y955343D1*
X1833438Y947753D1*
X1826453Y940601D1*
X1819021Y933912D1*
X1811175Y927717D1*
X1802944Y922039D1*
X1794365Y916904D1*
X1785474Y912332D1*
X1776306Y908341D1*
X1766900Y904950D1*
X1757295Y902172D1*
X1747533Y900018D1*
X1737650Y898499D1*
X1727690Y897618D1*
X1717696Y897381D1*
X1707705Y897789D1*
X1697762Y898839D1*
X1687908Y900526D1*
X1678182Y902846D1*
X1668626Y905787D1*
X1659280Y909337D1*
X1650181Y913483D1*
X1641369Y918206D1*
X1632879Y923487D1*
X1624747Y929303D1*
X1617007Y935631D1*
X1609689Y942446D1*
X1602827Y949717D1*
X1596446Y957415D1*
X1590576Y965508D1*
X1585238Y973962D1*
X1580457Y982743D1*
X1576251Y991814D1*
X1572636Y1001136D1*
X1569631Y1010672D1*
X1567247Y1020382D1*
X1565493Y1030224D1*
X1564377Y1040160D1*
X1563903Y1050147D1*
X1564072Y1060144D1*
X1564886Y1070109D1*
X1566340Y1080001D1*
X1568429Y1089780D1*
X1571143Y1099402D1*
X1574470Y1108831D1*
X1578399Y1118025D1*
X1582911Y1126946D1*
X1587990Y1135559D1*
X1593612Y1143827D1*
X1599755Y1151715D1*
X1606392Y1159192D1*
X1613499Y1166226D1*
X1621043Y1172786D1*
X1628995Y1178848D1*
X1637320Y1184383D1*
X1645986Y1189373D1*
X1654954Y1193793D1*
X1664188Y1197626D1*
X1673650Y1200856D1*
X1683301Y1203471D1*
X1693100Y1205458D1*
X1703005Y1206810D1*
X1712979Y1207520D1*
X1722976Y1207587D1*
X1732958Y1207010D1*
X1742882Y1205791D1*
X1752706Y1203936D1*
X1762391Y1201450D1*
X1771895Y1198346D1*
X1781180Y1194638D1*
X1790207Y1190339D1*
X1798937Y1185466D1*
X1807336Y1180042D1*
X1815369Y1174088D1*
X1823000Y1167629D1*
X1830199Y1160690D1*
X1836938Y1153303D1*
X1843186Y1145499D1*
X1848919Y1137306D1*
X1854112Y1128762D1*
X1858743Y1119902D1*
X1862794Y1110761D1*
X1866248Y1101378D1*
X1869091Y1091793D1*
X1871310Y1082043D1*
X1872895Y1072172D1*
X1873843Y1062218D1*
X1874147Y1052507D1*
X1874067Y1047508D1*
X1424067D2*
X1423423Y1037530D1*
X1422136Y1027614D1*
X1420215Y1017803D1*
X1417665Y1008135D1*
X1414499Y998651D1*
X1410727Y989392D1*
X1406367Y980394D1*
X1401437Y971697D1*
X1395957Y963333D1*
X1389949Y955343D1*
X1383438Y947753D1*
X1376453Y940601D1*
X1369021Y933912D1*
X1361175Y927717D1*
X1352944Y922039D1*
X1344365Y916904D1*
X1335474Y912332D1*
X1326306Y908341D1*
X1316900Y904950D1*
X1307295Y902172D1*
X1297533Y900018D1*
X1287650Y898499D1*
X1277690Y897618D1*
X1267696Y897381D1*
X1257705Y897789D1*
X1247762Y898839D1*
X1237908Y900526D1*
X1228182Y902846D1*
X1218626Y905787D1*
X1209280Y909337D1*
X1200181Y913483D1*
X1191369Y918206D1*
X1182879Y923487D1*
X1174747Y929303D1*
X1167007Y935631D1*
X1159689Y942446D1*
X1152827Y949717D1*
X1146446Y957415D1*
X1140576Y965508D1*
X1135238Y973962D1*
X1130457Y982743D1*
X1126251Y991814D1*
X1122636Y1001136D1*
X1119631Y1010672D1*
X1117247Y1020382D1*
X1115493Y1030224D1*
X1114377Y1040160D1*
X1113903Y1050147D1*
X1114072Y1060144D1*
X1114886Y1070109D1*
X1116340Y1080001D1*
X1118429Y1089780D1*
X1121143Y1099402D1*
X1124470Y1108831D1*
X1128399Y1118025D1*
X1132911Y1126946D1*
X1137990Y1135559D1*
X1143612Y1143827D1*
X1149755Y1151715D1*
X1156392Y1159192D1*
X1163499Y1166226D1*
X1171043Y1172786D1*
X1178995Y1178848D1*
X1187320Y1184383D1*
X1195986Y1189373D1*
X1204954Y1193793D1*
X1214188Y1197626D1*
X1223650Y1200856D1*
X1233301Y1203471D1*
X1243100Y1205458D1*
X1253005Y1206810D1*
X1262979Y1207520D1*
X1272976Y1207587D1*
X1282958Y1207010D1*
X1292882Y1205791D1*
X1302706Y1203936D1*
X1312391Y1201450D1*
X1321895Y1198346D1*
X1331180Y1194638D1*
X1340207Y1190339D1*
X1348937Y1185466D1*
X1357336Y1180042D1*
X1365369Y1174088D1*
X1373000Y1167629D1*
X1380199Y1160690D1*
X1386938Y1153303D1*
X1393186Y1145499D1*
X1398919Y1137306D1*
X1404112Y1128762D1*
X1408743Y1119902D1*
X1412794Y1110761D1*
X1416248Y1101378D1*
X1419091Y1091793D1*
X1421310Y1082043D1*
X1422895Y1072172D1*
X1423843Y1062218D1*
X1424147Y1052507D1*
X1424067Y1047508D1*
X2324067D2*
X2323423Y1037530D1*
X2322136Y1027614D1*
X2320215Y1017803D1*
X2317665Y1008135D1*
X2314499Y998651D1*
X2310727Y989392D1*
X2306367Y980394D1*
X2301437Y971697D1*
X2295957Y963333D1*
X2289949Y955343D1*
X2283438Y947753D1*
X2276453Y940601D1*
X2269021Y933912D1*
X2261175Y927717D1*
X2252944Y922039D1*
X2244365Y916904D1*
X2235474Y912332D1*
X2226306Y908341D1*
X2216900Y904950D1*
X2207295Y902172D1*
X2197533Y900018D1*
X2187650Y898499D1*
X2177690Y897618D1*
X2167696Y897381D1*
X2157705Y897789D1*
X2147762Y898839D1*
X2137908Y900526D1*
X2128182Y902846D1*
X2118626Y905787D1*
X2109280Y909337D1*
X2100181Y913483D1*
X2091369Y918206D1*
X2082879Y923487D1*
X2074747Y929303D1*
X2067007Y935631D1*
X2059689Y942446D1*
X2052827Y949717D1*
X2046446Y957415D1*
X2040576Y965508D1*
X2035238Y973962D1*
X2030457Y982743D1*
X2026251Y991814D1*
X2022636Y1001136D1*
X2019631Y1010672D1*
X2017247Y1020382D1*
X2015493Y1030224D1*
X2014377Y1040160D1*
X2013903Y1050147D1*
X2014072Y1060144D1*
X2014886Y1070109D1*
X2016340Y1080001D1*
X2018429Y1089780D1*
X2021143Y1099402D1*
X2024470Y1108831D1*
X2028399Y1118025D1*
X2032911Y1126946D1*
X2037990Y1135559D1*
X2043612Y1143827D1*
X2049755Y1151715D1*
X2056392Y1159192D1*
X2063499Y1166226D1*
X2071043Y1172786D1*
X2078995Y1178848D1*
X2087320Y1184383D1*
X2095986Y1189373D1*
X2104954Y1193793D1*
X2114188Y1197626D1*
X2123650Y1200856D1*
X2133301Y1203471D1*
X2143100Y1205458D1*
X2153005Y1206810D1*
X2162979Y1207520D1*
X2172976Y1207587D1*
X2182958Y1207010D1*
X2192882Y1205791D1*
X2202706Y1203936D1*
X2212391Y1201450D1*
X2221895Y1198346D1*
X2231180Y1194638D1*
X2240207Y1190339D1*
X2248937Y1185466D1*
X2257336Y1180042D1*
X2265369Y1174088D1*
X2273000Y1167629D1*
X2280199Y1160690D1*
X2286938Y1153303D1*
X2293186Y1145499D1*
X2298919Y1137306D1*
X2304112Y1128762D1*
X2308743Y1119902D1*
X2312794Y1110761D1*
X2316248Y1101378D1*
X2319091Y1091793D1*
X2321310Y1082043D1*
X2322895Y1072172D1*
X2323843Y1062218D1*
X2324147Y1052507D1*
X2324067Y1047508D1*
X2774067D2*
X2773423Y1037530D1*
X2772136Y1027614D1*
X2770215Y1017803D1*
X2767665Y1008135D1*
X2764499Y998651D1*
X2760727Y989392D1*
X2756367Y980394D1*
X2751437Y971697D1*
X2745957Y963333D1*
X2739949Y955343D1*
X2733438Y947753D1*
X2726453Y940601D1*
X2719021Y933912D1*
X2711175Y927717D1*
X2702944Y922039D1*
X2694365Y916904D1*
X2685474Y912332D1*
X2676306Y908341D1*
X2666900Y904950D1*
X2657295Y902172D1*
X2647533Y900018D1*
X2637650Y898499D1*
X2627690Y897618D1*
X2617696Y897381D1*
X2607705Y897789D1*
X2597762Y898839D1*
X2587908Y900526D1*
X2578182Y902846D1*
X2568626Y905787D1*
X2559280Y909337D1*
X2550181Y913483D1*
X2541369Y918206D1*
X2532879Y923487D1*
X2524747Y929303D1*
X2517007Y935631D1*
X2509689Y942446D1*
X2502827Y949717D1*
X2496446Y957415D1*
X2490576Y965508D1*
X2485238Y973962D1*
X2480457Y982743D1*
X2476251Y991814D1*
X2472636Y1001136D1*
X2469631Y1010672D1*
X2467247Y1020382D1*
X2465493Y1030224D1*
X2464377Y1040160D1*
X2463903Y1050147D1*
X2464072Y1060144D1*
X2464886Y1070109D1*
X2466340Y1080001D1*
X2468429Y1089780D1*
X2471143Y1099402D1*
X2474470Y1108831D1*
X2478399Y1118025D1*
X2482911Y1126946D1*
X2487990Y1135559D1*
X2493612Y1143827D1*
X2499755Y1151715D1*
X2506392Y1159192D1*
X2513499Y1166226D1*
X2521043Y1172786D1*
X2528995Y1178848D1*
X2537320Y1184383D1*
X2545986Y1189373D1*
X2554954Y1193793D1*
X2564188Y1197626D1*
X2573650Y1200856D1*
X2583301Y1203471D1*
X2593100Y1205458D1*
X2603005Y1206810D1*
X2612979Y1207520D1*
X2622976Y1207587D1*
X2632958Y1207010D1*
X2642882Y1205791D1*
X2652706Y1203936D1*
X2662391Y1201450D1*
X2671895Y1198346D1*
X2681180Y1194638D1*
X2690207Y1190339D1*
X2698937Y1185466D1*
X2707336Y1180042D1*
X2715369Y1174088D1*
X2723000Y1167629D1*
X2730199Y1160690D1*
X2736938Y1153303D1*
X2743186Y1145499D1*
X2748919Y1137306D1*
X2754112Y1128762D1*
X2758743Y1119902D1*
X2762794Y1110761D1*
X2766248Y1101378D1*
X2769091Y1091793D1*
X2771310Y1082043D1*
X2772895Y1072172D1*
X2773843Y1062218D1*
X2774147Y1052507D1*
X2774067Y1047508D1*
X3674067D2*
X3673423Y1037530D1*
X3672136Y1027614D1*
X3670215Y1017803D1*
X3667665Y1008135D1*
X3664499Y998651D1*
X3660727Y989392D1*
X3656367Y980394D1*
X3651437Y971697D1*
X3645957Y963333D1*
X3639949Y955343D1*
X3633438Y947753D1*
X3626453Y940601D1*
X3619021Y933912D1*
X3611175Y927717D1*
X3602944Y922039D1*
X3594365Y916904D1*
X3585474Y912332D1*
X3576306Y908341D1*
X3566900Y904950D1*
X3557295Y902172D1*
X3547533Y900018D1*
X3537650Y898499D1*
X3527690Y897618D1*
X3517696Y897381D1*
X3507705Y897789D1*
X3497762Y898839D1*
X3487908Y900526D1*
X3478182Y902846D1*
X3468626Y905787D1*
X3459280Y909337D1*
X3450181Y913483D1*
X3441369Y918206D1*
X3432879Y923487D1*
X3424747Y929303D1*
X3417007Y935631D1*
X3409689Y942446D1*
X3402827Y949717D1*
X3396446Y957415D1*
X3390576Y965508D1*
X3385238Y973962D1*
X3380457Y982743D1*
X3376251Y991814D1*
X3372636Y1001136D1*
X3369631Y1010672D1*
X3367247Y1020382D1*
X3365493Y1030224D1*
X3364377Y1040160D1*
X3363903Y1050147D1*
X3364072Y1060144D1*
X3364886Y1070109D1*
X3366340Y1080001D1*
X3368429Y1089780D1*
X3371143Y1099402D1*
X3374470Y1108831D1*
X3378399Y1118025D1*
X3382911Y1126946D1*
X3387990Y1135559D1*
X3393612Y1143827D1*
X3399755Y1151715D1*
X3406392Y1159192D1*
X3413499Y1166226D1*
X3421043Y1172786D1*
X3428995Y1178848D1*
X3437320Y1184383D1*
X3445986Y1189373D1*
X3454954Y1193793D1*
X3464188Y1197626D1*
X3473650Y1200856D1*
X3483301Y1203471D1*
X3493100Y1205458D1*
X3503005Y1206810D1*
X3512979Y1207520D1*
X3522976Y1207587D1*
X3532958Y1207010D1*
X3542882Y1205791D1*
X3552706Y1203936D1*
X3562391Y1201450D1*
X3571895Y1198346D1*
X3581180Y1194638D1*
X3590207Y1190339D1*
X3598937Y1185466D1*
X3607336Y1180042D1*
X3615369Y1174088D1*
X3623000Y1167629D1*
X3630199Y1160690D1*
X3636938Y1153303D1*
X3643186Y1145499D1*
X3648919Y1137306D1*
X3654112Y1128762D1*
X3658743Y1119902D1*
X3662794Y1110761D1*
X3666248Y1101378D1*
X3669091Y1091793D1*
X3671310Y1082043D1*
X3672895Y1072172D1*
X3673843Y1062218D1*
X3674147Y1052507D1*
X3674067Y1047508D1*
X3224067D2*
X3223423Y1037530D1*
X3222136Y1027614D1*
X3220215Y1017803D1*
X3217665Y1008135D1*
X3214499Y998651D1*
X3210727Y989392D1*
X3206367Y980394D1*
X3201437Y971697D1*
X3195957Y963333D1*
X3189949Y955343D1*
X3183438Y947753D1*
X3176453Y940601D1*
X3169021Y933912D1*
X3161175Y927717D1*
X3152944Y922039D1*
X3144365Y916904D1*
X3135474Y912332D1*
X3126306Y908341D1*
X3116900Y904950D1*
X3107295Y902172D1*
X3097533Y900018D1*
X3087650Y898499D1*
X3077690Y897618D1*
X3067696Y897381D1*
X3057705Y897789D1*
X3047762Y898839D1*
X3037908Y900526D1*
X3028182Y902846D1*
X3018626Y905787D1*
X3009280Y909337D1*
X3000181Y913483D1*
X2991369Y918206D1*
X2982879Y923487D1*
X2974747Y929303D1*
X2967007Y935631D1*
X2959689Y942446D1*
X2952827Y949717D1*
X2946446Y957415D1*
X2940576Y965508D1*
X2935238Y973962D1*
X2930457Y982743D1*
X2926251Y991814D1*
X2922636Y1001136D1*
X2919631Y1010672D1*
X2917247Y1020382D1*
X2915493Y1030224D1*
X2914377Y1040160D1*
X2913903Y1050147D1*
X2914072Y1060144D1*
X2914886Y1070109D1*
X2916340Y1080001D1*
X2918429Y1089780D1*
X2921143Y1099402D1*
X2924470Y1108831D1*
X2928399Y1118025D1*
X2932911Y1126946D1*
X2937990Y1135559D1*
X2943612Y1143827D1*
X2949755Y1151715D1*
X2956392Y1159192D1*
X2963499Y1166226D1*
X2971043Y1172786D1*
X2978995Y1178848D1*
X2987320Y1184383D1*
X2995986Y1189373D1*
X3004954Y1193793D1*
X3014188Y1197626D1*
X3023650Y1200856D1*
X3033301Y1203471D1*
X3043100Y1205458D1*
X3053005Y1206810D1*
X3062979Y1207520D1*
X3072976Y1207587D1*
X3082958Y1207010D1*
X3092882Y1205791D1*
X3102706Y1203936D1*
X3112391Y1201450D1*
X3121895Y1198346D1*
X3131180Y1194638D1*
X3140207Y1190339D1*
X3148937Y1185466D1*
X3157336Y1180042D1*
X3165369Y1174088D1*
X3173000Y1167629D1*
X3180199Y1160690D1*
X3186938Y1153303D1*
X3193186Y1145499D1*
X3198919Y1137306D1*
X3204112Y1128762D1*
X3208743Y1119902D1*
X3212794Y1110761D1*
X3216248Y1101378D1*
X3219091Y1091793D1*
X3221310Y1082043D1*
X3222895Y1072172D1*
X3223843Y1062218D1*
X3224147Y1052507D1*
X3224067Y1047508D1*
X4124067D2*
X4123423Y1037530D1*
X4122136Y1027614D1*
X4120215Y1017803D1*
X4117665Y1008135D1*
X4114499Y998651D1*
X4110727Y989392D1*
X4106367Y980394D1*
X4101437Y971697D1*
X4095957Y963333D1*
X4089949Y955343D1*
X4083438Y947753D1*
X4076453Y940601D1*
X4069021Y933912D1*
X4061175Y927717D1*
X4052944Y922039D1*
X4044365Y916904D1*
X4035474Y912332D1*
X4026306Y908341D1*
X4016900Y904950D1*
X4007295Y902172D1*
X3997533Y900018D1*
X3987650Y898499D1*
X3977690Y897618D1*
X3967696Y897381D1*
X3957705Y897789D1*
X3947762Y898839D1*
X3937908Y900526D1*
X3928182Y902846D1*
X3918626Y905787D1*
X3909280Y909337D1*
X3900181Y913483D1*
X3891369Y918206D1*
X3882879Y923487D1*
X3874747Y929303D1*
X3867007Y935631D1*
X3859689Y942446D1*
X3852827Y949717D1*
X3846446Y957415D1*
X3840576Y965508D1*
X3835238Y973962D1*
X3830457Y982743D1*
X3826251Y991814D1*
X3822636Y1001136D1*
X3819631Y1010672D1*
X3817247Y1020382D1*
X3815493Y1030224D1*
X3814377Y1040160D1*
X3813903Y1050147D1*
X3814072Y1060144D1*
X3814886Y1070109D1*
X3816340Y1080001D1*
X3818429Y1089780D1*
X3821143Y1099402D1*
X3824470Y1108831D1*
X3828399Y1118025D1*
X3832911Y1126946D1*
X3837990Y1135559D1*
X3843612Y1143827D1*
X3849755Y1151715D1*
X3856392Y1159192D1*
X3863499Y1166226D1*
X3871043Y1172786D1*
X3878995Y1178848D1*
X3887320Y1184383D1*
X3895986Y1189373D1*
X3904954Y1193793D1*
X3914188Y1197626D1*
X3923650Y1200856D1*
X3933301Y1203471D1*
X3943100Y1205458D1*
X3953005Y1206810D1*
X3962979Y1207520D1*
X3972976Y1207587D1*
X3982958Y1207010D1*
X3992882Y1205791D1*
X4002706Y1203936D1*
X4012391Y1201450D1*
X4021895Y1198346D1*
X4031180Y1194638D1*
X4040207Y1190339D1*
X4048937Y1185466D1*
X4057336Y1180042D1*
X4065369Y1174088D1*
X4073000Y1167629D1*
X4080199Y1160690D1*
X4086938Y1153303D1*
X4093186Y1145499D1*
X4098919Y1137306D1*
X4104112Y1128762D1*
X4108743Y1119902D1*
X4112794Y1110761D1*
X4116248Y1101378D1*
X4119091Y1091793D1*
X4121310Y1082043D1*
X4122895Y1072172D1*
X4123843Y1062218D1*
X4124147Y1052507D1*
X4124067Y1047508D1*
X1399028Y3297508D2*
X1398079Y3287558D1*
X1396189Y3277741D1*
X1393374Y3268150D1*
X1389663Y3258869D1*
X1385085Y3249982D1*
X1379685Y3241570D1*
X1373510Y3233709D1*
X1366617Y3226470D1*
X1359067Y3219917D1*
X1350929Y3214113D1*
X1342276Y3209106D1*
X1333188Y3204945D1*
X1323744Y3201667D1*
X1314033Y3199298D1*
X1304140Y3197864D1*
X1294155Y3197375D1*
X1284171Y3197837D1*
X1274273Y3199245D1*
X1264555Y3201588D1*
X1255104Y3204841D1*
X1246004Y3208979D1*
X1237339Y3213962D1*
X1229185Y3219745D1*
X1221617Y3226277D1*
X1214705Y3233497D1*
X1208509Y3241341D1*
X1203087Y3249739D1*
X1198486Y3258614D1*
X1194748Y3267886D1*
X1191909Y3277470D1*
X1189993Y3287281D1*
X1189017Y3297230D1*
X1188991Y3307226D1*
X1189913Y3317178D1*
X1191777Y3327000D1*
X1194566Y3336600D1*
X1198253Y3345891D1*
X1202807Y3354790D1*
X1208185Y3363215D1*
X1214339Y3371093D1*
X1221213Y3378350D1*
X1228745Y3384923D1*
X1236867Y3390749D1*
X1245507Y3395778D1*
X1254585Y3399963D1*
X1264020Y3403268D1*
X1273724Y3405661D1*
X1283614Y3407122D1*
X1293597Y3407636D1*
X1303583Y3407202D1*
X1313483Y3405820D1*
X1323207Y3403504D1*
X1332668Y3400274D1*
X1341780Y3396161D1*
X1350458Y3391202D1*
X1358627Y3385440D1*
X1366211Y3378929D1*
X1373143Y3371727D1*
X1379360Y3363899D1*
X1384804Y3355516D1*
X1389429Y3346654D1*
X1393190Y3337391D1*
X1396055Y3327815D1*
X1397997Y3318009D1*
X1399000Y3308063D1*
X1399147Y3302507D1*
X1399028Y3297508D1*
X3957220Y2947533D2*
X3956635Y2942589D1*
X3955664Y2937706D1*
X3954312Y2932915D1*
X3952589Y2928244D1*
X3950505Y2923723D1*
X3948073Y2919381D1*
X3945307Y2915241D1*
X3942226Y2911332D1*
X3938846Y2907676D1*
X3935190Y2904297D1*
X3931281Y2901215D1*
X3927142Y2898449D1*
X3922799Y2896017D1*
X3918278Y2893933D1*
X3913608Y2892210D1*
X3908816Y2890858D1*
X3903933Y2889887D1*
X3898990Y2889302D1*
X3894016Y2889106D1*
X3889042Y2889302D1*
X3884098Y2889887D1*
X3879215Y2890858D1*
X3874424Y2892210D1*
X3869753Y2893933D1*
X3865232Y2896017D1*
X3860890Y2898449D1*
X3856751Y2901215D1*
X3852841Y2904297D1*
X3849185Y2907676D1*
X3845806Y2911332D1*
X3842724Y2915241D1*
X3839958Y2919381D1*
X3837526Y2923723D1*
X3835442Y2928244D1*
X3833719Y2932915D1*
X3832367Y2937706D1*
X3831396Y2942589D1*
X3830811Y2947533D1*
X3830615Y2952507D1*
X3830811Y2957480D1*
X3831396Y2962424D1*
X3832367Y2967307D1*
X3833719Y2972098D1*
X3835442Y2976769D1*
X3837526Y2981290D1*
X3839958Y2985633D1*
X3842724Y2989772D1*
X3845806Y2993681D1*
X3849185Y2997337D1*
X3852841Y3000717D1*
X3856751Y3003798D1*
X3860890Y3006564D1*
X3865232Y3008996D1*
X3869753Y3011080D1*
X3874424Y3012803D1*
X3879215Y3014155D1*
X3884098Y3015126D1*
X3889042Y3015711D1*
X3894016Y3015907D1*
X3898990Y3015711D1*
X3903933Y3015126D1*
X3908816Y3014155D1*
X3913608Y3012803D1*
X3918278Y3011080D1*
X3922799Y3008996D1*
X3927142Y3006564D1*
X3931281Y3003798D1*
X3935190Y3000717D1*
X3938846Y2997337D1*
X3942226Y2993681D1*
X3945307Y2989772D1*
X3948073Y2985633D1*
X3950505Y2981290D1*
X3952589Y2976769D1*
X3954312Y2972098D1*
X3955664Y2967307D1*
X3956635Y2962424D1*
X3957220Y2957480D1*
X3957416Y2952507D1*
X3957220Y2947533D1*
X882220Y1447533D2*
X881635Y1442589D1*
X880664Y1437706D1*
X879312Y1432915D1*
X877589Y1428244D1*
X875505Y1423723D1*
X873073Y1419381D1*
X870307Y1415241D1*
X867226Y1411332D1*
X863846Y1407676D1*
X860190Y1404297D1*
X856281Y1401215D1*
X852142Y1398449D1*
X847799Y1396017D1*
X843278Y1393933D1*
X838608Y1392210D1*
X833816Y1390858D1*
X828933Y1389887D1*
X823990Y1389302D1*
X819016Y1389106D1*
X814042Y1389302D1*
X809098Y1389887D1*
X804215Y1390858D1*
X799424Y1392210D1*
X794753Y1393933D1*
X790232Y1396017D1*
X785890Y1398449D1*
X781751Y1401215D1*
X777841Y1404297D1*
X774185Y1407676D1*
X770806Y1411332D1*
X767724Y1415241D1*
X764958Y1419381D1*
X762526Y1423723D1*
X760442Y1428244D1*
X758719Y1432915D1*
X757367Y1437706D1*
X756396Y1442589D1*
X755811Y1447533D1*
X755615Y1452507D1*
X755811Y1457480D1*
X756396Y1462424D1*
X757367Y1467307D1*
X758719Y1472098D1*
X760442Y1476769D1*
X762526Y1481290D1*
X764958Y1485633D1*
X767724Y1489772D1*
X770806Y1493681D1*
X774185Y1497337D1*
X777841Y1500717D1*
X781751Y1503798D1*
X785890Y1506564D1*
X790232Y1508996D1*
X794753Y1511080D1*
X799424Y1512803D1*
X804215Y1514155D1*
X809098Y1515126D1*
X814042Y1515711D1*
X819016Y1515907D1*
X823990Y1515711D1*
X828933Y1515126D1*
X833816Y1514155D1*
X838608Y1512803D1*
X843278Y1511080D1*
X847799Y1508996D1*
X852142Y1506564D1*
X856281Y1503798D1*
X860190Y1500717D1*
X863846Y1497337D1*
X867226Y1493681D1*
X870307Y1489772D1*
X873073Y1485633D1*
X875505Y1481290D1*
X877589Y1476769D1*
X879312Y1472098D1*
X880664Y1467307D1*
X881635Y1462424D1*
X882220Y1457480D1*
X882416Y1452507D1*
X882220Y1447533D1*
X794028Y5329508D2*
X793079Y5319558D1*
X791189Y5309741D1*
X788374Y5300150D1*
X784663Y5290869D1*
X780085Y5281982D1*
X774685Y5273570D1*
X768510Y5265709D1*
X761617Y5258470D1*
X754067Y5251917D1*
X745929Y5246113D1*
X737276Y5241106D1*
X728188Y5236945D1*
X718744Y5233667D1*
X709033Y5231298D1*
X699140Y5229864D1*
X689155Y5229375D1*
X679171Y5229837D1*
X669273Y5231245D1*
X659555Y5233588D1*
X650104Y5236841D1*
X641004Y5240979D1*
X632339Y5245962D1*
X624185Y5251745D1*
X616617Y5258277D1*
X609705Y5265497D1*
X603509Y5273341D1*
X598087Y5281739D1*
X593486Y5290614D1*
X589748Y5299886D1*
X586909Y5309470D1*
X584993Y5319281D1*
X584017Y5329230D1*
X583991Y5339226D1*
X584913Y5349178D1*
X586777Y5359000D1*
X589566Y5368600D1*
X593253Y5377891D1*
X597807Y5386790D1*
X603185Y5395215D1*
X609339Y5403093D1*
X616213Y5410350D1*
X623745Y5416923D1*
X631529Y5422518D1*
X424016Y5422507D1*
Y432507D1*
X619972D1*
X613350Y438860D1*
X606789Y446400D1*
X600974Y454531D1*
X595955Y463177D1*
X591782Y472260D1*
X588491Y481699D1*
X586110Y491408D1*
X584663Y501298D1*
X584160Y511282D1*
X584609Y521268D1*
X586004Y531167D1*
X588333Y540888D1*
X591575Y550344D1*
X595699Y559449D1*
X600671Y568122D1*
X606444Y576283D1*
X612965Y583858D1*
X620177Y590781D1*
X628013Y596987D1*
X636403Y602421D1*
X645272Y607033D1*
X654538Y610782D1*
X664119Y613635D1*
X673928Y615564D1*
X683874Y616554D1*
X693870Y616593D1*
X703825Y615684D1*
X713648Y613832D1*
X723252Y611056D1*
X732549Y607382D1*
X741453Y602840D1*
X749886Y597474D1*
X757772Y591329D1*
X765038Y584466D1*
X771621Y576941D1*
X777458Y568827D1*
X782497Y560194D1*
X786696Y551122D1*
X790012Y541692D1*
X792419Y531990D1*
X793892Y522102D1*
X794421Y512121D1*
X794303Y506563D1*
X793354Y496613D1*
X791465Y486797D1*
X788650Y477205D1*
X784938Y467924D1*
X780361Y459037D1*
X774961Y450625D1*
X768786Y442764D1*
X761892Y435525D1*
X758556Y432487D1*
X2939016Y432507D1*
X4019972D1*
X4013350Y438860D1*
X4006789Y446400D1*
X4000974Y454531D1*
X3995955Y463177D1*
X3991782Y472260D1*
X3988491Y481699D1*
X3986110Y491408D1*
X3984663Y501298D1*
X3984160Y511282D1*
X3984609Y521268D1*
X3986004Y531167D1*
X3988333Y540888D1*
X3991575Y550344D1*
X3995699Y559449D1*
X4000671Y568122D1*
X4006444Y576283D1*
X4012965Y583858D1*
X4020177Y590781D1*
X4028013Y596987D1*
X4036403Y602421D1*
X4045272Y607033D1*
X4054538Y610782D1*
X4064119Y613635D1*
X4073928Y615564D1*
X4083874Y616554D1*
X4093870Y616593D1*
X4103825Y615684D1*
X4113648Y613832D1*
X4123252Y611056D1*
X4132549Y607382D1*
X4141453Y602840D1*
X4149886Y597474D1*
X4157772Y591329D1*
X4165038Y584466D1*
X4171621Y576941D1*
X4177458Y568827D1*
X4182497Y560194D1*
X4186696Y551122D1*
X4190012Y541692D1*
X4192419Y531990D1*
X4193892Y522102D1*
X4194421Y512121D1*
X4194303Y506563D1*
X4193354Y496613D1*
X4191465Y486797D1*
X4188650Y477205D1*
X4184938Y467924D1*
X4180361Y459037D1*
X4174961Y450625D1*
X4168786Y442764D1*
X4161892Y435525D1*
X4158556Y432487D1*
X4339016Y432507D1*
Y5422507D1*
X4146652D1*
X4153903Y5417329D1*
X4161487Y5410819D1*
X4168419Y5403617D1*
X4174635Y5395789D1*
X4180080Y5387406D1*
X4184705Y5378543D1*
X4188466Y5369281D1*
X4191331Y5359705D1*
X4193273Y5349899D1*
X4194276Y5339953D1*
X4194423Y5334396D1*
X4193948Y5324411D1*
X4192526Y5314517D1*
X4190171Y5304802D1*
X4186904Y5295354D1*
X4182755Y5286260D1*
X4177761Y5277601D1*
X4171967Y5269455D1*
X4165425Y5261896D1*
X4158196Y5254993D1*
X4150343Y5248808D1*
X4141937Y5243396D1*
X4133056Y5238808D1*
X4123781Y5235083D1*
X4114192Y5232257D1*
X4104379Y5230353D1*
X4094429Y5229391D1*
X4084433Y5229378D1*
X4074480Y5230314D1*
X4064663Y5232190D1*
X4055067Y5234992D1*
X4045780Y5238692D1*
X4036887Y5243257D1*
X4028469Y5248646D1*
X4020598Y5254811D1*
X4013350Y5261694D1*
X4006789Y5269235D1*
X4000974Y5277366D1*
X3995955Y5286012D1*
X3991782Y5295094D1*
X3988491Y5304534D1*
X3986110Y5314243D1*
X3984663Y5324133D1*
X3984160Y5334117D1*
X3984609Y5344102D1*
X3986004Y5354001D1*
X3988333Y5363723D1*
X3991575Y5373178D1*
X3995699Y5382283D1*
X4000671Y5390957D1*
X4006444Y5399118D1*
X4012965Y5406693D1*
X4020177Y5413615D1*
X4028013Y5419822D1*
X4031966Y5422517D1*
X746535Y5422507D1*
X753627Y5417440D1*
X761211Y5410929D1*
X768143Y5403727D1*
X774360Y5395899D1*
X779804Y5387516D1*
X784429Y5378654D1*
X788190Y5369391D1*
X791055Y5359815D1*
X792997Y5350009D1*
X794000Y5340063D1*
X794147Y5334507D1*
X794028Y5329508D1*
X2430815Y619822D2*
X2429871Y613870D1*
X2428009Y608139D1*
X2425274Y602770D1*
X2421732Y597896D1*
X2417471Y593635D1*
X2412597Y590093D1*
X2407228Y587358D1*
X2401497Y585496D1*
X2395546Y584552D1*
X2389520D1*
X2383568Y585496D1*
X2377837Y587358D1*
X2372469Y590093D1*
X2367594Y593635D1*
X2363333Y597896D1*
X2359791Y602770D1*
X2357056Y608139D1*
X2355194Y613870D1*
X2354251Y619822D1*
Y625848D1*
X2355194Y631799D1*
X2357056Y637530D1*
X2359791Y642899D1*
X2363333Y647773D1*
X2367594Y652034D1*
X2372469Y655576D1*
X2377837Y658311D1*
X2383568Y660173D1*
X2389520Y661117D1*
X2395546D1*
X2401497Y660173D1*
X2407228Y658311D1*
X2412597Y655576D1*
X2417471Y652034D1*
X2421732Y647773D1*
X2425274Y642899D1*
X2428009Y637530D1*
X2429871Y631799D1*
X2430815Y625848D1*
Y619822D1*
X2082335Y3786244D2*
X2081391Y3780293D1*
X2079529Y3774562D1*
X2076794Y3769193D1*
X2073252Y3764319D1*
X2068991Y3760058D1*
X2064117Y3756516D1*
X2058748Y3753781D1*
X2053017Y3751919D1*
X2047066Y3750975D1*
X2041039D1*
X2035088Y3751919D1*
X2029357Y3753781D1*
X2023988Y3756516D1*
X2019114Y3760058D1*
X2014853Y3764319D1*
X2011311Y3769193D1*
X2008576Y3774562D1*
X2006714Y3780293D1*
X2005770Y3786244D1*
Y3792270D1*
X2006714Y3798222D1*
X2008576Y3803953D1*
X2011311Y3809322D1*
X2014853Y3814196D1*
X2019114Y3818457D1*
X2023988Y3821999D1*
X2029357Y3824734D1*
X2035088Y3826596D1*
X2041039Y3827539D1*
X2047066D1*
X2053017Y3826596D1*
X2058748Y3824734D1*
X2064117Y3821999D1*
X2068991Y3818457D1*
X2073252Y3814196D1*
X2076794Y3809322D1*
X2079529Y3803953D1*
X2081391Y3798222D1*
X2082335Y3792270D1*
Y3786244D1*
X2507290D2*
X2506346Y3780293D1*
X2504484Y3774562D1*
X2501749Y3769193D1*
X2498207Y3764319D1*
X2493946Y3760058D1*
X2489072Y3756516D1*
X2483703Y3753781D1*
X2477972Y3751919D1*
X2472021Y3750975D1*
X2465995D1*
X2460043Y3751919D1*
X2454312Y3753781D1*
X2448944Y3756516D1*
X2444070Y3760058D1*
X2439808Y3764319D1*
X2436266Y3769193D1*
X2433531Y3774562D1*
X2431669Y3780293D1*
X2430726Y3786244D1*
Y3792270D1*
X2431669Y3798222D1*
X2433531Y3803953D1*
X2436266Y3809322D1*
X2439808Y3814196D1*
X2444070Y3818457D1*
X2448944Y3821999D1*
X2454312Y3824734D1*
X2460043Y3826596D1*
X2465995Y3827539D1*
X2472021D1*
X2477972Y3826596D1*
X2483703Y3824734D1*
X2489072Y3821999D1*
X2493946Y3818457D1*
X2498207Y3814196D1*
X2501749Y3809322D1*
X2504484Y3803953D1*
X2506346Y3798222D1*
X2507290Y3792270D1*
Y3786244D1*
X3057232D2*
X3056289Y3780293D1*
X3054427Y3774562D1*
X3051692Y3769193D1*
X3048150Y3764319D1*
X3043888Y3760058D1*
X3039014Y3756516D1*
X3033646Y3753781D1*
X3027915Y3751919D1*
X3021963Y3750975D1*
X3015937D1*
X3009986Y3751919D1*
X3004255Y3753781D1*
X2998886Y3756516D1*
X2994012Y3760058D1*
X2989751Y3764319D1*
X2986209Y3769193D1*
X2983474Y3774562D1*
X2981612Y3780293D1*
X2980668Y3786244D1*
Y3792270D1*
X2981612Y3798222D1*
X2983474Y3803953D1*
X2986209Y3809322D1*
X2989751Y3814196D1*
X2994012Y3818457D1*
X2998886Y3821999D1*
X3004255Y3824734D1*
X3009986Y3826596D1*
X3015937Y3827539D1*
X3021963D1*
X3027915Y3826596D1*
X3033646Y3824734D1*
X3039014Y3821999D1*
X3043888Y3818457D1*
X3048150Y3814196D1*
X3051692Y3809322D1*
X3054427Y3803953D1*
X3056289Y3798222D1*
X3057232Y3792270D1*
Y3786244D1*
X3282209D2*
X3281265Y3780293D1*
X3279403Y3774562D1*
X3276668Y3769193D1*
X3273126Y3764319D1*
X3268865Y3760058D1*
X3263991Y3756516D1*
X3258622Y3753781D1*
X3252891Y3751919D1*
X3246940Y3750975D1*
X3240913D1*
X3234962Y3751919D1*
X3229231Y3753781D1*
X3223862Y3756516D1*
X3218988Y3760058D1*
X3214727Y3764319D1*
X3211185Y3769193D1*
X3208450Y3774562D1*
X3206588Y3780293D1*
X3205644Y3786244D1*
Y3792270D1*
X3206588Y3798222D1*
X3208450Y3803953D1*
X3211185Y3809322D1*
X3214727Y3814196D1*
X3218988Y3818457D1*
X3223862Y3821999D1*
X3229231Y3824734D1*
X3234962Y3826596D1*
X3240913Y3827539D1*
X3246940D1*
X3252891Y3826596D1*
X3258622Y3824734D1*
X3263991Y3821999D1*
X3268865Y3818457D1*
X3273126Y3814196D1*
X3276668Y3809322D1*
X3279403Y3803953D1*
X3281265Y3798222D1*
X3282209Y3792270D1*
Y3786244D1*
X3482188D2*
X3481244Y3780293D1*
X3479382Y3774562D1*
X3476647Y3769193D1*
X3473105Y3764319D1*
X3468844Y3760058D1*
X3463970Y3756516D1*
X3458601Y3753781D1*
X3452870Y3751919D1*
X3446919Y3750975D1*
X3440892D1*
X3434941Y3751919D1*
X3429210Y3753781D1*
X3423841Y3756516D1*
X3418967Y3760058D1*
X3414706Y3764319D1*
X3411164Y3769193D1*
X3408429Y3774562D1*
X3406567Y3780293D1*
X3405623Y3786244D1*
Y3792270D1*
X3406567Y3798222D1*
X3408429Y3803953D1*
X3411164Y3809322D1*
X3414706Y3814196D1*
X3418967Y3818457D1*
X3423841Y3821999D1*
X3429210Y3824734D1*
X3434941Y3826596D1*
X3440892Y3827539D1*
X3446919D1*
X3452870Y3826596D1*
X3458601Y3824734D1*
X3463970Y3821999D1*
X3468844Y3818457D1*
X3473105Y3814196D1*
X3476647Y3809322D1*
X3479382Y3803953D1*
X3481244Y3798222D1*
X3482188Y3792270D1*
Y3786244D1*
X3763408D2*
X3762465Y3780293D1*
X3760602Y3774562D1*
X3757867Y3769193D1*
X3754325Y3764319D1*
X3750064Y3760058D1*
X3745190Y3756516D1*
X3739822Y3753781D1*
X3734091Y3751919D1*
X3728139Y3750975D1*
X3722113D1*
X3716161Y3751919D1*
X3710430Y3753781D1*
X3705062Y3756516D1*
X3700188Y3760058D1*
X3695927Y3764319D1*
X3692385Y3769193D1*
X3689650Y3774562D1*
X3687787Y3780293D1*
X3686844Y3786244D1*
Y3792270D1*
X3687787Y3798222D1*
X3689650Y3803953D1*
X3692385Y3809322D1*
X3695927Y3814196D1*
X3700188Y3818457D1*
X3705062Y3821999D1*
X3710430Y3824734D1*
X3716161Y3826596D1*
X3722113Y3827539D1*
X3728139D1*
X3734091Y3826596D1*
X3739822Y3824734D1*
X3745190Y3821999D1*
X3750064Y3818457D1*
X3754325Y3814196D1*
X3757867Y3809322D1*
X3760602Y3803953D1*
X3762465Y3798222D1*
X3763408Y3792270D1*
Y3786244D1*
X1626133Y2699244D2*
X1625189Y2693293D1*
X1623327Y2687562D1*
X1620592Y2682193D1*
X1617050Y2677319D1*
X1612789Y2673058D1*
X1607915Y2669516D1*
X1602546Y2666781D1*
X1596815Y2664919D1*
X1590864Y2663975D1*
X1584837D1*
X1578886Y2664919D1*
X1573155Y2666781D1*
X1567786Y2669516D1*
X1562912Y2673058D1*
X1558651Y2677319D1*
X1555109Y2682193D1*
X1552374Y2687562D1*
X1550512Y2693293D1*
X1549568Y2699244D1*
Y2705270D1*
X1550512Y2711222D1*
X1552374Y2716953D1*
X1555109Y2722322D1*
X1558651Y2727196D1*
X1562912Y2731457D1*
X1567786Y2734999D1*
X1573155Y2737734D1*
X1578886Y2739596D1*
X1584837Y2740539D1*
X1590864D1*
X1596815Y2739596D1*
X1602546Y2737734D1*
X1607915Y2734999D1*
X1612789Y2731457D1*
X1617050Y2727196D1*
X1620592Y2722322D1*
X1623327Y2716953D1*
X1625189Y2711222D1*
X1626133Y2705270D1*
Y2699244D1*
X2044839D2*
X2043895Y2693293D1*
X2042033Y2687562D1*
X2039298Y2682193D1*
X2035756Y2677319D1*
X2031495Y2673058D1*
X2026621Y2669516D1*
X2021252Y2666781D1*
X2015521Y2664919D1*
X2009570Y2663975D1*
X2003543D1*
X1997592Y2664919D1*
X1991861Y2666781D1*
X1986492Y2669516D1*
X1981618Y2673058D1*
X1977357Y2677319D1*
X1973815Y2682193D1*
X1971080Y2687562D1*
X1969218Y2693293D1*
X1968274Y2699244D1*
Y2705270D1*
X1969218Y2711222D1*
X1971080Y2716953D1*
X1973815Y2722322D1*
X1977357Y2727196D1*
X1981618Y2731457D1*
X1986492Y2734999D1*
X1991861Y2737734D1*
X1997592Y2739596D1*
X2003543Y2740539D1*
X2009570D1*
X2015521Y2739596D1*
X2021252Y2737734D1*
X2026621Y2734999D1*
X2031495Y2731457D1*
X2035756Y2727196D1*
X2039298Y2722322D1*
X2042033Y2716953D1*
X2043895Y2711222D1*
X2044839Y2705270D1*
Y2699244D1*
X2294812D2*
X2293869Y2693293D1*
X2292007Y2687562D1*
X2289272Y2682193D1*
X2285730Y2677319D1*
X2281469Y2673058D1*
X2276594Y2669516D1*
X2271226Y2666781D1*
X2265495Y2664919D1*
X2259543Y2663975D1*
X2253517D1*
X2247566Y2664919D1*
X2241835Y2666781D1*
X2236466Y2669516D1*
X2231592Y2673058D1*
X2227331Y2677319D1*
X2223789Y2682193D1*
X2221054Y2687562D1*
X2219192Y2693293D1*
X2218248Y2699244D1*
Y2705270D1*
X2219192Y2711222D1*
X2221054Y2716953D1*
X2223789Y2722322D1*
X2227331Y2727196D1*
X2231592Y2731457D1*
X2236466Y2734999D1*
X2241835Y2737734D1*
X2247566Y2739596D1*
X2253517Y2740539D1*
X2259543D1*
X2265495Y2739596D1*
X2271226Y2737734D1*
X2276594Y2734999D1*
X2281469Y2731457D1*
X2285730Y2727196D1*
X2289272Y2722322D1*
X2292007Y2716953D1*
X2293869Y2711222D1*
X2294812Y2705270D1*
Y2699244D1*
X2801009D2*
X2800066Y2693293D1*
X2798203Y2687562D1*
X2795469Y2682193D1*
X2791927Y2677319D1*
X2787665Y2673058D1*
X2782791Y2669516D1*
X2777423Y2666781D1*
X2771692Y2664919D1*
X2765740Y2663975D1*
X2759714D1*
X2753762Y2664919D1*
X2748031Y2666781D1*
X2742663Y2669516D1*
X2737789Y2673058D1*
X2733528Y2677319D1*
X2729986Y2682193D1*
X2727251Y2687562D1*
X2725388Y2693293D1*
X2724445Y2699244D1*
Y2705270D1*
X2725388Y2711222D1*
X2727251Y2716953D1*
X2729986Y2722322D1*
X2733528Y2727196D1*
X2737789Y2731457D1*
X2742663Y2734999D1*
X2748031Y2737734D1*
X2753762Y2739596D1*
X2759714Y2740539D1*
X2765740D1*
X2771692Y2739596D1*
X2777423Y2737734D1*
X2782791Y2734999D1*
X2787665Y2731457D1*
X2791927Y2727196D1*
X2795469Y2722322D1*
X2798203Y2716953D1*
X2800066Y2711222D1*
X2801009Y2705270D1*
Y2699244D1*
X3032235D2*
X3031291Y2693293D1*
X3029429Y2687562D1*
X3026694Y2682193D1*
X3023152Y2677319D1*
X3018891Y2673058D1*
X3014017Y2669516D1*
X3008648Y2666781D1*
X3002917Y2664919D1*
X2996966Y2663975D1*
X2990940D1*
X2984988Y2664919D1*
X2979257Y2666781D1*
X2973888Y2669516D1*
X2969014Y2673058D1*
X2964753Y2677319D1*
X2961211Y2682193D1*
X2958476Y2687562D1*
X2956614Y2693293D1*
X2955671Y2699244D1*
Y2705270D1*
X2956614Y2711222D1*
X2958476Y2716953D1*
X2961211Y2722322D1*
X2964753Y2727196D1*
X2969014Y2731457D1*
X2973888Y2734999D1*
X2979257Y2737734D1*
X2984988Y2739596D1*
X2990940Y2740539D1*
X2996966D1*
X3002917Y2739596D1*
X3008648Y2737734D1*
X3014017Y2734999D1*
X3018891Y2731457D1*
X3023152Y2727196D1*
X3026694Y2722322D1*
X3029429Y2716953D1*
X3031291Y2711222D1*
X3032235Y2705270D1*
Y2699244D1*
X3450941D2*
X3449997Y2693293D1*
X3448135Y2687562D1*
X3445400Y2682193D1*
X3441858Y2677319D1*
X3437597Y2673058D1*
X3432723Y2669516D1*
X3427354Y2666781D1*
X3421623Y2664919D1*
X3415672Y2663975D1*
X3409646D1*
X3403694Y2664919D1*
X3397963Y2666781D1*
X3392594Y2669516D1*
X3387720Y2673058D1*
X3383459Y2677319D1*
X3379917Y2682193D1*
X3377182Y2687562D1*
X3375320Y2693293D1*
X3374377Y2699244D1*
Y2705270D1*
X3375320Y2711222D1*
X3377182Y2716953D1*
X3379917Y2722322D1*
X3383459Y2727196D1*
X3387720Y2731457D1*
X3392594Y2734999D1*
X3397963Y2737734D1*
X3403694Y2739596D1*
X3409646Y2740539D1*
X3415672D1*
X3421623Y2739596D1*
X3427354Y2737734D1*
X3432723Y2734999D1*
X3437597Y2731457D1*
X3441858Y2727196D1*
X3445400Y2722322D1*
X3448135Y2716953D1*
X3449997Y2711222D1*
X3450941Y2705270D1*
Y2699244D1*
X3725912D2*
X3724969Y2693293D1*
X3723106Y2687562D1*
X3720371Y2682193D1*
X3716829Y2677319D1*
X3712568Y2673058D1*
X3707694Y2669516D1*
X3702325Y2666781D1*
X3696594Y2664919D1*
X3690643Y2663975D1*
X3684617D1*
X3678665Y2664919D1*
X3672934Y2666781D1*
X3667566Y2669516D1*
X3662692Y2673058D1*
X3658430Y2677319D1*
X3654888Y2682193D1*
X3652154Y2687562D1*
X3650291Y2693293D1*
X3649348Y2699244D1*
Y2705270D1*
X3650291Y2711222D1*
X3652154Y2716953D1*
X3654888Y2722322D1*
X3658430Y2727196D1*
X3662692Y2731457D1*
X3667566Y2734999D1*
X3672934Y2737734D1*
X3678665Y2739596D1*
X3684617Y2740539D1*
X3690643D1*
X3696594Y2739596D1*
X3702325Y2737734D1*
X3707694Y2734999D1*
X3712568Y2731457D1*
X3716829Y2727196D1*
X3720371Y2722322D1*
X3723106Y2716953D1*
X3724969Y2711222D1*
X3725912Y2705270D1*
Y2699244D1*
X4125870D2*
X4124927Y2693293D1*
X4123064Y2687562D1*
X4120329Y2682193D1*
X4116787Y2677319D1*
X4112526Y2673058D1*
X4107652Y2669516D1*
X4102283Y2666781D1*
X4096552Y2664919D1*
X4090601Y2663975D1*
X4084575D1*
X4078623Y2664919D1*
X4072892Y2666781D1*
X4067524Y2669516D1*
X4062650Y2673058D1*
X4058388Y2677319D1*
X4054846Y2682193D1*
X4052112Y2687562D1*
X4050249Y2693293D1*
X4049306Y2699244D1*
Y2705270D1*
X4050249Y2711222D1*
X4052112Y2716953D1*
X4054846Y2722322D1*
X4058388Y2727196D1*
X4062650Y2731457D1*
X4067524Y2734999D1*
X4072892Y2737734D1*
X4078623Y2739596D1*
X4084575Y2740539D1*
X4090601D1*
X4096552Y2739596D1*
X4102283Y2737734D1*
X4107652Y2734999D1*
X4112526Y2731457D1*
X4116787Y2727196D1*
X4120329Y2722322D1*
X4123064Y2716953D1*
X4124927Y2711222D1*
X4125870Y2705270D1*
Y2699244D1*
X1482398D2*
X1481454Y2693293D1*
X1479592Y2687562D1*
X1476857Y2682193D1*
X1473315Y2677319D1*
X1469054Y2673058D1*
X1464180Y2669516D1*
X1458811Y2666781D1*
X1453080Y2664919D1*
X1447129Y2663975D1*
X1441102D1*
X1435151Y2664919D1*
X1429420Y2666781D1*
X1424051Y2669516D1*
X1419177Y2673058D1*
X1414916Y2677319D1*
X1411374Y2682193D1*
X1408639Y2687562D1*
X1406777Y2693293D1*
X1405833Y2699244D1*
Y2705270D1*
X1406777Y2711222D1*
X1408639Y2716953D1*
X1411374Y2722322D1*
X1414916Y2727196D1*
X1419177Y2731457D1*
X1424051Y2734999D1*
X1429420Y2737734D1*
X1435151Y2739596D1*
X1441102Y2740539D1*
X1447129D1*
X1453080Y2739596D1*
X1458811Y2737734D1*
X1464180Y2734999D1*
X1469054Y2731457D1*
X1473315Y2727196D1*
X1476857Y2722322D1*
X1479592Y2716953D1*
X1481454Y2711222D1*
X1482398Y2705270D1*
Y2699244D1*
X538747Y2905480D2*
X537803Y2899529D1*
X535941Y2893798D1*
X533206Y2888429D1*
X529664Y2883555D1*
X525403Y2879294D1*
X520529Y2875752D1*
X515160Y2873017D1*
X509429Y2871155D1*
X503478Y2870211D1*
X497451D1*
X491500Y2871155D1*
X485769Y2873017D1*
X480400Y2875752D1*
X475526Y2879294D1*
X471265Y2883555D1*
X467723Y2888429D1*
X464988Y2893798D1*
X463126Y2899529D1*
X462182Y2905480D1*
Y2911507D1*
X463126Y2917458D1*
X464988Y2923189D1*
X467723Y2928558D1*
X471265Y2933432D1*
X475526Y2937693D1*
X480400Y2941235D1*
X485769Y2943970D1*
X491500Y2945832D1*
X497451Y2946776D1*
X503478D1*
X509429Y2945832D1*
X515160Y2943970D1*
X520529Y2941235D1*
X525403Y2937693D1*
X529664Y2933432D1*
X533206Y2928558D1*
X535941Y2923189D1*
X537803Y2917458D1*
X538747Y2911507D1*
Y2905480D1*
Y1674360D2*
X537803Y1668408D1*
X535941Y1662677D1*
X533206Y1657308D1*
X529664Y1652434D1*
X525403Y1648173D1*
X520529Y1644631D1*
X515160Y1641896D1*
X509429Y1640034D1*
X503478Y1639091D1*
X497451D1*
X491500Y1640034D1*
X485769Y1641896D1*
X480400Y1644631D1*
X475526Y1648173D1*
X471265Y1652434D1*
X467723Y1657308D1*
X464988Y1662677D1*
X463126Y1668408D1*
X462182Y1674360D1*
Y1680386D1*
X463126Y1686337D1*
X464988Y1692068D1*
X467723Y1697437D1*
X471265Y1702311D1*
X475526Y1706572D1*
X480400Y1710114D1*
X485769Y1712849D1*
X491500Y1714711D1*
X497451Y1715655D1*
X503478D1*
X509429Y1714711D1*
X515160Y1712849D1*
X520529Y1710114D1*
X525403Y1706572D1*
X529664Y1702311D1*
X533206Y1697437D1*
X535941Y1692068D1*
X537803Y1686337D1*
X538747Y1680386D1*
Y1674360D1*
X1138684Y4192845D2*
X1137740Y4186894D1*
X1135878Y4181163D1*
X1133143Y4175794D1*
X1129601Y4170920D1*
X1125340Y4166659D1*
X1120466Y4163117D1*
X1115097Y4160382D1*
X1109366Y4158520D1*
X1103415Y4157576D1*
X1097388D1*
X1091437Y4158520D1*
X1085706Y4160382D1*
X1080337Y4163117D1*
X1075463Y4166659D1*
X1071202Y4170920D1*
X1067660Y4175794D1*
X1064925Y4181163D1*
X1063063Y4186894D1*
X1062119Y4192845D1*
Y4198871D1*
X1063063Y4204823D1*
X1064925Y4210554D1*
X1067660Y4215923D1*
X1071202Y4220797D1*
X1075463Y4225058D1*
X1080337Y4228600D1*
X1085706Y4231335D1*
X1091437Y4233197D1*
X1097388Y4234140D1*
X1103415D1*
X1109366Y4233197D1*
X1115097Y4231335D1*
X1120466Y4228600D1*
X1125340Y4225058D1*
X1129601Y4220797D1*
X1133143Y4215923D1*
X1135878Y4210554D1*
X1137740Y4204823D1*
X1138684Y4198871D1*
Y4192845D1*
X1551047Y4193244D2*
X1550105Y4187293D1*
X1548243Y4181562D1*
X1545507Y4176193D1*
X1541966Y4171319D1*
X1537705Y4167058D1*
X1532829Y4163516D1*
X1527461Y4160781D1*
X1521730Y4158919D1*
X1515778Y4157975D1*
X1509753D1*
X1503802Y4158919D1*
X1498071Y4160781D1*
X1492702Y4163516D1*
X1487827Y4167058D1*
X1483566Y4171319D1*
X1480025Y4176193D1*
X1477289Y4181562D1*
X1475427Y4187293D1*
X1474484Y4193244D1*
Y4199270D1*
X1475427Y4205222D1*
X1477289Y4210953D1*
X1480025Y4216322D1*
X1483566Y4221196D1*
X1487827Y4225457D1*
X1492702Y4228999D1*
X1498071Y4231734D1*
X1503802Y4233596D1*
X1509753Y4234539D1*
X1515778D1*
X1521730Y4233596D1*
X1527461Y4231734D1*
X1532829Y4228999D1*
X1537705Y4225457D1*
X1541966Y4221196D1*
X1545507Y4216322D1*
X1548243Y4210953D1*
X1550105Y4205222D1*
X1551047Y4199270D1*
Y4193244D1*
X3969636Y3786244D2*
X3968693Y3780293D1*
X3966831Y3774562D1*
X3964096Y3769193D1*
X3960554Y3764319D1*
X3956293Y3760058D1*
X3951419Y3756516D1*
X3946050Y3753781D1*
X3940319Y3751919D1*
X3934367Y3750975D1*
X3928341D1*
X3922390Y3751919D1*
X3916659Y3753781D1*
X3911290Y3756516D1*
X3906416Y3760058D1*
X3902155Y3764319D1*
X3898613Y3769193D1*
X3895878Y3774562D1*
X3894016Y3780293D1*
X3893072Y3786244D1*
Y3792270D1*
X3894016Y3798222D1*
X3895878Y3803953D1*
X3898613Y3809322D1*
X3902155Y3814196D1*
X3906416Y3818457D1*
X3911290Y3821999D1*
X3916659Y3824734D1*
X3922390Y3826596D1*
X3928341Y3827539D1*
X3934367D1*
X3940319Y3826596D1*
X3946050Y3824734D1*
X3951419Y3821999D1*
X3956293Y3818457D1*
X3960554Y3814196D1*
X3964096Y3809322D1*
X3966831Y3803953D1*
X3968693Y3798222D1*
X3969636Y3792270D1*
Y3786244D1*
X4207112D2*
X4206168Y3780293D1*
X4204306Y3774562D1*
X4201571Y3769193D1*
X4198029Y3764319D1*
X4193768Y3760058D1*
X4188894Y3756516D1*
X4183525Y3753781D1*
X4177794Y3751919D1*
X4171843Y3750975D1*
X4165816D1*
X4159865Y3751919D1*
X4154134Y3753781D1*
X4148765Y3756516D1*
X4143891Y3760058D1*
X4139630Y3764319D1*
X4136088Y3769193D1*
X4133353Y3774562D1*
X4131491Y3780293D1*
X4130547Y3786244D1*
Y3792270D1*
X4131491Y3798222D1*
X4133353Y3803953D1*
X4136088Y3809322D1*
X4139630Y3814196D1*
X4143891Y3818457D1*
X4148765Y3821999D1*
X4154134Y3824734D1*
X4159865Y3826596D1*
X4165816Y3827539D1*
X4171843D1*
X4177794Y3826596D1*
X4183525Y3824734D1*
X4188894Y3821999D1*
X4193768Y3818457D1*
X4198029Y3814196D1*
X4201571Y3809322D1*
X4204306Y3803953D1*
X4206168Y3798222D1*
X4207112Y3792270D1*
Y3786244D1*
X782471Y5111499D2*
X781528Y5105547D1*
X779665Y5099816D1*
X776930Y5094448D1*
X773388Y5089573D1*
X769127Y5085312D1*
X764253Y5081770D1*
X758885Y5079035D1*
X753154Y5077173D1*
X747202Y5076230D1*
X741176D1*
X735224Y5077173D1*
X729493Y5079035D1*
X724125Y5081770D1*
X719251Y5085312D1*
X714990Y5089573D1*
X711448Y5094448D1*
X708713Y5099816D1*
X706850Y5105547D1*
X705907Y5111499D1*
Y5117525D1*
X706850Y5123476D1*
X708713Y5129207D1*
X711448Y5134576D1*
X714990Y5139450D1*
X719251Y5143711D1*
X724125Y5147253D1*
X729493Y5149988D1*
X735224Y5151850D1*
X741176Y5152794D1*
X747202D1*
X753154Y5151850D1*
X758885Y5149988D1*
X764253Y5147253D1*
X769127Y5143711D1*
X773388Y5139450D1*
X776930Y5134576D1*
X779665Y5129207D1*
X781528Y5123476D1*
X782471Y5117525D1*
Y5111499D1*
X1094938D2*
X1093995Y5105547D1*
X1092133Y5099816D1*
X1089398Y5094448D1*
X1085856Y5089573D1*
X1081594Y5085312D1*
X1076720Y5081770D1*
X1071352Y5079035D1*
X1065621Y5077173D1*
X1059669Y5076230D1*
X1053643D1*
X1047692Y5077173D1*
X1041961Y5079035D1*
X1036592Y5081770D1*
X1031718Y5085312D1*
X1027457Y5089573D1*
X1023915Y5094448D1*
X1021180Y5099816D1*
X1019318Y5105547D1*
X1018374Y5111499D1*
Y5117525D1*
X1019318Y5123476D1*
X1021180Y5129207D1*
X1023915Y5134576D1*
X1027457Y5139450D1*
X1031718Y5143711D1*
X1036592Y5147253D1*
X1041961Y5149988D1*
X1047692Y5151850D1*
X1053643Y5152794D1*
X1059669D1*
X1065621Y5151850D1*
X1071352Y5149988D1*
X1076720Y5147253D1*
X1081594Y5143711D1*
X1085856Y5139450D1*
X1089398Y5134576D1*
X1092133Y5129207D1*
X1093995Y5123476D1*
X1094938Y5117525D1*
Y5111499D1*
X1494896D2*
X1493953Y5105547D1*
X1492091Y5099816D1*
X1489356Y5094448D1*
X1485814Y5089573D1*
X1481552Y5085312D1*
X1476678Y5081770D1*
X1471310Y5079035D1*
X1465579Y5077173D1*
X1459627Y5076230D1*
X1453601D1*
X1447650Y5077173D1*
X1441919Y5079035D1*
X1436550Y5081770D1*
X1431676Y5085312D1*
X1427415Y5089573D1*
X1423873Y5094448D1*
X1421138Y5099816D1*
X1419276Y5105547D1*
X1418332Y5111499D1*
Y5117525D1*
X1419276Y5123476D1*
X1421138Y5129207D1*
X1423873Y5134576D1*
X1427415Y5139450D1*
X1431676Y5143711D1*
X1436550Y5147253D1*
X1441919Y5149988D1*
X1447650Y5151850D1*
X1453601Y5152794D1*
X1459627D1*
X1465579Y5151850D1*
X1471310Y5149988D1*
X1476678Y5147253D1*
X1481552Y5143711D1*
X1485814Y5139450D1*
X1489356Y5134576D1*
X1492091Y5129207D1*
X1493953Y5123476D1*
X1494896Y5117525D1*
Y5111499D1*
X2176075Y5111244D2*
X2175131Y5105293D1*
X2173269Y5099562D1*
X2170534Y5094193D1*
X2166992Y5089319D1*
X2162731Y5085058D1*
X2157857Y5081516D1*
X2152488Y5078781D1*
X2146757Y5076919D1*
X2140806Y5075975D1*
X2134780D1*
X2128828Y5076919D1*
X2123097Y5078781D1*
X2117728Y5081516D1*
X2112854Y5085058D1*
X2108593Y5089319D1*
X2105051Y5094193D1*
X2102316Y5099562D1*
X2100454Y5105293D1*
X2099510Y5111244D1*
Y5117270D1*
X2100454Y5123222D1*
X2102316Y5128953D1*
X2105051Y5134322D1*
X2108593Y5139196D1*
X2112854Y5143457D1*
X2117728Y5146999D1*
X2123097Y5149734D1*
X2128828Y5151596D1*
X2134780Y5152539D1*
X2140806D1*
X2146757Y5151596D1*
X2152488Y5149734D1*
X2157857Y5146999D1*
X2162731Y5143457D1*
X2166992Y5139196D1*
X2170534Y5134322D1*
X2173269Y5128953D1*
X2175131Y5123222D1*
X2176075Y5117270D1*
Y5111244D1*
X2576033D2*
X2575089Y5105293D1*
X2573227Y5099562D1*
X2570492Y5094193D1*
X2566950Y5089319D1*
X2562689Y5085058D1*
X2557815Y5081516D1*
X2552446Y5078781D1*
X2546715Y5076919D1*
X2540764Y5075975D1*
X2534738D1*
X2528786Y5076919D1*
X2523055Y5078781D1*
X2517686Y5081516D1*
X2512812Y5085058D1*
X2508551Y5089319D1*
X2505009Y5094193D1*
X2502274Y5099562D1*
X2500412Y5105293D1*
X2499469Y5111244D1*
Y5117270D1*
X2500412Y5123222D1*
X2502274Y5128953D1*
X2505009Y5134322D1*
X2508551Y5139196D1*
X2512812Y5143457D1*
X2517686Y5146999D1*
X2523055Y5149734D1*
X2528786Y5151596D1*
X2534738Y5152539D1*
X2540764D1*
X2546715Y5151596D1*
X2552446Y5149734D1*
X2557815Y5146999D1*
X2562689Y5143457D1*
X2566950Y5139196D1*
X2570492Y5134322D1*
X2573227Y5128953D1*
X2575089Y5123222D1*
X2576033Y5117270D1*
Y5111244D1*
X2869752D2*
X2868808Y5105293D1*
X2866946Y5099562D1*
X2864211Y5094193D1*
X2860669Y5089319D1*
X2856408Y5085058D1*
X2851534Y5081516D1*
X2846165Y5078781D1*
X2840434Y5076919D1*
X2834483Y5075975D1*
X2828457D1*
X2822505Y5076919D1*
X2816774Y5078781D1*
X2811406Y5081516D1*
X2806531Y5085058D1*
X2802270Y5089319D1*
X2798728Y5094193D1*
X2795993Y5099562D1*
X2794131Y5105293D1*
X2793188Y5111244D1*
Y5117270D1*
X2794131Y5123222D1*
X2795993Y5128953D1*
X2798728Y5134322D1*
X2802270Y5139196D1*
X2806531Y5143457D1*
X2811406Y5146999D1*
X2816774Y5149734D1*
X2822505Y5151596D1*
X2828457Y5152539D1*
X2834483D1*
X2840434Y5151596D1*
X2846165Y5149734D1*
X2851534Y5146999D1*
X2856408Y5143457D1*
X2860669Y5139196D1*
X2864211Y5134322D1*
X2866946Y5128953D1*
X2868808Y5123222D1*
X2869752Y5117270D1*
Y5111244D1*
X3619673Y5111499D2*
X3618730Y5105547D1*
X3616867Y5099816D1*
X3614133Y5094448D1*
X3610591Y5089573D1*
X3606329Y5085312D1*
X3601455Y5081770D1*
X3596087Y5079035D1*
X3590356Y5077173D1*
X3584404Y5076230D1*
X3578378D1*
X3572427Y5077173D1*
X3566696Y5079035D1*
X3561327Y5081770D1*
X3556453Y5085312D1*
X3552192Y5089573D1*
X3548650Y5094448D1*
X3545915Y5099816D1*
X3544052Y5105547D1*
X3543109Y5111499D1*
Y5117525D1*
X3544052Y5123476D1*
X3545915Y5129207D1*
X3548650Y5134576D1*
X3552192Y5139450D1*
X3556453Y5143711D1*
X3561327Y5147253D1*
X3566696Y5149988D1*
X3572427Y5151850D1*
X3578378Y5152794D1*
X3584404D1*
X3590356Y5151850D1*
X3596087Y5149988D1*
X3601455Y5147253D1*
X3606329Y5143711D1*
X3610591Y5139450D1*
X3614133Y5134576D1*
X3616867Y5129207D1*
X3618730Y5123476D1*
X3619673Y5117525D1*
Y5111499D1*
X4263356Y5111244D2*
X4262412Y5105293D1*
X4260550Y5099562D1*
X4257815Y5094193D1*
X4254273Y5089319D1*
X4250012Y5085058D1*
X4245138Y5081516D1*
X4239769Y5078781D1*
X4234038Y5076919D1*
X4228087Y5075975D1*
X4222060D1*
X4216109Y5076919D1*
X4210378Y5078781D1*
X4205009Y5081516D1*
X4200135Y5085058D1*
X4195874Y5089319D1*
X4192332Y5094193D1*
X4189597Y5099562D1*
X4187735Y5105293D1*
X4186791Y5111244D1*
Y5117270D1*
X4187735Y5123222D1*
X4189597Y5128953D1*
X4192332Y5134322D1*
X4195874Y5139196D1*
X4200135Y5143457D1*
X4205009Y5146999D1*
X4210378Y5149734D1*
X4216109Y5151596D1*
X4222060Y5152539D1*
X4228087D1*
X4234038Y5151596D1*
X4239769Y5149734D1*
X4245138Y5146999D1*
X4250012Y5143457D1*
X4254273Y5139196D1*
X4257815Y5134322D1*
X4260550Y5128953D1*
X4262412Y5123222D1*
X4263356Y5117270D1*
Y5111244D1*
X632487Y756244D2*
X631543Y750293D1*
X629681Y744562D1*
X626946Y739193D1*
X623404Y734319D1*
X619143Y730058D1*
X614269Y726516D1*
X608900Y723781D1*
X603169Y721919D1*
X597218Y720975D1*
X591192D1*
X585240Y721919D1*
X579509Y723781D1*
X574140Y726516D1*
X569266Y730058D1*
X565005Y734319D1*
X561463Y739193D1*
X558728Y744562D1*
X556866Y750293D1*
X555923Y756244D1*
Y762270D1*
X556866Y768222D1*
X558728Y773953D1*
X561463Y779322D1*
X565005Y784196D1*
X569266Y788457D1*
X574140Y791999D1*
X579509Y794734D1*
X585240Y796596D1*
X591192Y797539D1*
X597218D1*
X603169Y796596D1*
X608900Y794734D1*
X614269Y791999D1*
X619143Y788457D1*
X623404Y784196D1*
X626946Y779322D1*
X629681Y773953D1*
X631543Y768222D1*
X632487Y762270D1*
Y756244D1*
X2413550D2*
X2412606Y750293D1*
X2410744Y744562D1*
X2408009Y739193D1*
X2404467Y734319D1*
X2400206Y730058D1*
X2395332Y726516D1*
X2389963Y723781D1*
X2384232Y721919D1*
X2378281Y720975D1*
X2372255D1*
X2366303Y721919D1*
X2360572Y723781D1*
X2355203Y726516D1*
X2350329Y730058D1*
X2346068Y734319D1*
X2342526Y739193D1*
X2339791Y744562D1*
X2337929Y750293D1*
X2336986Y756244D1*
Y762270D1*
X2337929Y768222D1*
X2339791Y773953D1*
X2342526Y779322D1*
X2346068Y784196D1*
X2350329Y788457D1*
X2355203Y791999D1*
X2360572Y794734D1*
X2366303Y796596D1*
X2372255Y797539D1*
X2378281D1*
X2384232Y796596D1*
X2389963Y794734D1*
X2395332Y791999D1*
X2400206Y788457D1*
X2404467Y784196D1*
X2408009Y779322D1*
X2410744Y773953D1*
X2412606Y768222D1*
X2413550Y762270D1*
Y756244D1*
X3363450D2*
X3362507Y750293D1*
X3360644Y744562D1*
X3357909Y739193D1*
X3354367Y734319D1*
X3350106Y730058D1*
X3345232Y726516D1*
X3339864Y723781D1*
X3334133Y721919D1*
X3328181Y720975D1*
X3322155D1*
X3316203Y721919D1*
X3310472Y723781D1*
X3305104Y726516D1*
X3300230Y730058D1*
X3295969Y734319D1*
X3292427Y739193D1*
X3289692Y744562D1*
X3287829Y750293D1*
X3286886Y756244D1*
Y762270D1*
X3287829Y768222D1*
X3289692Y773953D1*
X3292427Y779322D1*
X3295969Y784196D1*
X3300230Y788457D1*
X3305104Y791999D1*
X3310472Y794734D1*
X3316203Y796596D1*
X3322155Y797539D1*
X3328181D1*
X3334133Y796596D1*
X3339864Y794734D1*
X3345232Y791999D1*
X3350106Y788457D1*
X3354367Y784196D1*
X3357909Y779322D1*
X3360644Y773953D1*
X3362507Y768222D1*
X3363450Y762270D1*
Y756244D1*
X4232109D2*
X4231165Y750293D1*
X4229303Y744562D1*
X4226568Y739193D1*
X4223026Y734319D1*
X4218765Y730058D1*
X4213891Y726516D1*
X4208522Y723781D1*
X4202791Y721919D1*
X4196840Y720975D1*
X4190814D1*
X4184862Y721919D1*
X4179131Y723781D1*
X4173762Y726516D1*
X4168888Y730058D1*
X4164627Y734319D1*
X4161085Y739193D1*
X4158350Y744562D1*
X4156488Y750293D1*
X4155545Y756244D1*
Y762270D1*
X4156488Y768222D1*
X4158350Y773953D1*
X4161085Y779322D1*
X4164627Y784196D1*
X4168888Y788457D1*
X4173762Y791999D1*
X4179131Y794734D1*
X4184862Y796596D1*
X4190814Y797539D1*
X4196840D1*
X4202791Y796596D1*
X4208522Y794734D1*
X4213891Y791999D1*
X4218765Y788457D1*
X4223026Y784196D1*
X4226568Y779322D1*
X4229303Y773953D1*
X4231165Y768222D1*
X4232109Y762270D1*
Y756244D1*
X1538642D2*
X1537698Y750293D1*
X1535836Y744562D1*
X1533101Y739193D1*
X1529559Y734319D1*
X1525298Y730058D1*
X1520424Y726516D1*
X1515055Y723781D1*
X1509324Y721919D1*
X1503373Y720975D1*
X1497346D1*
X1491395Y721919D1*
X1485664Y723781D1*
X1480295Y726516D1*
X1475421Y730058D1*
X1471160Y734319D1*
X1467618Y739193D1*
X1464883Y744562D1*
X1463021Y750293D1*
X1462077Y756244D1*
Y762270D1*
X1463021Y768222D1*
X1464883Y773953D1*
X1467618Y779322D1*
X1471160Y784196D1*
X1475421Y788457D1*
X1480295Y791999D1*
X1485664Y794734D1*
X1491395Y796596D1*
X1497346Y797539D1*
X1503373D1*
X1509324Y796596D1*
X1515055Y794734D1*
X1520424Y791999D1*
X1525298Y788457D1*
X1529559Y784196D1*
X1533101Y779322D1*
X1535836Y773953D1*
X1537698Y768222D1*
X1538642Y762270D1*
Y756244D1*
X598665Y4122507D2*
X598593Y3750672D1*
X598020Y3747045D1*
X596885Y3743552D1*
X595218Y3740281D1*
X593059Y3737310D1*
X590463Y3734714D1*
X587492Y3732555D1*
X584220Y3730888D1*
X580728Y3729753D1*
X577101Y3729180D1*
X573430D1*
X569803Y3729753D1*
X566311Y3730888D1*
X563039Y3732555D1*
X560068Y3734714D1*
X557472Y3737310D1*
X555314Y3740281D1*
X553647Y3743552D1*
X552512Y3747045D1*
X551938Y3750672D1*
X551866Y3772508D1*
X551938Y4129343D1*
X552512Y4132970D1*
X553647Y4136462D1*
X555314Y4139734D1*
X557472Y4142705D1*
X560068Y4145301D1*
X563039Y4147459D1*
X566311Y4149126D1*
X569803Y4150261D1*
X573430Y4150835D1*
X577101D1*
X580728Y4150261D1*
X584220Y4149126D1*
X587492Y4147459D1*
X590463Y4145301D1*
X593059Y4142705D1*
X595218Y4139734D1*
X596885Y4136462D1*
X598020Y4132970D1*
X598593Y4129343D1*
X598665Y4122507D1*
M02*
