M48
INCH
T01C0.0191
T02C0.09
T03C0.12
T04C0.125
T05C0.26
T06C0.3
%
T01
X+023925Y+006228
X+023753Y+007593
X+015004Y+007593
X+005942Y+007593
X+005005Y+016774
X+005005Y+029085
X+014441Y+027023
X+015879Y+027023
X+020066Y+027023
X+022565Y+027023
X+027627Y+027023
X+029940Y+027023
X+034127Y+027023
X+036876Y+027023
X+040876Y+027023
X+041688Y+037893
X+039314Y+037893
X+037251Y+037893
X+034439Y+037893
X+032439Y+037893
X+030190Y+037893
X+024690Y+037893
X+020441Y+037893
X+015128Y+041963
X+011004Y+041959
X+010567Y+051145
X+007442Y+051145
X+014566Y+051145
X+021378Y+051143
X+025378Y+051143
X+028315Y+051143
X+035814Y+051145
X+042251Y+051143
X+041938Y+007593
X+033252Y+007593
T02
X+038940Y+029525
X+008190Y+014525
T03
X+008940Y+043275
X+017940Y+043275
X+026940Y+043275
X+012940Y+033025
T04
X+006890Y+053345
X+040893Y+053344
X+040893Y+005116
X+006893Y+005116
T05
X+008190Y+010525
X+012690Y+010525
X+017190Y+010525
X+021690Y+010525
X+026190Y+010525
X+030690Y+010525
X+035190Y+010525
X+039690Y+010525
T06
X+008940Y+047025
X+008940Y+040525
X+008940Y+033025
X+008940Y+027025
X+008940Y+021025
X+017940Y+021025
X+024940Y+021025
X+031940Y+021025
X+038940Y+021025
X+038940Y+033025
X+031940Y+033025
X+024940Y+033025
X+017940Y+033025
X+017940Y+040525
X+022440Y+040525
X+026940Y+040525
X+031440Y+040525
X+035940Y+040525
X+040440Y+040525
X+038940Y+047025
X+026940Y+047025
X+017940Y+047025
T00
M30
